<svg width="322" height="97" viewBox="0 0 322 97" fill="none" xmlns="http://www.w3.org/2000/svg">
<path d="M0 0H104C109.523 0 114 4.47715 114 10V87C114 92.5228 109.523 97 104 97H0V0Z" fill="#A839FF"/>
<path d="M63.9761 73.0195C71.9601 73.0195 71.9887 61.7569 71.9887 61.7569H56.1102C56.1102 61.7569 55.9921 73.0195 63.9761 73.0195Z" fill="white"/>
<path d="M145.272 33.764C147.963 27.8193 153.885 24 160.41 24H305.383C314.56 24 322 31.4397 322 40.617V50.883C322 60.0603 314.56 67.5 305.383 67.5H141.628C136.178 67.5 132.548 61.8716 134.795 56.9069L145.272 33.764Z" fill="#D9D9D9"/>
<path d="M194.016 53H191.096L195.546 40.1093H199.058L203.502 53H200.581L197.352 43.055H197.251L194.016 53ZM193.834 47.9331H200.732V50.0606H193.834V47.9331ZM205.003 53V43.3319H207.558V45.0377H207.672C207.873 44.4712 208.209 44.0243 208.679 43.697C209.149 43.3697 209.711 43.2061 210.366 43.2061C211.029 43.2061 211.593 43.3718 212.059 43.7033C212.525 44.0306 212.835 44.4754 212.99 45.0377H213.091C213.288 44.4838 213.645 44.0411 214.161 43.7096C214.681 43.3739 215.296 43.2061 216.005 43.2061C216.908 43.2061 217.64 43.4935 218.202 44.0684C218.769 44.6391 219.052 45.4489 219.052 46.498V53H216.377V47.0267C216.377 46.4896 216.234 46.0868 215.949 45.8182C215.663 45.5496 215.307 45.4154 214.879 45.4154C214.392 45.4154 214.012 45.5706 213.739 45.8811C213.467 46.1875 213.33 46.5924 213.33 47.0959V53H210.731V46.9701C210.731 46.4959 210.594 46.1182 210.322 45.8371C210.053 45.5559 209.698 45.4154 209.258 45.4154C208.96 45.4154 208.691 45.4909 208.452 45.642C208.217 45.7888 208.03 45.9965 207.892 46.2651C207.754 46.5295 207.684 46.84 207.684 47.1966V53H205.003ZM223.927 53.1825C223.31 53.1825 222.76 53.0755 222.278 52.8615C221.795 52.6433 221.413 52.3223 221.132 51.8985C220.855 51.4705 220.717 50.9376 220.717 50.2997C220.717 49.7626 220.815 49.3115 221.012 48.9465C221.21 48.5814 221.478 48.2877 221.818 48.0653C222.158 47.8429 222.544 47.675 222.976 47.5617C223.413 47.4484 223.87 47.3687 224.348 47.3225C224.911 47.2638 225.364 47.2092 225.708 47.1589C226.052 47.1043 226.302 47.0246 226.457 46.9197C226.612 46.8148 226.69 46.6595 226.69 46.4539V46.4162C226.69 46.0175 226.564 45.7091 226.312 45.4909C226.065 45.2727 225.712 45.1636 225.255 45.1636C224.772 45.1636 224.388 45.2706 224.103 45.4846C223.818 45.6944 223.629 45.9588 223.537 46.2777L221.057 46.0763C221.182 45.4888 221.43 44.9811 221.799 44.553C222.169 44.1208 222.645 43.7893 223.228 43.5585C223.816 43.3236 224.495 43.2061 225.267 43.2061C225.805 43.2061 226.319 43.269 226.81 43.3949C227.305 43.5208 227.743 43.7159 228.125 43.9803C228.511 44.2446 228.815 44.5845 229.038 44.9999C229.26 45.4112 229.371 45.9042 229.371 46.4791V53H226.828V51.6593H226.753C226.598 51.9614 226.39 52.2279 226.13 52.4587C225.87 52.6853 225.557 52.8636 225.192 52.9937C224.827 53.1196 224.405 53.1825 223.927 53.1825ZM224.695 51.332C225.089 51.332 225.437 51.2544 225.74 51.0991C226.042 50.9397 226.279 50.7257 226.451 50.4571C226.623 50.1885 226.709 49.8843 226.709 49.5444V48.5185C226.625 48.573 226.51 48.6234 226.363 48.6695C226.22 48.7115 226.058 48.7513 225.878 48.7891C225.698 48.8227 225.517 48.8541 225.337 48.8835C225.156 48.9087 224.993 48.9318 224.846 48.9528C224.531 48.9989 224.256 49.0724 224.021 49.1731C223.786 49.2738 223.604 49.4101 223.474 49.5822C223.343 49.75 223.278 49.9598 223.278 50.2116C223.278 50.5767 223.411 50.8557 223.675 51.0488C223.944 51.2376 224.283 51.332 224.695 51.332ZM231.401 53V51.4012L236.135 45.5412V45.472H231.565V43.3319H239.364V45.0755L234.92 50.7907V50.8599H239.527V53H231.401ZM241.578 53V43.3319H244.259V53H241.578ZM242.925 42.0857C242.526 42.0857 242.184 41.9535 241.899 41.6891C241.617 41.4206 241.477 41.0996 241.477 40.7261C241.477 40.3568 241.617 40.04 241.899 39.7757C242.184 39.5071 242.526 39.3728 242.925 39.3728C243.323 39.3728 243.663 39.5071 243.944 39.7757C244.23 40.04 244.372 40.3568 244.372 40.7261C244.372 41.0996 244.23 41.4206 243.944 41.6891C243.663 41.9535 243.323 42.0857 242.925 42.0857ZM249.088 47.4107V53H246.407V43.3319H248.962V45.0377H249.076C249.29 44.4754 249.648 44.0306 250.152 43.7033C250.656 43.3718 251.266 43.2061 251.984 43.2061C252.655 43.2061 253.24 43.3529 253.74 43.6467C254.239 43.9404 254.627 44.36 254.904 44.9055C255.181 45.4468 255.32 46.093 255.32 46.8442V53H252.638V47.3225C252.642 46.7309 252.491 46.2693 252.185 45.9378C251.879 45.6021 251.457 45.4342 250.92 45.4342C250.559 45.4342 250.24 45.5119 249.963 45.6671C249.69 45.8224 249.476 46.049 249.321 46.3469C249.17 46.6407 249.092 46.9952 249.088 47.4107ZM261.789 56.8269C260.92 56.8269 260.175 56.7073 259.554 56.4682C258.937 56.2332 258.446 55.9122 258.081 55.5051C257.716 55.0981 257.479 54.6407 257.37 54.133L259.85 53.7994C259.925 53.9924 260.045 54.1728 260.209 54.3407C260.372 54.5085 260.588 54.6428 260.857 54.7435C261.13 54.8484 261.461 54.9009 261.852 54.9009C262.435 54.9009 262.915 54.7582 263.293 54.4729C263.675 54.1917 263.866 53.7196 263.866 53.0566V51.2879H263.752C263.635 51.5565 263.459 51.8104 263.224 52.0496C262.989 52.2887 262.687 52.4839 262.317 52.6349C261.948 52.786 261.507 52.8615 260.996 52.8615C260.27 52.8615 259.609 52.6937 259.013 52.358C258.421 52.0181 257.949 51.4999 257.597 50.8033C257.248 50.1025 257.074 49.2171 257.074 48.1471C257.074 47.0519 257.252 46.1371 257.609 45.4028C257.966 44.6684 258.44 44.1187 259.032 43.7537C259.628 43.3886 260.28 43.2061 260.989 43.2061C261.531 43.2061 261.984 43.2984 262.349 43.483C262.714 43.6634 263.008 43.89 263.23 44.1628C263.457 44.4313 263.631 44.6957 263.752 44.9559H263.853V43.3319H266.516V53.0944C266.516 53.9169 266.314 54.605 265.911 55.1589C265.509 55.7128 264.95 56.1283 264.237 56.4052C263.528 56.6864 262.712 56.8269 261.789 56.8269ZM261.845 50.8473C262.277 50.8473 262.643 50.7403 262.94 50.5263C263.243 50.3081 263.473 49.9976 263.633 49.5948C263.796 49.1877 263.878 48.701 263.878 48.1345C263.878 47.568 263.799 47.0771 263.639 46.6616C263.48 46.242 263.249 45.9168 262.947 45.686C262.645 45.4552 262.277 45.3398 261.845 45.3398C261.405 45.3398 261.033 45.4594 260.731 45.6986C260.429 45.9336 260.2 46.2609 260.045 46.6805C259.89 47.1001 259.812 47.5848 259.812 48.1345C259.812 48.6926 259.89 49.1752 260.045 49.5822C260.205 49.985 260.433 50.2976 260.731 50.52C261.033 50.7382 261.405 50.8473 261.845 50.8473ZM271.853 40.1093L271.608 49.1353H269.304L269.052 40.1093H271.853ZM270.456 53.1637C270.04 53.1637 269.684 53.0168 269.386 52.7231C269.088 52.4251 268.941 52.0684 268.945 51.653C268.941 51.2418 269.088 50.8893 269.386 50.5956C269.684 50.3018 270.04 50.155 270.456 50.155C270.854 50.155 271.205 50.3018 271.507 50.5956C271.809 50.8893 271.962 51.2418 271.966 51.653C271.962 51.93 271.889 52.1838 271.746 52.4146C271.608 52.6412 271.425 52.8238 271.199 52.9622C270.972 53.0965 270.724 53.1637 270.456 53.1637Z" fill="black"/>
<path d="M44.0034 49.2877L34.7597 40.0441C34.0224 39.3068 33.5308 38.4495 33.2851 37.4724C33.0453 36.4953 33.0483 35.5242 33.2941 34.5591C33.5398 33.5879 34.0284 32.7427 34.7597 32.0234C35.5091 31.286 36.3633 30.7975 37.3224 30.5577C38.2875 30.3119 39.2497 30.3119 40.2088 30.5577C41.1739 30.8035 42.0312 31.292 42.7805 32.0234L44.0034 33.2103L45.2263 32.0234C45.9816 31.292 46.8388 30.8035 47.7979 30.5577C48.7571 30.3119 49.7162 30.3119 50.6753 30.5577C51.6405 30.7975 52.4977 31.286 53.247 32.0234C53.9784 32.7427 54.4669 33.5879 54.7127 34.5591C54.9585 35.5242 54.9585 36.4953 54.7127 37.4724C54.4729 38.4495 53.9843 39.3068 53.247 40.0441L44.0034 49.2877Z" fill="black"/>
<path d="M85.0034 49.2877L75.7597 40.0441C75.0224 39.3068 74.5308 38.4495 74.2851 37.4724C74.0453 36.4953 74.0483 35.5242 74.2941 34.5591C74.5398 33.5879 75.0284 32.7427 75.7597 32.0234C76.5091 31.286 77.3633 30.7975 78.3224 30.5577C79.2875 30.3119 80.2497 30.3119 81.2088 30.5577C82.1739 30.8035 83.0312 31.292 83.7805 32.0234L85.0034 33.2103L86.2263 32.0234C86.9816 31.292 87.8388 30.8035 88.7979 30.5577C89.7571 30.3119 90.7162 30.3119 91.6753 30.5577C92.6405 30.7975 93.4977 31.286 94.247 32.0234C94.9784 32.7427 95.4669 33.5879 95.7127 34.5591C95.9585 35.5242 95.9585 36.4953 95.7127 37.4724C95.4729 38.4495 94.9843 39.3068 94.247 40.0441L85.0034 49.2877Z" fill="black"/>
</svg>
