<svg width="403" height="97" viewBox="0 0 403 97" fill="none" xmlns="http://www.w3.org/2000/svg">
<path d="M0 0H104C109.523 0 114 4.47715 114 10V87C114 92.5228 109.523 97 104 97H0V0Z" fill="#A839FF"/>
<circle cx="38.7546" cy="34.7546" r="7.75459" fill="black"/>
<circle cx="88.9748" cy="34.7546" r="7.75459" fill="black"/>
<path d="M63.9761 70.0195C71.9601 70.0195 71.9887 58.7569 71.9887 58.7569H56.1102C56.1102 58.7569 55.9921 70.0195 63.9761 70.0195Z" fill="white"/>
<path d="M143.935 23.817C146.051 16.8009 152.515 12 159.843 12H386.383C395.56 12 403 19.4397 403 28.617V53.383C403 62.5603 395.56 70 386.383 70H140.097C135.068 70 131.464 65.1481 132.917 60.3335L143.935 23.817Z" fill="#D9D9D9"/>
<path d="M177.441 30.593V28.8182H185.803V30.593H182.686V39H180.558V30.593H177.441ZM188.279 39.1442C187.791 39.1442 187.357 39.0597 186.976 38.8906C186.595 38.7183 186.293 38.4647 186.071 38.13C185.852 37.7919 185.743 37.371 185.743 36.8672C185.743 36.4429 185.821 36.0866 185.977 35.7983C186.133 35.5099 186.345 35.2779 186.613 35.1023C186.882 34.9266 187.186 34.794 187.528 34.7045C187.873 34.6151 188.234 34.5521 188.612 34.5156C189.056 34.4692 189.414 34.4261 189.686 34.3864C189.957 34.3433 190.155 34.2803 190.277 34.1974C190.4 34.1146 190.461 33.992 190.461 33.8295V33.7997C190.461 33.4848 190.362 33.2412 190.163 33.0689C189.967 32.8965 189.689 32.8104 189.328 32.8104C188.946 32.8104 188.643 32.8949 188.418 33.0639C188.192 33.2296 188.043 33.4384 187.97 33.6903L186.012 33.5312C186.111 33.0672 186.307 32.6662 186.598 32.3281C186.89 31.9867 187.266 31.7249 187.727 31.5426C188.191 31.357 188.728 31.2642 189.338 31.2642C189.762 31.2642 190.168 31.3139 190.556 31.4134C190.947 31.5128 191.293 31.6669 191.595 31.8757C191.9 32.0845 192.14 32.353 192.316 32.6811C192.491 33.0059 192.579 33.3954 192.579 33.8494V39H190.57V37.9411H190.511C190.388 38.1797 190.224 38.3902 190.019 38.5724C189.813 38.7514 189.566 38.8923 189.278 38.995C188.99 39.0945 188.656 39.1442 188.279 39.1442ZM188.885 37.6825C189.197 37.6825 189.472 37.6212 189.71 37.4986C189.949 37.3726 190.136 37.2036 190.272 36.9915C190.408 36.7794 190.476 36.5391 190.476 36.2706V35.4602C190.41 35.5033 190.319 35.5431 190.203 35.5795C190.09 35.6127 189.962 35.6442 189.82 35.674C189.677 35.7005 189.535 35.7254 189.392 35.7486C189.25 35.7685 189.12 35.7867 189.004 35.8033C188.756 35.8397 188.539 35.8977 188.353 35.9773C188.168 36.0568 188.023 36.1645 187.921 36.3004C187.818 36.433 187.767 36.5987 187.767 36.7976C187.767 37.0859 187.871 37.3063 188.08 37.4588C188.292 37.608 188.56 37.6825 188.885 37.6825ZM194.222 41.8636V31.3636H196.31V32.6463H196.405C196.497 32.4408 196.632 32.232 196.807 32.0199C196.986 31.8045 197.218 31.6255 197.503 31.483C197.792 31.3371 198.15 31.2642 198.577 31.2642C199.134 31.2642 199.648 31.41 200.118 31.7017C200.589 31.9901 200.965 32.4259 201.247 33.0092C201.529 33.5893 201.67 34.3168 201.67 35.1918C201.67 36.0436 201.532 36.7628 201.257 37.3494C200.985 37.9328 200.614 38.3752 200.143 38.6768C199.676 38.9751 199.152 39.1243 198.572 39.1243C198.161 39.1243 197.812 39.0563 197.523 38.9205C197.238 38.7846 197.005 38.6139 196.822 38.4084C196.64 38.1996 196.501 37.9891 196.405 37.777H196.34V41.8636H194.222ZM196.295 35.1818C196.295 35.6359 196.358 36.032 196.484 36.37C196.61 36.7081 196.792 36.9716 197.031 37.1605C197.27 37.3461 197.56 37.4389 197.901 37.4389C198.246 37.4389 198.537 37.3445 198.776 37.1555C199.015 36.9633 199.195 36.6982 199.318 36.3601C199.444 36.0187 199.507 35.6259 199.507 35.1818C199.507 34.741 199.446 34.3532 199.323 34.0185C199.2 33.6837 199.02 33.4219 198.781 33.233C198.542 33.044 198.249 32.9496 197.901 32.9496C197.556 32.9496 197.265 33.0407 197.026 33.223C196.791 33.4053 196.61 33.6638 196.484 33.9986C196.358 34.3333 196.295 34.7277 196.295 35.1818ZM210.384 31.3636V32.9545H205.785V31.3636H210.384ZM206.829 29.5341H208.947V36.6534C208.947 36.849 208.977 37.0014 209.036 37.1108C209.096 37.2169 209.179 37.2914 209.285 37.3345C209.394 37.3776 209.52 37.3991 209.663 37.3991C209.762 37.3991 209.862 37.3909 209.961 37.3743C210.06 37.3544 210.137 37.3395 210.19 37.3295L210.523 38.9055C210.417 38.9387 210.268 38.9768 210.075 39.0199C209.883 39.0663 209.649 39.0945 209.374 39.1044C208.864 39.1243 208.416 39.0563 208.032 38.9006C207.651 38.7448 207.354 38.5028 207.142 38.1747C206.93 37.8466 206.826 37.4323 206.829 36.9318V29.5341ZM214.045 34.5852V39H211.927V28.8182H213.985V32.7109H214.075C214.247 32.2602 214.526 31.9072 214.91 31.652C215.295 31.3935 215.777 31.2642 216.357 31.2642C216.887 31.2642 217.35 31.3802 217.744 31.6122C218.142 31.8409 218.45 32.1707 218.669 32.6016C218.891 33.0291 219 33.5412 218.997 34.1378V39H216.879V34.5156C216.882 34.045 216.763 33.6787 216.521 33.4169C216.282 33.1551 215.948 33.0241 215.517 33.0241C215.228 33.0241 214.973 33.0855 214.751 33.2081C214.532 33.3307 214.36 33.5097 214.234 33.745C214.111 33.977 214.048 34.2571 214.045 34.5852ZM224.144 39.1491C223.358 39.1491 222.682 38.9901 222.115 38.6719C221.552 38.3504 221.118 37.8963 220.813 37.3097C220.508 36.7197 220.355 36.022 220.355 35.2166C220.355 34.4311 220.508 33.7417 220.813 33.1484C221.118 32.5552 221.547 32.0928 222.1 31.7614C222.657 31.4299 223.31 31.2642 224.059 31.2642C224.563 31.2642 225.032 31.3454 225.466 31.5078C225.904 31.6669 226.285 31.9072 226.61 32.2287C226.938 32.5502 227.193 32.9545 227.375 33.4418C227.557 33.9257 227.649 34.4924 227.649 35.142V35.7237H221.2V34.4112H225.655C225.655 34.1063 225.589 33.8362 225.456 33.6009C225.324 33.3655 225.14 33.1816 224.904 33.049C224.672 32.9131 224.402 32.8452 224.094 32.8452C223.772 32.8452 223.487 32.9197 223.239 33.0689C222.994 33.2147 222.801 33.4119 222.662 33.6605C222.523 33.9058 222.452 34.1792 222.448 34.4808V35.7287C222.448 36.1065 222.518 36.433 222.657 36.7081C222.8 36.9832 223 37.1953 223.259 37.3445C223.517 37.4936 223.824 37.5682 224.178 37.5682C224.414 37.5682 224.629 37.535 224.825 37.4688C225.02 37.4025 225.188 37.303 225.327 37.1705C225.466 37.0379 225.572 36.8755 225.645 36.6832L227.604 36.8125C227.504 37.2831 227.301 37.6941 226.992 38.0455C226.687 38.3935 226.293 38.6652 225.809 38.8608C225.329 39.053 224.773 39.1491 224.144 39.1491ZM232.271 41.8636V31.3636H234.359V32.6463H234.453C234.546 32.4408 234.681 32.232 234.856 32.0199C235.035 31.8045 235.267 31.6255 235.552 31.483C235.841 31.3371 236.199 31.2642 236.626 31.2642C237.183 31.2642 237.697 31.41 238.167 31.7017C238.638 31.9901 239.014 32.4259 239.296 33.0092C239.578 33.5893 239.718 34.3168 239.718 35.1918C239.718 36.0436 239.581 36.7628 239.306 37.3494C239.034 37.9328 238.663 38.3752 238.192 38.6768C237.725 38.9751 237.201 39.1243 236.621 39.1243C236.21 39.1243 235.86 39.0563 235.572 38.9205C235.287 38.7846 235.053 38.6139 234.871 38.4084C234.689 38.1996 234.55 37.9891 234.453 37.777H234.389V41.8636H232.271ZM234.344 35.1818C234.344 35.6359 234.407 36.032 234.533 36.37C234.659 36.7081 234.841 36.9716 235.08 37.1605C235.319 37.3461 235.609 37.4389 235.95 37.4389C236.295 37.4389 236.586 37.3445 236.825 37.1555C237.064 36.9633 237.244 36.6982 237.367 36.3601C237.493 36.0187 237.556 35.6259 237.556 35.1818C237.556 34.741 237.494 34.3532 237.372 34.0185C237.249 33.6837 237.069 33.4219 236.83 33.233C236.591 33.044 236.298 32.9496 235.95 32.9496C235.605 32.9496 235.314 33.0407 235.075 33.223C234.84 33.4053 234.659 33.6638 234.533 33.9986C234.407 34.3333 234.344 34.7277 234.344 35.1818ZM246.027 35.7486V31.3636H248.145V39H246.112V37.6129H246.032C245.86 38.0604 245.573 38.42 245.172 38.6918C244.775 38.9635 244.289 39.0994 243.716 39.0994C243.205 39.0994 242.756 38.9834 242.368 38.7514C241.98 38.5194 241.677 38.1896 241.458 37.7621C241.243 37.3345 241.134 36.8224 241.13 36.2259V31.3636H243.248V35.848C243.252 36.2988 243.373 36.6551 243.611 36.9169C243.85 37.1787 244.17 37.3097 244.571 37.3097C244.826 37.3097 245.065 37.2517 245.287 37.1357C245.509 37.0163 245.688 36.8407 245.824 36.6087C245.963 36.3767 246.031 36.09 246.027 35.7486ZM249.839 39V31.3636H251.893V32.696H251.972C252.111 32.2221 252.345 31.8641 252.673 31.6222C253.001 31.3769 253.379 31.2543 253.807 31.2543C253.913 31.2543 254.027 31.2609 254.15 31.2741C254.272 31.2874 254.38 31.3056 254.473 31.3288V33.2081C254.373 33.1783 254.236 33.1518 254.06 33.1286C253.885 33.1054 253.724 33.0938 253.578 33.0938C253.266 33.0938 252.988 33.1617 252.743 33.2976C252.501 33.4302 252.309 33.6158 252.166 33.8544C252.027 34.093 251.957 34.3681 251.957 34.6797V39H249.839ZM255.568 41.8636V31.3636H257.656V32.6463H257.75C257.843 32.4408 257.977 32.232 258.153 32.0199C258.332 31.8045 258.564 31.6255 258.849 31.483C259.137 31.3371 259.495 31.2642 259.923 31.2642C260.48 31.2642 260.993 31.41 261.464 31.7017C261.935 31.9901 262.311 32.4259 262.593 33.0092C262.874 33.5893 263.015 34.3168 263.015 35.1918C263.015 36.0436 262.878 36.7628 262.603 37.3494C262.331 37.9328 261.96 38.3752 261.489 38.6768C261.022 38.9751 260.498 39.1243 259.918 39.1243C259.507 39.1243 259.157 39.0563 258.869 38.9205C258.584 38.7846 258.35 38.6139 258.168 38.4084C257.986 38.1996 257.846 37.9891 257.75 37.777H257.686V41.8636H255.568ZM257.641 35.1818C257.641 35.6359 257.704 36.032 257.83 36.37C257.956 36.7081 258.138 36.9716 258.377 37.1605C258.615 37.3461 258.905 37.4389 259.247 37.4389C259.592 37.4389 259.883 37.3445 260.122 37.1555C260.36 36.9633 260.541 36.6982 260.664 36.3601C260.79 36.0187 260.853 35.6259 260.853 35.1818C260.853 34.741 260.791 34.3532 260.669 34.0185C260.546 33.6837 260.365 33.4219 260.127 33.233C259.888 33.044 259.595 32.9496 259.247 32.9496C258.902 32.9496 258.61 33.0407 258.372 33.223C258.136 33.4053 257.956 33.6638 257.83 33.9986C257.704 34.3333 257.641 34.7277 257.641 35.1818ZM266.545 28.8182V39H264.427V28.8182H266.545ZM271.722 39.1491C270.936 39.1491 270.26 38.9901 269.693 38.6719C269.13 38.3504 268.696 37.8963 268.391 37.3097C268.086 36.7197 267.933 36.022 267.933 35.2166C267.933 34.4311 268.086 33.7417 268.391 33.1484C268.696 32.5552 269.125 32.0928 269.678 31.7614C270.235 31.4299 270.888 31.2642 271.637 31.2642C272.141 31.2642 272.61 31.3454 273.044 31.5078C273.482 31.6669 273.863 31.9072 274.188 32.2287C274.516 32.5502 274.771 32.9545 274.953 33.4418C275.136 33.9257 275.227 34.4924 275.227 35.142V35.7237H268.779V34.4112H273.233C273.233 34.1063 273.167 33.8362 273.034 33.6009C272.902 33.3655 272.718 33.1816 272.482 33.049C272.25 32.9131 271.98 32.8452 271.672 32.8452C271.351 32.8452 271.066 32.9197 270.817 33.0689C270.572 33.2147 270.379 33.4119 270.24 33.6605C270.101 33.9058 270.03 34.1792 270.026 34.4808V35.7287C270.026 36.1065 270.096 36.433 270.235 36.7081C270.378 36.9832 270.578 37.1953 270.837 37.3445C271.095 37.4936 271.402 37.5682 271.757 37.5682C271.992 37.5682 272.207 37.535 272.403 37.4688C272.598 37.4025 272.766 37.303 272.905 37.1705C273.044 37.0379 273.15 36.8755 273.223 36.6832L275.182 36.8125C275.083 37.2831 274.879 37.6941 274.57 38.0455C274.266 38.3935 273.871 38.6652 273.387 38.8608C272.907 39.053 272.352 39.1491 271.722 39.1491ZM279.889 39V28.8182H282.007V32.6463H282.071C282.164 32.4408 282.298 32.232 282.474 32.0199C282.653 31.8045 282.885 31.6255 283.17 31.483C283.458 31.3371 283.816 31.2642 284.244 31.2642C284.801 31.2642 285.315 31.41 285.785 31.7017C286.256 31.9901 286.632 32.4259 286.914 33.0092C287.195 33.5893 287.336 34.3168 287.336 35.1918C287.336 36.0436 287.199 36.7628 286.924 37.3494C286.652 37.9328 286.281 38.3752 285.81 38.6768C285.343 38.9751 284.819 39.1243 284.239 39.1243C283.828 39.1243 283.478 39.0563 283.19 38.9205C282.905 38.7846 282.671 38.6139 282.489 38.4084C282.307 38.1996 282.167 37.9891 282.071 37.777H281.977V39H279.889ZM281.962 35.1818C281.962 35.6359 282.025 36.032 282.151 36.37C282.277 36.7081 282.459 36.9716 282.698 37.1605C282.936 37.3461 283.226 37.4389 283.568 37.4389C283.913 37.4389 284.204 37.3445 284.443 37.1555C284.681 36.9633 284.862 36.6982 284.985 36.3601C285.111 36.0187 285.174 35.6259 285.174 35.1818C285.174 34.741 285.112 34.3532 284.99 34.0185C284.867 33.6837 284.686 33.4219 284.448 33.233C284.209 33.044 283.916 32.9496 283.568 32.9496C283.223 32.9496 282.931 33.0407 282.693 33.223C282.458 33.4053 282.277 33.6638 282.151 33.9986C282.025 34.3333 281.962 34.7277 281.962 35.1818ZM293.646 35.7486V31.3636H295.764V39H293.731V37.6129H293.651C293.479 38.0604 293.192 38.42 292.791 38.6918C292.394 38.9635 291.908 39.0994 291.335 39.0994C290.824 39.0994 290.375 38.9834 289.987 38.7514C289.6 38.5194 289.296 38.1896 289.078 37.7621C288.862 37.3345 288.753 36.8224 288.749 36.2259V31.3636H290.867V35.848C290.871 36.2988 290.992 36.6551 291.23 36.9169C291.469 37.1787 291.789 37.3097 292.19 37.3097C292.445 37.3097 292.684 37.2517 292.906 37.1357C293.128 37.0163 293.307 36.8407 293.443 36.6087C293.582 36.3767 293.65 36.09 293.646 35.7486ZM301.52 31.3636V32.9545H296.922V31.3636H301.52ZM297.966 29.5341H300.083V36.6534C300.083 36.849 300.113 37.0014 300.173 37.1108C300.233 37.2169 300.315 37.2914 300.422 37.3345C300.531 37.3776 300.657 37.3991 300.799 37.3991C300.899 37.3991 300.998 37.3909 301.098 37.3743C301.197 37.3544 301.273 37.3395 301.326 37.3295L301.659 38.9055C301.553 38.9387 301.404 38.9768 301.212 39.0199C301.02 39.0663 300.786 39.0945 300.511 39.1044C300.001 39.1243 299.553 39.0563 299.169 38.9006C298.788 38.7448 298.491 38.5028 298.279 38.1747C298.067 37.8466 297.962 37.4323 297.966 36.9318V29.5341ZM306.962 31.3636V32.9545H302.363V31.3636H306.962ZM303.407 29.5341H305.525V36.6534C305.525 36.849 305.555 37.0014 305.614 37.1108C305.674 37.2169 305.757 37.2914 305.863 37.3345C305.972 37.3776 306.098 37.3991 306.241 37.3991C306.34 37.3991 306.44 37.3909 306.539 37.3743C306.638 37.3544 306.715 37.3395 306.768 37.3295L307.101 38.9055C306.995 38.9387 306.846 38.9768 306.653 39.0199C306.461 39.0663 306.228 39.0945 305.952 39.1044C305.442 39.1243 304.995 39.0563 304.61 38.9006C304.229 38.7448 303.932 38.5028 303.72 38.1747C303.508 37.8466 303.404 37.4323 303.407 36.9318V29.5341ZM311.71 39.1491C310.937 39.1491 310.269 38.9851 309.706 38.657C309.146 38.3255 308.713 37.8648 308.408 37.2749C308.103 36.6816 307.951 35.9938 307.951 35.2116C307.951 34.4228 308.103 33.7334 308.408 33.1435C308.713 32.5502 309.146 32.0895 309.706 31.7614C310.269 31.4299 310.937 31.2642 311.71 31.2642C312.482 31.2642 313.148 31.4299 313.708 31.7614C314.272 32.0895 314.706 32.5502 315.011 33.1435C315.316 33.7334 315.468 34.4228 315.468 35.2116C315.468 35.9938 315.316 36.6816 315.011 37.2749C314.706 37.8648 314.272 38.3255 313.708 38.657C313.148 38.9851 312.482 39.1491 311.71 39.1491ZM311.719 37.5085C312.071 37.5085 312.364 37.4091 312.599 37.2102C312.835 37.008 313.012 36.733 313.131 36.3849C313.254 36.0369 313.315 35.6409 313.315 35.1967C313.315 34.7526 313.254 34.3565 313.131 34.0085C313.012 33.6605 312.835 33.3854 312.599 33.1832C312.364 32.9811 312.071 32.88 311.719 32.88C311.365 32.88 311.067 32.9811 310.825 33.1832C310.586 33.3854 310.405 33.6605 310.283 34.0085C310.163 34.3565 310.104 34.7526 310.104 35.1967C310.104 35.6409 310.163 36.0369 310.283 36.3849C310.405 36.733 310.586 37.008 310.825 37.2102C311.067 37.4091 311.365 37.5085 311.719 37.5085ZM318.963 34.5852V39H316.845V31.3636H318.864V32.7109H318.953C319.122 32.2668 319.406 31.9155 319.803 31.657C320.201 31.3951 320.683 31.2642 321.25 31.2642C321.78 31.2642 322.243 31.3802 322.637 31.6122C323.031 31.8442 323.338 32.1757 323.557 32.6065C323.776 33.0341 323.885 33.5445 323.885 34.1378V39H321.767V34.5156C321.77 34.0483 321.651 33.6837 321.409 33.4219C321.167 33.1567 320.834 33.0241 320.41 33.0241C320.125 33.0241 319.873 33.0855 319.654 33.2081C319.439 33.3307 319.27 33.5097 319.147 33.745C319.028 33.977 318.966 34.2571 318.963 34.5852ZM332.856 31.3636V32.9545H328.257V31.3636H332.856ZM329.301 29.5341H331.419V36.6534C331.419 36.849 331.449 37.0014 331.509 37.1108C331.569 37.2169 331.651 37.2914 331.757 37.3345C331.867 37.3776 331.993 37.3991 332.135 37.3991C332.235 37.3991 332.334 37.3909 332.434 37.3743C332.533 37.3544 332.609 37.3395 332.662 37.3295L332.995 38.9055C332.889 38.9387 332.74 38.9768 332.548 39.0199C332.356 39.0663 332.122 39.0945 331.847 39.1044C331.337 39.1243 330.889 39.0563 330.505 38.9006C330.123 38.7448 329.827 38.5028 329.615 38.1747C329.403 37.8466 329.298 37.4323 329.301 36.9318V29.5341ZM337.604 39.1491C336.832 39.1491 336.164 38.9851 335.6 38.657C335.04 38.3255 334.608 37.8648 334.303 37.2749C333.998 36.6816 333.846 35.9938 333.846 35.2116C333.846 34.4228 333.998 33.7334 334.303 33.1435C334.608 32.5502 335.04 32.0895 335.6 31.7614C336.164 31.4299 336.832 31.2642 337.604 31.2642C338.376 31.2642 339.042 31.4299 339.603 31.7614C340.166 32.0895 340.6 32.5502 340.905 33.1435C341.21 33.7334 341.363 34.4228 341.363 35.2116C341.363 35.9938 341.21 36.6816 340.905 37.2749C340.6 37.8648 340.166 38.3255 339.603 38.657C339.042 38.9851 338.376 39.1491 337.604 39.1491ZM337.614 37.5085C337.965 37.5085 338.259 37.4091 338.494 37.2102C338.729 37.008 338.907 36.733 339.026 36.3849C339.149 36.0369 339.21 35.6409 339.21 35.1967C339.21 34.7526 339.149 34.3565 339.026 34.0085C338.907 33.6605 338.729 33.3854 338.494 33.1832C338.259 32.9811 337.965 32.88 337.614 32.88C337.259 32.88 336.961 32.9811 336.719 33.1832C336.48 33.3854 336.3 33.6605 336.177 34.0085C336.058 34.3565 335.998 34.7526 335.998 35.1967C335.998 35.6409 336.058 36.0369 336.177 36.3849C336.3 36.733 336.48 37.008 336.719 37.2102C336.961 37.4091 337.259 37.5085 337.614 37.5085ZM348.157 39.1442C347.67 39.1442 347.236 39.0597 346.855 38.8906C346.474 38.7183 346.172 38.4647 345.95 38.13C345.731 37.7919 345.622 37.371 345.622 36.8672C345.622 36.4429 345.7 36.0866 345.856 35.7983C346.011 35.5099 346.224 35.2779 346.492 35.1023C346.76 34.9266 347.065 34.794 347.407 34.7045C347.751 34.6151 348.113 34.5521 348.491 34.5156C348.935 34.4692 349.293 34.4261 349.564 34.3864C349.836 34.3433 350.033 34.2803 350.156 34.1974C350.279 34.1146 350.34 33.992 350.34 33.8295V33.7997C350.34 33.4848 350.241 33.2412 350.042 33.0689C349.846 32.8965 349.568 32.8104 349.206 32.8104C348.825 32.8104 348.522 32.8949 348.297 33.0639C348.071 33.2296 347.922 33.4384 347.849 33.6903L345.89 33.5312C345.99 33.0672 346.185 32.6662 346.477 32.3281C346.769 31.9867 347.145 31.7249 347.606 31.5426C348.07 31.357 348.607 31.2642 349.216 31.2642C349.641 31.2642 350.047 31.3139 350.434 31.4134C350.826 31.5128 351.172 31.6669 351.474 31.8757C351.778 32.0845 352.019 32.353 352.194 32.6811C352.37 33.0059 352.458 33.3954 352.458 33.8494V39H350.449V37.9411H350.39C350.267 38.1797 350.103 38.3902 349.898 38.5724C349.692 38.7514 349.445 38.8923 349.157 38.995C348.868 39.0945 348.535 39.1442 348.157 39.1442ZM348.764 37.6825C349.076 37.6825 349.351 37.6212 349.589 37.4986C349.828 37.3726 350.015 37.2036 350.151 36.9915C350.287 36.7794 350.355 36.5391 350.355 36.2706V35.4602C350.289 35.5033 350.198 35.5431 350.081 35.5795C349.969 35.6127 349.841 35.6442 349.699 35.674C349.556 35.7005 349.414 35.7254 349.271 35.7486C349.129 35.7685 348.999 35.7867 348.883 35.8033C348.635 35.8397 348.418 35.8977 348.232 35.9773C348.046 36.0568 347.902 36.1645 347.8 36.3004C347.697 36.433 347.645 36.5987 347.645 36.7976C347.645 37.0859 347.75 37.3063 347.959 37.4588C348.171 37.608 348.439 37.6825 348.764 37.6825ZM356.915 39.1243C356.335 39.1243 355.81 38.9751 355.339 38.6768C354.872 38.3752 354.5 37.9328 354.225 37.3494C353.954 36.7628 353.818 36.0436 353.818 35.1918C353.818 34.3168 353.959 33.5893 354.24 33.0092C354.522 32.4259 354.896 31.9901 355.364 31.7017C355.834 31.41 356.35 31.2642 356.91 31.2642C357.338 31.2642 357.694 31.3371 357.979 31.483C358.267 31.6255 358.499 31.8045 358.675 32.0199C358.854 32.232 358.99 32.4408 359.083 32.6463H359.147V28.8182H361.26V39H359.172V37.777H359.083C358.983 37.9891 358.842 38.1996 358.66 38.4084C358.481 38.6139 358.247 38.7846 357.959 38.9205C357.674 39.0563 357.326 39.1243 356.915 39.1243ZM357.586 37.4389C357.927 37.4389 358.216 37.3461 358.451 37.1605C358.69 36.9716 358.872 36.7081 358.998 36.37C359.127 36.032 359.192 35.6359 359.192 35.1818C359.192 34.7277 359.129 34.3333 359.003 33.9986C358.877 33.6638 358.695 33.4053 358.456 33.223C358.218 33.0407 357.927 32.9496 357.586 32.9496C357.238 32.9496 356.945 33.044 356.706 33.233C356.468 33.4219 356.287 33.6837 356.164 34.0185C356.042 34.3532 355.98 34.741 355.98 35.1818C355.98 35.6259 356.042 36.0187 356.164 36.3601C356.29 36.6982 356.471 36.9633 356.706 37.1555C356.945 37.3445 357.238 37.4389 357.586 37.4389ZM365.815 39.1243C365.235 39.1243 364.71 38.9751 364.239 38.6768C363.772 38.3752 363.401 37.9328 363.126 37.3494C362.854 36.7628 362.718 36.0436 362.718 35.1918C362.718 34.3168 362.859 33.5893 363.141 33.0092C363.422 32.4259 363.797 31.9901 364.264 31.7017C364.735 31.41 365.25 31.2642 365.81 31.2642C366.238 31.2642 366.594 31.3371 366.879 31.483C367.168 31.6255 367.4 31.8045 367.575 32.0199C367.754 32.232 367.89 32.4408 367.983 32.6463H368.048V28.8182H370.161V39H368.072V37.777H367.983C367.884 37.9891 367.743 38.1996 367.56 38.4084C367.381 38.6139 367.148 38.7846 366.859 38.9205C366.574 39.0563 366.226 39.1243 365.815 39.1243ZM366.487 37.4389C366.828 37.4389 367.116 37.3461 367.352 37.1605C367.59 36.9716 367.772 36.7081 367.898 36.37C368.028 36.032 368.092 35.6359 368.092 35.1818C368.092 34.7277 368.029 34.3333 367.903 33.9986C367.777 33.6638 367.595 33.4053 367.357 33.223C367.118 33.0407 366.828 32.9496 366.487 32.9496C366.138 32.9496 365.845 33.044 365.607 33.233C365.368 33.4219 365.187 33.6837 365.065 34.0185C364.942 34.3532 364.881 34.741 364.881 35.1818C364.881 35.6259 364.942 36.0187 365.065 36.3601C365.191 36.6982 365.371 36.9633 365.607 37.1555C365.845 37.3445 366.138 37.4389 366.487 37.4389ZM226.462 48.3636V49.9545H221.863V48.3636H226.462ZM222.907 46.5341H225.025V53.6534C225.025 53.849 225.055 54.0014 225.114 54.1108C225.174 54.2169 225.257 54.2914 225.363 54.3345C225.472 54.3776 225.598 54.3991 225.741 54.3991C225.84 54.3991 225.94 54.3909 226.039 54.3743C226.138 54.3544 226.215 54.3395 226.268 54.3295L226.601 55.9055C226.495 55.9387 226.346 55.9768 226.153 56.0199C225.961 56.0663 225.728 56.0945 225.452 56.1044C224.942 56.1243 224.495 56.0563 224.11 55.9006C223.729 55.7448 223.432 55.5028 223.22 55.1747C223.008 54.8466 222.904 54.4323 222.907 53.9318V46.5341ZM230.123 51.5852V56H228.005V45.8182H230.064V49.7109H230.153C230.325 49.2602 230.604 48.9072 230.988 48.652C231.373 48.3935 231.855 48.2642 232.435 48.2642C232.965 48.2642 233.428 48.3802 233.822 48.6122C234.22 48.8409 234.528 49.1707 234.747 49.6016C234.969 50.0291 235.078 50.5412 235.075 51.1378V56H232.957V51.5156C232.96 51.045 232.841 50.6787 232.599 50.4169C232.36 50.1551 232.026 50.0241 231.595 50.0241C231.306 50.0241 231.051 50.0855 230.829 50.2081C230.61 50.3307 230.438 50.5097 230.312 50.745C230.19 50.977 230.127 51.2571 230.123 51.5852ZM240.222 56.1491C239.436 56.1491 238.76 55.9901 238.193 55.6719C237.63 55.3504 237.196 54.8963 236.891 54.3097C236.586 53.7197 236.433 53.022 236.433 52.2166C236.433 51.4311 236.586 50.7417 236.891 50.1484C237.196 49.5552 237.625 49.0928 238.178 48.7614C238.735 48.4299 239.388 48.2642 240.137 48.2642C240.641 48.2642 241.11 48.3454 241.544 48.5078C241.982 48.6669 242.363 48.9072 242.688 49.2287C243.016 49.5502 243.271 49.9545 243.453 50.4418C243.636 50.9257 243.727 51.4924 243.727 52.142V52.7237H237.279V51.4112H241.733C241.733 51.1063 241.667 50.8362 241.534 50.6009C241.402 50.3655 241.218 50.1816 240.982 50.049C240.75 49.9131 240.48 49.8452 240.172 49.8452C239.851 49.8452 239.566 49.9197 239.317 50.0689C239.072 50.2147 238.879 50.4119 238.74 50.6605C238.601 50.9058 238.53 51.1792 238.526 51.4808V52.7287C238.526 53.1065 238.596 53.433 238.735 53.7081C238.878 53.9832 239.078 54.1953 239.337 54.3445C239.595 54.4936 239.902 54.5682 240.257 54.5682C240.492 54.5682 240.707 54.535 240.903 54.4688C241.098 54.4025 241.266 54.303 241.405 54.1705C241.544 54.0379 241.65 53.8755 241.723 53.6832L243.682 53.8125C243.583 54.2831 243.379 54.6941 243.07 55.0455C242.766 55.3935 242.371 55.6652 241.887 55.8608C241.407 56.053 240.852 56.1491 240.222 56.1491ZM250.467 45.8182V56H248.349V45.8182H250.467ZM252.164 56V48.3636H254.281V56H252.164ZM253.227 47.3793C252.913 47.3793 252.642 47.2749 252.417 47.0661C252.195 46.8539 252.084 46.6004 252.084 46.3054C252.084 46.0137 252.195 45.7635 252.417 45.5547C252.642 45.3426 252.913 45.2365 253.227 45.2365C253.542 45.2365 253.811 45.3426 254.033 45.5547C254.258 45.7635 254.371 46.0137 254.371 46.3054C254.371 46.6004 254.258 46.8539 254.033 47.0661C253.811 47.2749 253.542 47.3793 253.227 47.3793ZM262.669 56.1491C261.886 56.1491 261.213 55.9834 260.65 55.652C260.09 55.3172 259.659 54.8532 259.357 54.2599C259.059 53.6667 258.91 52.9839 258.91 52.2116C258.91 51.4295 259.061 50.7434 259.362 50.1534C259.667 49.5601 260.1 49.0978 260.66 48.7663C261.22 48.4316 261.886 48.2642 262.659 48.2642C263.325 48.2642 263.908 48.3852 264.409 48.6271C264.909 48.8691 265.305 49.2088 265.597 49.6463C265.888 50.0838 266.049 50.5975 266.079 51.1875H264.08C264.024 50.8063 263.875 50.4998 263.633 50.2678C263.394 50.0324 263.081 49.9148 262.693 49.9148C262.365 49.9148 262.079 50.0043 261.833 50.1832C261.591 50.3589 261.402 50.6158 261.267 50.9538C261.131 51.2919 261.063 51.7012 261.063 52.1818C261.063 52.669 261.129 53.0833 261.262 53.4247C261.397 53.7661 261.588 54.0263 261.833 54.2053C262.079 54.3842 262.365 54.4737 262.693 54.4737C262.935 54.4737 263.152 54.424 263.345 54.3246C263.54 54.2251 263.701 54.081 263.827 53.892C263.956 53.6998 264.041 53.4695 264.08 53.201H266.079C266.046 53.7843 265.887 54.2981 265.602 54.7422C265.32 55.183 264.931 55.5277 264.433 55.7763C263.936 56.0249 263.348 56.1491 262.669 56.1491ZM270.885 56.1491C270.113 56.1491 269.445 55.9851 268.882 55.657C268.322 55.3255 267.889 54.8648 267.584 54.2749C267.279 53.6816 267.127 52.9938 267.127 52.2116C267.127 51.4228 267.279 50.7334 267.584 50.1435C267.889 49.5502 268.322 49.0895 268.882 48.7614C269.445 48.4299 270.113 48.2642 270.885 48.2642C271.658 48.2642 272.324 48.4299 272.884 48.7614C273.447 49.0895 273.882 49.5502 274.186 50.1435C274.491 50.7334 274.644 51.4228 274.644 52.2116C274.644 52.9938 274.491 53.6816 274.186 54.2749C273.882 54.8648 273.447 55.3255 272.884 55.657C272.324 55.9851 271.658 56.1491 270.885 56.1491ZM270.895 54.5085C271.247 54.5085 271.54 54.4091 271.775 54.2102C272.011 54.008 272.188 53.733 272.307 53.3849C272.43 53.0369 272.491 52.6409 272.491 52.1967C272.491 51.7526 272.43 51.3565 272.307 51.0085C272.188 50.6605 272.011 50.3854 271.775 50.1832C271.54 49.9811 271.247 49.88 270.895 49.88C270.541 49.88 270.242 49.9811 270 50.1832C269.762 50.3854 269.581 50.6605 269.458 51.0085C269.339 51.3565 269.279 51.7526 269.279 52.1967C269.279 52.6409 269.339 53.0369 269.458 53.3849C269.581 53.733 269.762 54.008 270 54.2102C270.242 54.4091 270.541 54.5085 270.895 54.5085ZM276.021 56V48.3636H278.039V49.7109H278.129C278.288 49.2635 278.553 48.9105 278.924 48.652C279.296 48.3935 279.74 48.2642 280.257 48.2642C280.78 48.2642 281.226 48.3951 281.594 48.657C281.962 48.9155 282.207 49.2668 282.33 49.7109H282.409C282.565 49.2734 282.847 48.9238 283.255 48.6619C283.666 48.3968 284.151 48.2642 284.711 48.2642C285.424 48.2642 286.002 48.4912 286.446 48.9453C286.894 49.3961 287.118 50.0357 287.118 50.8643V56H285.005V51.282C285.005 50.8577 284.892 50.5395 284.667 50.3274C284.441 50.1153 284.159 50.0092 283.821 50.0092C283.437 50.0092 283.137 50.1319 282.922 50.3771C282.706 50.6191 282.598 50.9389 282.598 51.3366V56H280.545V51.2372C280.545 50.8627 280.437 50.5644 280.222 50.3423C280.01 50.1203 279.73 50.0092 279.382 50.0092C279.146 50.0092 278.934 50.0689 278.745 50.1882C278.56 50.3042 278.412 50.4683 278.303 50.6804C278.194 50.8892 278.139 51.1345 278.139 51.4162V56H276.021ZM288.79 56V48.3636H290.809V49.7109H290.898C291.058 49.2635 291.323 48.9105 291.694 48.652C292.065 48.3935 292.509 48.2642 293.026 48.2642C293.55 48.2642 293.996 48.3951 294.364 48.657C294.732 48.9155 294.977 49.2668 295.099 49.7109H295.179C295.335 49.2734 295.616 48.9238 296.024 48.6619C296.435 48.3968 296.921 48.2642 297.481 48.2642C298.193 48.2642 298.772 48.4912 299.216 48.9453C299.663 49.3961 299.887 50.0357 299.887 50.8643V56H297.774V51.282C297.774 50.8577 297.661 50.5395 297.436 50.3274C297.211 50.1153 296.929 50.0092 296.591 50.0092C296.206 50.0092 295.906 50.1319 295.691 50.3771C295.476 50.6191 295.368 50.9389 295.368 51.3366V56H293.315V51.2372C293.315 50.8627 293.207 50.5644 292.991 50.3423C292.779 50.1203 292.499 50.0092 292.151 50.0092C291.916 50.0092 291.704 50.0689 291.515 50.1882C291.329 50.3042 291.182 50.4683 291.072 50.6804C290.963 50.8892 290.908 51.1345 290.908 51.4162V56H288.79ZM303.738 56.1442C303.25 56.1442 302.816 56.0597 302.435 55.8906C302.054 55.7183 301.752 55.4647 301.53 55.13C301.311 54.7919 301.202 54.371 301.202 53.8672C301.202 53.4429 301.28 53.0866 301.436 52.7983C301.592 52.5099 301.804 52.2779 302.072 52.1023C302.341 51.9266 302.645 51.794 302.987 51.7045C303.332 51.6151 303.693 51.5521 304.071 51.5156C304.515 51.4692 304.873 51.4261 305.145 51.3864C305.416 51.3433 305.614 51.2803 305.736 51.1974C305.859 51.1146 305.92 50.992 305.92 50.8295V50.7997C305.92 50.4848 305.821 50.2412 305.622 50.0689C305.426 49.8965 305.148 49.8104 304.787 49.8104C304.405 49.8104 304.102 49.8949 303.877 50.0639C303.651 50.2296 303.502 50.4384 303.429 50.6903L301.471 50.5312C301.57 50.0672 301.766 49.6662 302.057 49.3281C302.349 48.9867 302.725 48.7249 303.186 48.5426C303.65 48.357 304.187 48.2642 304.797 48.2642C305.221 48.2642 305.627 48.3139 306.015 48.4134C306.406 48.5128 306.752 48.6669 307.054 48.8757C307.359 49.0845 307.599 49.353 307.775 49.6811C307.95 50.0059 308.038 50.3954 308.038 50.8494V56H306.029V54.9411H305.97C305.847 55.1797 305.683 55.3902 305.478 55.5724C305.272 55.7514 305.025 55.8923 304.737 55.995C304.449 56.0945 304.115 56.1442 303.738 56.1442ZM304.344 54.6825C304.656 54.6825 304.931 54.6212 305.169 54.4986C305.408 54.3726 305.595 54.2036 305.731 53.9915C305.867 53.7794 305.935 53.5391 305.935 53.2706V52.4602C305.869 52.5033 305.778 52.5431 305.662 52.5795C305.549 52.6127 305.421 52.6442 305.279 52.674C305.136 52.7005 304.994 52.7254 304.851 52.7486C304.709 52.7685 304.579 52.7867 304.463 52.8033C304.215 52.8397 303.998 52.8977 303.812 52.9773C303.627 53.0568 303.482 53.1645 303.38 53.3004C303.277 53.433 303.225 53.5987 303.225 53.7976C303.225 54.0859 303.33 54.3063 303.539 54.4588C303.751 54.608 304.019 54.6825 304.344 54.6825ZM311.799 51.5852V56H309.681V48.3636H311.7V49.7109H311.789C311.958 49.2668 312.241 48.9155 312.639 48.657C313.037 48.3951 313.519 48.2642 314.086 48.2642C314.616 48.2642 315.079 48.3802 315.473 48.6122C315.867 48.8442 316.174 49.1757 316.393 49.6065C316.612 50.0341 316.721 50.5445 316.721 51.1378V56H314.603V51.5156C314.606 51.0483 314.487 50.6837 314.245 50.4219C314.003 50.1567 313.67 50.0241 313.246 50.0241C312.961 50.0241 312.709 50.0855 312.49 50.2081C312.275 50.3307 312.106 50.5097 311.983 50.745C311.864 50.977 311.802 51.2571 311.799 51.5852ZM321.204 56.1243C320.624 56.1243 320.099 55.9751 319.628 55.6768C319.161 55.3752 318.789 54.9328 318.514 54.3494C318.243 53.7628 318.107 53.0436 318.107 52.1918C318.107 51.3168 318.248 50.5893 318.529 50.0092C318.811 49.4259 319.186 48.9901 319.653 48.7017C320.124 48.41 320.639 48.2642 321.199 48.2642C321.627 48.2642 321.983 48.3371 322.268 48.483C322.556 48.6255 322.788 48.8045 322.964 49.0199C323.143 49.232 323.279 49.4408 323.372 49.6463H323.436V45.8182H325.549V56H323.461V54.777H323.372C323.272 54.9891 323.131 55.1996 322.949 55.4084C322.77 55.6139 322.536 55.7846 322.248 55.9205C321.963 56.0563 321.615 56.1243 321.204 56.1243ZM321.875 54.4389C322.217 54.4389 322.505 54.3461 322.74 54.1605C322.979 53.9716 323.161 53.7081 323.287 53.37C323.416 53.032 323.481 52.6359 323.481 52.1818C323.481 51.7277 323.418 51.3333 323.292 50.9986C323.166 50.6638 322.984 50.4053 322.745 50.223C322.507 50.0407 322.217 49.9496 321.875 49.9496C321.527 49.9496 321.234 50.044 320.995 50.233C320.757 50.4219 320.576 50.6837 320.453 51.0185C320.331 51.3532 320.269 51.741 320.269 52.1818C320.269 52.6259 320.331 53.0187 320.453 53.3601C320.579 53.6982 320.76 53.9633 320.995 54.1555C321.234 54.3445 321.527 54.4389 321.875 54.4389Z" fill="black"/>
</svg>
