<svg width="322" height="97" viewBox="0 0 322 97" fill="none" xmlns="http://www.w3.org/2000/svg">
<path d="M0 0H104C109.523 0 114 4.47715 114 10V87C114 92.5228 109.523 97 104 97H0V0Z" fill="#A839FF"/>
<circle cx="38.7546" cy="37.7546" r="7.75459" fill="black"/>
<circle cx="88.9748" cy="37.7546" r="7.75459" fill="black"/>
<path d="M63.9761 73.0195C71.9601 73.0195 71.9887 61.7569 71.9887 61.7569H56.1102C56.1102 61.7569 55.9921 73.0195 63.9761 73.0195Z" fill="white"/>
<path d="M145.272 33.764C147.963 27.8193 153.885 24 160.41 24H305.383C314.56 24 322 31.4397 322 40.617V50.883C322 60.0603 314.56 67.5 305.383 67.5H141.628C136.178 67.5 132.548 61.8716 134.795 56.9069L145.272 33.764Z" fill="#D9D9D9"/>
<path d="M175.861 53H172.94L177.39 40.1093H180.902L185.346 53H182.426L179.197 43.055H179.096L175.861 53ZM175.678 47.9331H182.577V50.0606H175.678V47.9331ZM189.529 40.1093V53H186.847V40.1093H189.529ZM191.677 53V43.3319H194.232V45.0377H194.345C194.547 44.4712 194.883 44.0243 195.353 43.697C195.823 43.3697 196.385 43.2061 197.039 43.2061C197.702 43.2061 198.267 43.3718 198.733 43.7033C199.198 44.0306 199.509 44.4754 199.664 45.0377H199.765C199.962 44.4838 200.319 44.0411 200.835 43.7096C201.355 43.3739 201.97 43.2061 202.679 43.2061C203.581 43.2061 204.314 43.4935 204.876 44.0684C205.442 44.6391 205.726 45.4489 205.726 46.498V53H203.051V47.0267C203.051 46.4896 202.908 46.0868 202.623 45.8182C202.337 45.5496 201.98 45.4154 201.552 45.4154C201.066 45.4154 200.686 45.5706 200.413 45.8811C200.14 46.1875 200.004 46.5924 200.004 47.0959V53H197.405V46.9701C197.405 46.4959 197.268 46.1182 196.995 45.8371C196.727 45.5559 196.372 45.4154 195.932 45.4154C195.634 45.4154 195.365 45.4909 195.126 45.642C194.891 45.7888 194.704 45.9965 194.566 46.2651C194.427 46.5295 194.358 46.84 194.358 47.1966V53H191.677ZM212.212 53.1888C211.234 53.1888 210.389 52.9811 209.675 52.5657C208.966 52.1461 208.419 51.5628 208.032 50.8159C207.646 50.0648 207.453 49.194 207.453 48.2037C207.453 47.205 207.646 46.3322 208.032 45.5853C208.419 44.8342 208.966 44.2509 209.675 43.8355C210.389 43.4159 211.234 43.2061 212.212 43.2061C213.19 43.2061 214.033 43.4159 214.742 43.8355C215.456 44.2509 216.005 44.8342 216.391 45.5853C216.777 46.3322 216.97 47.205 216.97 48.2037C216.97 49.194 216.777 50.0648 216.391 50.8159C216.005 51.5628 215.456 52.1461 214.742 52.5657C214.033 52.9811 213.19 53.1888 212.212 53.1888ZM212.224 51.1117C212.669 51.1117 213.041 50.9858 213.339 50.734C213.636 50.4781 213.861 50.1298 214.012 49.6892C214.167 49.2486 214.245 48.7471 214.245 48.1849C214.245 47.6226 214.167 47.1211 214.012 46.6805C213.861 46.2399 213.636 45.8916 213.339 45.6357C213.041 45.3797 212.669 45.2517 212.224 45.2517C211.775 45.2517 211.398 45.3797 211.091 45.6357C210.789 45.8916 210.561 46.2399 210.405 46.6805C210.254 47.1211 210.179 47.6226 210.179 48.1849C210.179 48.7471 210.254 49.2486 210.405 49.6892C210.561 50.1298 210.789 50.4781 211.091 50.734C211.398 50.9858 211.775 51.1117 212.224 51.1117ZM226.758 46.0888L224.303 46.2399C224.261 46.0301 224.171 45.8413 224.033 45.6734C223.894 45.5014 223.712 45.365 223.485 45.2643C223.263 45.1594 222.996 45.1069 222.686 45.1069C222.27 45.1069 221.92 45.1951 221.634 45.3713C221.349 45.5433 221.206 45.7741 221.206 46.0637C221.206 46.2945 221.299 46.4896 221.483 46.649C221.668 46.8085 221.985 46.9365 222.434 47.033L224.184 47.3855C225.124 47.5785 225.824 47.889 226.286 48.317C226.748 48.745 226.978 49.3073 226.978 50.0039C226.978 50.6375 226.792 51.1935 226.418 51.6719C226.049 52.1503 225.541 52.5237 224.895 52.7923C224.253 53.0566 223.512 53.1888 222.673 53.1888C221.393 53.1888 220.373 52.9224 219.614 52.3895C218.859 51.8523 218.416 51.1222 218.286 50.199L220.923 50.0606C221.003 50.4508 221.196 50.7487 221.502 50.9543C221.809 51.1558 222.201 51.2565 222.679 51.2565C223.149 51.2565 223.527 51.1663 223.812 50.9858C224.102 50.8012 224.249 50.5641 224.253 50.2746C224.249 50.0312 224.146 49.8319 223.944 49.6766C223.743 49.5171 223.433 49.3955 223.013 49.3115L221.339 48.9779C220.394 48.7891 219.692 48.4618 219.23 47.996C218.773 47.5302 218.544 46.9365 218.544 46.2147C218.544 45.5937 218.712 45.0587 219.047 44.6097C219.387 44.1607 219.864 43.8145 220.476 43.5711C221.093 43.3277 221.815 43.2061 222.642 43.2061C223.863 43.2061 224.824 43.4641 225.524 43.9803C226.229 44.4964 226.641 45.1993 226.758 46.0888ZM233.809 43.3319V45.3461H227.987V43.3319H233.809ZM229.309 41.0156H231.99V50.0291C231.99 50.2767 232.028 50.4697 232.103 50.6082C232.179 50.7424 232.284 50.8369 232.418 50.8914C232.557 50.946 232.716 50.9732 232.897 50.9732C233.022 50.9732 233.148 50.9627 233.274 50.9418C233.4 50.9166 233.497 50.8977 233.564 50.8851L233.985 52.8804C233.851 52.9224 233.662 52.9706 233.419 53.0252C233.176 53.0839 232.88 53.1196 232.531 53.1322C231.885 53.1574 231.319 53.0713 230.832 52.8741C230.349 52.6769 229.974 52.3706 229.705 51.9551C229.437 51.5397 229.305 51.0152 229.309 50.3816V41.0156ZM244.801 43.3319V45.3461H238.978V43.3319H244.801ZM240.3 41.0156H242.982V50.0291C242.982 50.2767 243.019 50.4697 243.095 50.6082C243.17 50.7424 243.275 50.8369 243.41 50.8914C243.548 50.946 243.708 50.9732 243.888 50.9732C244.014 50.9732 244.14 50.9627 244.266 50.9418C244.392 50.9166 244.488 50.8977 244.555 50.8851L244.977 52.8804C244.843 52.9224 244.654 52.9706 244.41 53.0252C244.167 53.0839 243.871 53.1196 243.523 53.1322C242.877 53.1574 242.31 53.0713 241.823 52.8741C241.341 52.6769 240.965 52.3706 240.697 51.9551C240.428 51.5397 240.296 51.0152 240.3 50.3816V41.0156ZM249.436 47.4107V53H246.755V40.1093H249.361V45.0377H249.474C249.692 44.467 250.045 44.0201 250.532 43.697C251.018 43.3697 251.629 43.2061 252.363 43.2061C253.035 43.2061 253.62 43.3529 254.119 43.6467C254.623 43.9362 255.013 44.3537 255.29 44.8992C255.571 45.4405 255.71 46.0888 255.706 46.8442V53H253.024V47.3225C253.028 46.7267 252.877 46.263 252.571 45.9315C252.269 45.6 251.845 45.4342 251.3 45.4342C250.934 45.4342 250.611 45.5119 250.33 45.6671C250.053 45.8224 249.835 46.049 249.676 46.3469C249.52 46.6407 249.441 46.9952 249.436 47.4107ZM262.222 53.1888C261.227 53.1888 260.371 52.9874 259.654 52.5846C258.94 52.1775 258.391 51.6027 258.005 50.8599C257.618 50.113 257.425 49.2297 257.425 48.21C257.425 47.2155 257.618 46.3427 258.005 45.5916C258.391 44.8405 258.934 44.2551 259.635 43.8355C260.34 43.4159 261.166 43.2061 262.115 43.2061C262.753 43.2061 263.346 43.3089 263.896 43.5145C264.45 43.7159 264.932 44.0201 265.344 44.4272C265.759 44.8342 266.082 45.3461 266.313 45.963C266.544 46.5756 266.659 47.2932 266.659 48.1156V48.8521H258.495V47.1904H264.135C264.135 46.8043 264.051 46.4623 263.883 46.1644C263.716 45.8665 263.483 45.6336 263.185 45.4657C262.891 45.2937 262.549 45.2076 262.159 45.2076C261.752 45.2076 261.391 45.3021 261.076 45.4909C260.766 45.6755 260.522 45.9252 260.346 46.2399C260.17 46.5504 260.08 46.8966 260.075 47.2785V48.8583C260.075 49.3367 260.163 49.75 260.34 50.0983C260.52 50.4466 260.774 50.7152 261.101 50.904C261.429 51.0928 261.817 51.1872 262.266 51.1872C262.564 51.1872 262.836 51.1453 263.084 51.0614C263.332 50.9774 263.544 50.8515 263.72 50.6837C263.896 50.5158 264.03 50.3102 264.123 50.0669L266.603 50.2305C266.477 50.8264 266.219 51.3467 265.828 51.7915C265.442 52.2321 264.943 52.5762 264.33 52.8238C263.722 53.0671 263.019 53.1888 262.222 53.1888ZM268.409 53V43.3319H271.009V45.0188H271.109C271.286 44.4188 271.581 43.9656 271.997 43.6592C272.412 43.3487 272.891 43.1935 273.432 43.1935C273.566 43.1935 273.711 43.2019 273.866 43.2186C274.021 43.2354 274.158 43.2585 274.275 43.2879V45.6671C274.149 45.6294 273.975 45.5958 273.753 45.5664C273.531 45.537 273.327 45.5224 273.142 45.5224C272.748 45.5224 272.395 45.6084 272.085 45.7804C271.779 45.9483 271.535 46.1833 271.355 46.4854C271.179 46.7875 271.09 47.1358 271.09 47.5302V53H268.409ZM279.618 53.1888C278.623 53.1888 277.767 52.9874 277.05 52.5846C276.336 52.1775 275.786 51.6027 275.4 50.8599C275.014 50.113 274.821 49.2297 274.821 48.21C274.821 47.2155 275.014 46.3427 275.4 45.5916C275.786 44.8405 276.33 44.2551 277.031 43.8355C277.736 43.4159 278.562 43.2061 279.511 43.2061C280.148 43.2061 280.742 43.3089 281.292 43.5145C281.846 43.7159 282.328 44.0201 282.74 44.4272C283.155 44.8342 283.478 45.3461 283.709 45.963C283.94 46.5756 284.055 47.2932 284.055 48.1156V48.8521H275.891V47.1904H281.531C281.531 46.8043 281.447 46.4623 281.279 46.1644C281.111 45.8665 280.879 45.6336 280.581 45.4657C280.287 45.2937 279.945 45.2076 279.555 45.2076C279.148 45.2076 278.787 45.3021 278.472 45.4909C278.162 45.6755 277.918 45.9252 277.742 46.2399C277.566 46.5504 277.475 46.8966 277.471 47.2785V48.8583C277.471 49.3367 277.559 49.75 277.736 50.0983C277.916 50.4466 278.17 50.7152 278.497 50.904C278.825 51.0928 279.213 51.1872 279.662 51.1872C279.96 51.1872 280.232 51.1453 280.48 51.0614C280.728 50.9774 280.939 50.8515 281.116 50.6837C281.292 50.5158 281.426 50.3102 281.519 50.0669L283.998 50.2305C283.873 50.8264 283.615 51.3467 283.224 51.7915C282.838 52.2321 282.339 52.5762 281.726 52.8238C281.118 53.0671 280.415 53.1888 279.618 53.1888ZM289.009 40.1093L288.763 49.1353H286.46L286.208 40.1093H289.009ZM287.611 53.1637C287.196 53.1637 286.839 53.0168 286.541 52.7231C286.243 52.4251 286.097 52.0684 286.101 51.653C286.097 51.2418 286.243 50.8893 286.541 50.5956C286.839 50.3018 287.196 50.155 287.611 50.155C288.01 50.155 288.36 50.3018 288.663 50.5956C288.965 50.8893 289.118 51.2418 289.122 51.653C289.118 51.93 289.044 52.1838 288.902 52.4146C288.763 52.6412 288.581 52.8238 288.354 52.9622C288.128 53.0965 287.88 53.1637 287.611 53.1637Z" fill="black"/>
</svg>
