<svg width="322" height="97" viewBox="0 0 322 97" fill="none" xmlns="http://www.w3.org/2000/svg">
<path d="M0 0H104C109.523 0 114 4.47715 114 10V87C114 92.5228 109.523 97 104 97H0V0Z" fill="#A839FF"/>
<circle cx="38.7546" cy="34.7546" r="7.75459" fill="black"/>
<circle cx="88.9748" cy="34.7546" r="7.75459" fill="black"/>
<path d="M63.9761 70.0195C71.9601 70.0195 71.9887 58.7569 71.9887 58.7569H56.1102C56.1102 58.7569 55.9921 70.0195 63.9761 70.0195Z" fill="white"/>
<path d="M145.272 30.764C147.963 24.8193 153.885 21 160.41 21H305.383C314.56 21 322 28.4397 322 37.617V47.883C322 57.0603 314.56 64.5 305.383 64.5H141.628C136.178 64.5 132.548 58.8716 134.795 53.9069L145.272 30.764Z" fill="#D9D9D9"/>
<path d="M171.769 50V37.1093H174.495V42.4279H180.028V37.1093H182.747V50H180.028V44.675H174.495V50H171.769ZM187.7 50.1825C187.083 50.1825 186.534 50.0755 186.051 49.8615C185.569 49.6433 185.187 49.3223 184.906 48.8985C184.629 48.4705 184.49 47.9376 184.49 47.2997C184.49 46.7626 184.589 46.3115 184.786 45.9465C184.983 45.5814 185.252 45.2877 185.592 45.0653C185.932 44.8429 186.318 44.675 186.75 44.5617C187.186 44.4484 187.644 44.3687 188.122 44.3225C188.684 44.2638 189.137 44.2092 189.482 44.1589C189.826 44.1043 190.075 44.0246 190.231 43.9197C190.386 43.8148 190.463 43.6595 190.463 43.4539V43.4162C190.463 43.0175 190.338 42.7091 190.086 42.4909C189.838 42.2727 189.486 42.1636 189.028 42.1636C188.546 42.1636 188.162 42.2706 187.877 42.4846C187.591 42.6944 187.402 42.9588 187.31 43.2777L184.83 43.0763C184.956 42.4888 185.204 41.9811 185.573 41.553C185.942 41.1208 186.418 40.7893 187.002 40.5585C187.589 40.3236 188.269 40.2061 189.041 40.2061C189.578 40.2061 190.092 40.269 190.583 40.3949C191.078 40.5208 191.517 40.7159 191.899 40.9803C192.285 41.2446 192.589 41.5845 192.811 41.9999C193.034 42.4112 193.145 42.9042 193.145 43.4791V50H190.602V48.6593H190.526C190.371 48.9614 190.163 49.2279 189.903 49.4587C189.643 49.6853 189.33 49.8636 188.965 49.9937C188.6 50.1196 188.179 50.1825 187.7 50.1825ZM188.468 48.332C188.863 48.332 189.211 48.2544 189.513 48.0991C189.815 47.9397 190.052 47.7257 190.224 47.4571C190.396 47.1885 190.482 46.8843 190.482 46.5444V45.5185C190.398 45.573 190.283 45.6234 190.136 45.6695C189.993 45.7115 189.832 45.7513 189.652 45.7891C189.471 45.8227 189.291 45.8541 189.11 45.8835C188.93 45.9087 188.766 45.9318 188.619 45.9528C188.305 45.9989 188.03 46.0724 187.795 46.1731C187.56 46.2738 187.377 46.4101 187.247 46.5822C187.117 46.75 187.052 46.9598 187.052 47.2116C187.052 47.5767 187.184 47.8557 187.448 48.0488C187.717 48.2376 188.057 48.332 188.468 48.332ZM197.906 44.4107V50H195.225V40.3319H197.781V42.0377H197.894C198.108 41.4754 198.467 41.0306 198.97 40.7033C199.474 40.3718 200.084 40.2061 200.802 40.2061C201.473 40.2061 202.059 40.3529 202.558 40.6467C203.057 40.9404 203.445 41.36 203.722 41.9055C203.999 42.4468 204.138 43.093 204.138 43.8442V50H201.456V44.3225C201.461 43.7309 201.31 43.2693 201.003 42.9378C200.697 42.6021 200.275 42.4342 199.738 42.4342C199.377 42.4342 199.058 42.5119 198.781 42.6671C198.509 42.8224 198.295 43.049 198.139 43.3469C197.988 43.6407 197.911 43.9952 197.906 44.4107ZM210.607 53.8269C209.738 53.8269 208.993 53.7073 208.372 53.4682C207.756 53.2332 207.265 52.9122 206.899 52.5051C206.534 52.0981 206.297 51.6407 206.188 51.133L208.668 50.7994C208.744 50.9924 208.863 51.1728 209.027 51.3407C209.191 51.5085 209.407 51.6428 209.675 51.7435C209.948 51.8484 210.28 51.9009 210.67 51.9009C211.253 51.9009 211.734 51.7582 212.111 51.4729C212.493 51.1917 212.684 50.7196 212.684 50.0566V48.2879H212.571C212.453 48.5565 212.277 48.8104 212.042 49.0496C211.807 49.2887 211.505 49.4839 211.136 49.6349C210.766 49.786 210.326 49.8615 209.814 49.8615C209.088 49.8615 208.427 49.6937 207.831 49.358C207.239 49.0181 206.767 48.4999 206.415 47.8033C206.067 47.1025 205.892 46.2171 205.892 45.1471C205.892 44.0519 206.071 43.1371 206.427 42.4028C206.784 41.6684 207.258 41.1187 207.85 40.7537C208.446 40.3886 209.098 40.2061 209.807 40.2061C210.349 40.2061 210.802 40.2984 211.167 40.483C211.532 40.6634 211.826 40.89 212.048 41.1628C212.275 41.4313 212.449 41.6957 212.571 41.9559H212.671V40.3319H215.334V50.0944C215.334 50.9169 215.132 51.605 214.73 52.1589C214.327 52.7128 213.769 53.1283 213.055 53.4052C212.346 53.6864 211.53 53.8269 210.607 53.8269ZM210.663 47.8473C211.096 47.8473 211.461 47.7403 211.759 47.5263C212.061 47.3081 212.292 46.9976 212.451 46.5948C212.615 46.1877 212.697 45.701 212.697 45.1345C212.697 44.568 212.617 44.0771 212.457 43.6616C212.298 43.242 212.067 42.9168 211.765 42.686C211.463 42.4552 211.096 42.3398 210.663 42.3398C210.223 42.3398 209.852 42.4594 209.549 42.6986C209.247 42.9336 209.019 43.2609 208.863 43.6805C208.708 44.1001 208.63 44.5848 208.63 45.1345C208.63 45.6926 208.708 46.1752 208.863 46.5822C209.023 46.985 209.251 47.2976 209.549 47.52C209.852 47.7382 210.223 47.8473 210.663 47.8473ZM221.57 50V40.3319H224.251V50H221.57ZM222.917 39.0857C222.518 39.0857 222.176 38.9535 221.891 38.6891C221.61 38.4206 221.469 38.0996 221.469 37.7261C221.469 37.3568 221.61 37.04 221.891 36.7757C222.176 36.5071 222.518 36.3728 222.917 36.3728C223.316 36.3728 223.655 36.5071 223.937 36.7757C224.222 37.04 224.365 37.3568 224.365 37.7261C224.365 38.0996 224.222 38.4206 223.937 38.6891C223.655 38.9535 223.316 39.0857 222.917 39.0857ZM229.081 44.4107V50H226.399V40.3319H228.955V42.0377H229.068C229.282 41.4754 229.641 41.0306 230.144 40.7033C230.648 40.3718 231.258 40.2061 231.976 40.2061C232.647 40.2061 233.233 40.3529 233.732 40.6467C234.231 40.9404 234.62 41.36 234.897 41.9055C235.174 42.4468 235.312 43.093 235.312 43.8442V50H232.631V44.3225C232.635 43.7309 232.484 43.2693 232.177 42.9378C231.871 42.6021 231.449 42.4342 230.912 42.4342C230.551 42.4342 230.232 42.5119 229.956 42.6671C229.683 42.8224 229.469 43.049 229.314 43.3469C229.162 43.6407 229.085 43.9952 229.081 44.4107ZM246.67 40.3319V42.3461H240.848V40.3319H246.67ZM242.17 38.0156H244.851V47.0291C244.851 47.2767 244.889 47.4697 244.964 47.6082C245.04 47.7424 245.145 47.8369 245.279 47.8914C245.418 47.946 245.577 47.9732 245.757 47.9732C245.883 47.9732 246.009 47.9627 246.135 47.9418C246.261 47.9166 246.357 47.8977 246.425 47.8851L246.846 49.8804C246.712 49.9224 246.523 49.9706 246.28 50.0252C246.036 50.0839 245.741 50.1196 245.392 50.1322C244.746 50.1574 244.18 50.0713 243.693 49.8741C243.21 49.6769 242.835 49.3706 242.566 48.9551C242.298 48.5397 242.165 48.0152 242.17 47.3816V38.0156ZM251.306 44.4107V50H248.624V37.1093H251.23V42.0377H251.344C251.562 41.467 251.914 41.0201 252.401 40.697C252.888 40.3697 253.498 40.2061 254.233 40.2061C254.904 40.2061 255.489 40.3529 255.989 40.6467C256.492 40.9362 256.883 41.3537 257.16 41.8992C257.441 42.4405 257.579 43.0888 257.575 43.8442V50H254.894V44.3225C254.898 43.7267 254.747 43.263 254.44 42.9315C254.138 42.6 253.714 42.4342 253.169 42.4342C252.804 42.4342 252.481 42.5119 252.2 42.6671C251.923 42.8224 251.704 43.049 251.545 43.3469C251.39 43.6407 251.31 43.9952 251.306 44.4107ZM264.091 50.1888C263.097 50.1888 262.241 49.9874 261.523 49.5846C260.81 49.1775 260.26 48.6027 259.874 47.8599C259.488 47.113 259.295 46.2297 259.295 45.21C259.295 44.2155 259.488 43.3427 259.874 42.5916C260.26 41.8405 260.803 41.2551 261.504 40.8355C262.209 40.4159 263.036 40.2061 263.984 40.2061C264.622 40.2061 265.216 40.3089 265.765 40.5145C266.319 40.7159 266.802 41.0201 267.213 41.4272C267.629 41.8342 267.952 42.3461 268.182 42.963C268.413 43.5756 268.529 44.2932 268.529 45.1156V45.8521H260.365V44.1904H266.005C266.005 43.8043 265.921 43.4623 265.753 43.1644C265.585 42.8665 265.352 42.6336 265.054 42.4657C264.76 42.2937 264.418 42.2076 264.028 42.2076C263.621 42.2076 263.26 42.3021 262.946 42.4909C262.635 42.6755 262.392 42.9252 262.215 43.2399C262.039 43.5504 261.949 43.8966 261.945 44.2785V45.8583C261.945 46.3367 262.033 46.75 262.209 47.0983C262.39 47.4466 262.643 47.7152 262.971 47.904C263.298 48.0928 263.686 48.1872 264.135 48.1872C264.433 48.1872 264.706 48.1453 264.953 48.0614C265.201 47.9774 265.413 47.8515 265.589 47.6837C265.765 47.5158 265.9 47.3102 265.992 47.0669L268.472 47.2305C268.346 47.8264 268.088 48.3467 267.698 48.7915C267.312 49.2321 266.812 49.5762 266.2 49.8238C265.591 50.0671 264.888 50.1888 264.091 50.1888ZM270.278 50V40.3319H272.878V42.0188H272.979C273.155 41.4188 273.451 40.9656 273.866 40.6592C274.282 40.3487 274.76 40.1935 275.301 40.1935C275.436 40.1935 275.58 40.2019 275.736 40.2186C275.891 40.2354 276.027 40.2585 276.145 40.2879V42.6671C276.019 42.6294 275.845 42.5958 275.622 42.5664C275.4 42.537 275.196 42.5224 275.012 42.5224C274.617 42.5224 274.265 42.6084 273.954 42.7804C273.648 42.9483 273.405 43.1833 273.224 43.4854C273.048 43.7875 272.96 44.1358 272.96 44.5302V50H270.278ZM281.487 50.1888C280.493 50.1888 279.637 49.9874 278.919 49.5846C278.206 49.1775 277.656 48.6027 277.27 47.8599C276.884 47.113 276.691 46.2297 276.691 45.21C276.691 44.2155 276.884 43.3427 277.27 42.5916C277.656 41.8405 278.199 41.2551 278.9 40.8355C279.605 40.4159 280.432 40.2061 281.38 40.2061C282.018 40.2061 282.612 40.3089 283.161 40.5145C283.715 40.7159 284.198 41.0201 284.609 41.4272C285.024 41.8342 285.348 42.3461 285.578 42.963C285.809 43.5756 285.925 44.2932 285.925 45.1156V45.8521H277.761V44.1904H283.401C283.401 43.8043 283.317 43.4623 283.149 43.1644C282.981 42.8665 282.748 42.6336 282.45 42.4657C282.156 42.2937 281.814 42.2076 281.424 42.2076C281.017 42.2076 280.656 42.3021 280.341 42.4909C280.031 42.6755 279.788 42.9252 279.611 43.2399C279.435 43.5504 279.345 43.8966 279.341 44.2785V45.8583C279.341 46.3367 279.429 46.75 279.605 47.0983C279.785 47.4466 280.039 47.7152 280.367 47.904C280.694 48.0928 281.082 48.1872 281.531 48.1872C281.829 48.1872 282.102 48.1453 282.349 48.0614C282.597 47.9774 282.809 47.8515 282.985 47.6837C283.161 47.5158 283.296 47.3102 283.388 47.0669L285.868 47.2305C285.742 47.8264 285.484 48.3467 285.094 48.7915C284.708 49.2321 284.208 49.5762 283.596 49.8238C282.987 50.0671 282.284 50.1888 281.487 50.1888ZM290.878 37.1093L290.633 46.1353H288.329L288.077 37.1093H290.878ZM289.481 50.1637C289.065 50.1637 288.709 50.0168 288.411 49.7231C288.113 49.4251 287.966 49.0684 287.97 48.653C287.966 48.2418 288.113 47.8893 288.411 47.5956C288.709 47.3018 289.065 47.155 289.481 47.155C289.879 47.155 290.23 47.3018 290.532 47.5956C290.834 47.8893 290.987 48.2418 290.991 48.653C290.987 48.93 290.914 49.1838 290.771 49.4146C290.633 49.6412 290.45 49.8238 290.224 49.9622C289.997 50.0965 289.749 50.1637 289.481 50.1637Z" fill="black"/>
</svg>
