<svg width="258" height="97" viewBox="0 0 258 97" fill="none" xmlns="http://www.w3.org/2000/svg">
<path d="M0 0H104C109.523 0 114 4.47715 114 10V87C114 92.5228 109.523 97 104 97H0V0Z" fill="#A839FF"/>
<circle cx="38.7546" cy="34.7546" r="7.75459" fill="black"/>
<circle cx="88.9748" cy="34.7546" r="7.75459" fill="black"/>
<path d="M63.9761 70.0195C71.9601 70.0195 71.9887 58.7569 71.9887 58.7569H56.1102C56.1102 58.7569 55.9921 70.0195 63.9761 70.0195Z" fill="white"/>
<path d="M140.181 32.5094C141.976 28.5462 145.923 26 150.273 26H246.922C253.04 26 258 30.9598 258 37.078V43.922C258 50.0402 253.04 55 246.922 55H137.752C134.119 55 131.699 51.2477 133.197 47.938L140.181 32.5094Z" fill="#D9D9D9"/>
<path d="M158.18 45V36.4062H159.997V39.952H163.685V36.4062H165.498V45H163.685V41.45H159.997V45H158.18ZM168.8 45.1217C168.389 45.1217 168.022 45.0504 167.701 44.9077C167.379 44.7622 167.124 44.5482 166.937 44.2657C166.752 43.9803 166.66 43.625 166.66 43.1998C166.66 42.8418 166.726 42.541 166.857 42.2976C166.989 42.0543 167.168 41.8584 167.394 41.7102C167.621 41.5619 167.878 41.45 168.167 41.3745C168.457 41.2989 168.762 41.2458 169.081 41.215C169.456 41.1759 169.758 41.1395 169.988 41.1059C170.217 41.0696 170.384 41.0164 170.487 40.9465C170.591 40.8765 170.642 40.773 170.642 40.6359V40.6108C170.642 40.345 170.558 40.1394 170.391 39.9939C170.225 39.8485 169.991 39.7757 169.686 39.7757C169.364 39.7757 169.108 39.8471 168.918 39.9897C168.727 40.1296 168.602 40.3058 168.54 40.5185L166.887 40.3842C166.971 39.9925 167.136 39.654 167.382 39.3687C167.628 39.0806 167.946 38.8596 168.334 38.7057C168.726 38.549 169.179 38.4707 169.694 38.4707C170.052 38.4707 170.395 38.5127 170.722 38.5966C171.052 38.6805 171.344 38.8106 171.599 38.9868C171.856 39.1631 172.059 39.3897 172.208 39.6666C172.356 39.9408 172.43 40.2695 172.43 40.6527V45H170.735V44.1062H170.684C170.581 44.3076 170.442 44.4853 170.269 44.6391C170.095 44.7902 169.887 44.9091 169.644 44.9958C169.4 45.0797 169.119 45.1217 168.8 45.1217ZM169.312 43.888C169.575 43.888 169.807 43.8363 170.009 43.7327C170.21 43.6264 170.368 43.4838 170.483 43.3047C170.598 43.1257 170.655 42.9229 170.655 42.6963V42.0123C170.599 42.0487 170.522 42.0822 170.424 42.113C170.329 42.141 170.221 42.1676 170.101 42.1927C169.981 42.2151 169.86 42.2361 169.74 42.2557C169.62 42.2725 169.511 42.2879 169.413 42.3018C169.203 42.3326 169.02 42.3816 168.863 42.4487C168.706 42.5158 168.585 42.6068 168.498 42.7215C168.411 42.8334 168.368 42.9732 168.368 43.1411C168.368 43.3845 168.456 43.5705 168.632 43.6992C168.811 43.8251 169.038 43.888 169.312 43.888ZM175.604 41.2738V45H173.817V38.5546H175.52V39.6918H175.596C175.739 39.3169 175.978 39.0204 176.313 38.8022C176.649 38.5812 177.056 38.4707 177.535 38.4707C177.982 38.4707 178.372 38.5686 178.705 38.7644C179.038 38.9603 179.297 39.24 179.482 39.6037C179.666 39.9646 179.759 40.3954 179.759 40.8961V45H177.971V41.215C177.974 40.8206 177.873 40.5129 177.669 40.2919C177.465 40.0681 177.184 39.9562 176.825 39.9562C176.585 39.9562 176.372 40.0079 176.188 40.1114C176.006 40.2149 175.863 40.366 175.76 40.5646C175.659 40.7604 175.607 40.9968 175.604 41.2738ZM184.071 47.5513C183.492 47.5513 182.996 47.4716 182.582 47.3121C182.17 47.1555 181.843 46.9414 181.6 46.6701C181.356 46.3987 181.198 46.0938 181.125 45.7553L182.779 45.5329C182.829 45.6616 182.909 45.7819 183.018 45.8938C183.127 46.0057 183.271 46.0952 183.45 46.1623C183.632 46.2323 183.853 46.2673 184.113 46.2673C184.502 46.2673 184.822 46.1721 185.074 45.9819C185.329 45.7945 185.456 45.4798 185.456 45.0378V43.8586H185.38C185.302 44.0377 185.185 44.2069 185.028 44.3664C184.871 44.5258 184.67 44.6559 184.424 44.7566C184.178 44.8573 183.884 44.9077 183.543 44.9077C183.059 44.9077 182.618 44.7958 182.221 44.572C181.826 44.3454 181.512 43.9999 181.277 43.5355C181.044 43.0683 180.928 42.4781 180.928 41.7647C180.928 41.0346 181.047 40.4247 181.285 39.9352C181.523 39.4456 181.839 39.0792 182.233 38.8358C182.631 38.5924 183.066 38.4707 183.538 38.4707C183.899 38.4707 184.201 38.5322 184.445 38.6553C184.688 38.7756 184.884 38.9267 185.032 39.1085C185.183 39.2876 185.299 39.4638 185.38 39.6372H185.448V38.5546H187.223V45.0629C187.223 45.6112 187.088 46.07 186.82 46.4393C186.551 46.8086 186.179 47.0855 185.704 47.2701C185.231 47.4576 184.687 47.5513 184.071 47.5513ZM184.109 43.5649C184.397 43.5649 184.641 43.4936 184.839 43.3509C185.041 43.2054 185.194 42.9984 185.301 42.7299C185.41 42.4585 185.464 42.134 185.464 41.7563C185.464 41.3787 185.411 41.0514 185.305 40.7744C185.199 40.4947 185.045 40.2779 184.843 40.124C184.642 39.9701 184.397 39.8932 184.109 39.8932C183.815 39.8932 183.568 39.9729 183.366 40.1324C183.165 40.2891 183.012 40.5073 182.909 40.787C182.805 41.0668 182.754 41.3899 182.754 41.7563C182.754 42.1284 182.805 42.4501 182.909 42.7215C183.015 42.99 183.168 43.1984 183.366 43.3467C183.568 43.4922 183.815 43.5649 184.109 43.5649ZM191.38 45V38.5546H193.168V45H191.38ZM192.278 37.7238C192.012 37.7238 191.784 37.6357 191.594 37.4594C191.407 37.2804 191.313 37.0664 191.313 36.8174C191.313 36.5712 191.407 36.36 191.594 36.1838C191.784 36.0047 192.012 35.9152 192.278 35.9152C192.544 35.9152 192.77 36.0047 192.958 36.1838C193.148 36.36 193.243 36.5712 193.243 36.8174C193.243 37.0664 193.148 37.2804 192.958 37.4594C192.77 37.6357 192.544 37.7238 192.278 37.7238ZM196.387 41.2738V45H194.6V38.5546H196.303V39.6918H196.379C196.521 39.3169 196.761 39.0204 197.096 38.8022C197.432 38.5812 197.839 38.4707 198.317 38.4707C198.765 38.4707 199.155 38.5686 199.488 38.7644C199.821 38.9603 200.08 39.24 200.264 39.6037C200.449 39.9646 200.541 40.3954 200.541 40.8961V45H198.754V41.215C198.757 40.8206 198.656 40.5129 198.452 40.2919C198.247 40.0681 197.966 39.9562 197.608 39.9562C197.368 39.9562 197.155 40.0079 196.97 40.1114C196.789 40.2149 196.646 40.366 196.542 40.5646C196.442 40.7604 196.39 40.9968 196.387 41.2738ZM208.113 38.5546V39.8974H204.232V38.5546H208.113ZM205.113 37.0104H206.901V43.0194C206.901 43.1844 206.926 43.3131 206.976 43.4054C207.027 43.495 207.096 43.5579 207.186 43.5943C207.278 43.6306 207.385 43.6488 207.505 43.6488C207.589 43.6488 207.673 43.6418 207.757 43.6278C207.841 43.6111 207.905 43.5985 207.95 43.5901L208.231 44.9203C208.141 44.9482 208.015 44.9804 207.853 45.0168C207.691 45.0559 207.494 45.0797 207.262 45.0881C206.831 45.1049 206.453 45.0476 206.129 44.9161C205.807 44.7846 205.556 44.5804 205.377 44.3034C205.198 44.0265 205.11 43.6768 205.113 43.2544V37.0104ZM211.204 41.2738V45H209.416V36.4062H211.154V39.6918H211.229C211.375 39.3113 211.61 39.0134 211.934 38.798C212.259 38.5798 212.666 38.4707 213.155 38.4707C213.603 38.4707 213.993 38.5686 214.326 38.7644C214.662 38.9575 214.922 39.2358 215.106 39.5995C215.294 39.9604 215.386 40.3926 215.383 40.8961V45H213.596V41.215C213.599 40.8178 213.498 40.5087 213.294 40.2877C213.092 40.0667 212.81 39.9562 212.446 39.9562C212.203 39.9562 211.987 40.0079 211.8 40.1114C211.615 40.2149 211.47 40.366 211.363 40.5646C211.26 40.7604 211.207 40.9968 211.204 41.2738ZM219.727 45.1259C219.064 45.1259 218.494 44.9916 218.015 44.7231C217.54 44.4517 217.173 44.0684 216.916 43.5733C216.659 43.0753 216.53 42.4865 216.53 41.8067C216.53 41.1437 216.659 40.5618 216.916 40.0611C217.173 39.5603 217.536 39.1701 218.003 38.8903C218.473 38.6106 219.024 38.4707 219.656 38.4707C220.081 38.4707 220.477 38.5392 220.844 38.6763C221.213 38.8106 221.535 39.0134 221.809 39.2848C222.086 39.5561 222.301 39.8974 222.455 40.3086C222.609 40.7171 222.686 41.1954 222.686 41.7437V42.2347H217.243V41.1269H221.003C221.003 40.8695 220.947 40.6415 220.835 40.4429C220.723 40.2443 220.568 40.089 220.369 39.9771C220.174 39.8624 219.946 39.8051 219.685 39.8051C219.414 39.8051 219.174 39.868 218.964 39.9939C218.757 40.117 218.594 40.2835 218.477 40.4933C218.359 40.7003 218.299 40.9311 218.297 41.1856V42.2389C218.297 42.5578 218.355 42.8334 218.473 43.0655C218.593 43.2977 218.762 43.4768 218.981 43.6027C219.199 43.7285 219.457 43.7915 219.757 43.7915C219.955 43.7915 220.137 43.7635 220.302 43.7076C220.467 43.6516 220.609 43.5677 220.726 43.4558C220.844 43.3439 220.933 43.2068 220.995 43.0446L222.648 43.1537C222.564 43.5509 222.392 43.8978 222.132 44.1943C221.874 44.4881 221.542 44.7175 221.133 44.8825C220.728 45.0448 220.259 45.1259 219.727 45.1259ZM223.852 45V38.5546H225.585V39.6792H225.652C225.77 39.2792 225.967 38.977 226.244 38.7728C226.521 38.5658 226.84 38.4623 227.201 38.4623C227.29 38.4623 227.387 38.4679 227.49 38.4791C227.594 38.4903 227.685 38.5057 227.763 38.5253V40.1114C227.679 40.0862 227.563 40.0639 227.415 40.0443C227.267 40.0247 227.131 40.0149 227.008 40.0149C226.745 40.0149 226.51 40.0723 226.303 40.187C226.099 40.2989 225.936 40.4555 225.816 40.6569C225.699 40.8583 225.64 41.0905 225.64 41.3535V45H223.852ZM231.325 45.1259C230.662 45.1259 230.091 44.9916 229.613 44.7231C229.137 44.4517 228.771 44.0684 228.513 43.5733C228.256 43.0753 228.127 42.4865 228.127 41.8067C228.127 41.1437 228.256 40.5618 228.513 40.0611C228.771 39.5603 229.133 39.1701 229.6 38.8903C230.07 38.6106 230.621 38.4707 231.253 38.4707C231.679 38.4707 232.074 38.5392 232.441 38.6763C232.81 38.8106 233.132 39.0134 233.406 39.2848C233.683 39.5561 233.898 39.8974 234.052 40.3086C234.206 40.7171 234.283 41.1954 234.283 41.7437V42.2347H228.841V41.1269H232.6C232.6 40.8695 232.544 40.6415 232.432 40.4429C232.321 40.2443 232.165 40.089 231.967 39.9771C231.771 39.8624 231.543 39.8051 231.283 39.8051C231.011 39.8051 230.771 39.868 230.561 39.9939C230.354 40.117 230.192 40.2835 230.074 40.4933C229.957 40.7003 229.897 40.9311 229.894 41.1856V42.2389C229.894 42.5578 229.953 42.8334 230.07 43.0655C230.19 43.2977 230.36 43.4768 230.578 43.6027C230.796 43.7285 231.055 43.7915 231.354 43.7915C231.553 43.7915 231.735 43.7635 231.9 43.7076C232.065 43.6516 232.206 43.5677 232.323 43.4558C232.441 43.3439 232.53 43.2068 232.592 43.0446L234.245 43.1537C234.161 43.5509 233.989 43.8978 233.729 44.1943C233.472 44.4881 233.139 44.7175 232.73 44.8825C232.325 45.0448 231.856 45.1259 231.325 45.1259ZM237.585 36.4062L237.422 42.4235H235.886L235.718 36.4062H237.585ZM236.654 45.1091C236.377 45.1091 236.139 45.0112 235.941 44.8154C235.742 44.6167 235.644 44.379 235.647 44.102C235.644 43.8279 235.742 43.5929 235.941 43.397C236.139 43.2012 236.377 43.1033 236.654 43.1033C236.92 43.1033 237.153 43.2012 237.355 43.397C237.556 43.5929 237.658 43.8279 237.661 44.102C237.658 44.2866 237.609 44.4559 237.514 44.6098C237.422 44.7608 237.3 44.8825 237.149 44.9748C236.998 45.0643 236.833 45.1091 236.654 45.1091Z" fill="black"/>
</svg>
