<svg width="403" height="97" viewBox="0 0 403 97" fill="none" xmlns="http://www.w3.org/2000/svg">
<path d="M0 0H104C109.523 0 114 4.47715 114 10V87C114 92.5228 109.523 97 104 97H0V0Z" fill="#A839FF"/>
<circle cx="38.7546" cy="34.7546" r="7.75459" fill="black"/>
<circle cx="88.9748" cy="34.7546" r="7.75459" fill="black"/>
<path d="M63.9761 70.0195C71.9601 70.0195 71.9887 58.7569 71.9887 58.7569H56.1102C56.1102 58.7569 55.9921 70.0195 63.9761 70.0195Z" fill="white"/>
<path d="M143.935 23.817C146.051 16.8009 152.515 12 159.843 12H386.383C395.56 12 403 19.4397 403 28.617V53.383C403 62.5603 395.56 70 386.383 70H140.097C135.068 70 131.464 65.1481 132.917 60.3335L143.935 23.817Z" fill="#D9D9D9"/>
<path d="M191.514 39H187.904V28.8182H191.544C192.568 28.8182 193.449 29.022 194.189 29.4297C194.928 29.834 195.496 30.4157 195.894 31.1747C196.295 31.9337 196.495 32.8419 196.495 33.8991C196.495 34.9598 196.295 35.8712 195.894 36.6335C195.496 37.3958 194.924 37.9808 194.179 38.3885C193.436 38.7962 192.548 39 191.514 39ZM190.057 37.1555H191.424C192.061 37.1555 192.596 37.0429 193.03 36.8175C193.468 36.5888 193.796 36.2358 194.015 35.7585C194.237 35.2779 194.348 34.6581 194.348 33.8991C194.348 33.1468 194.237 32.532 194.015 32.0547C193.796 31.5774 193.469 31.2261 193.035 31.0007C192.601 30.7753 192.066 30.6626 191.429 30.6626H190.057V37.1555ZM201.501 39.1491C200.728 39.1491 200.06 38.9851 199.497 38.657C198.937 38.3255 198.504 37.8648 198.199 37.2749C197.894 36.6816 197.742 35.9938 197.742 35.2116C197.742 34.4228 197.894 33.7334 198.199 33.1435C198.504 32.5502 198.937 32.0895 199.497 31.7614C200.06 31.4299 200.728 31.2642 201.501 31.2642C202.273 31.2642 202.939 31.4299 203.499 31.7614C204.063 32.0895 204.497 32.5502 204.802 33.1435C205.107 33.7334 205.259 34.4228 205.259 35.2116C205.259 35.9938 205.107 36.6816 204.802 37.2749C204.497 37.8648 204.063 38.3255 203.499 38.657C202.939 38.9851 202.273 39.1491 201.501 39.1491ZM201.51 37.5085C201.862 37.5085 202.155 37.4091 202.39 37.2102C202.626 37.008 202.803 36.733 202.922 36.3849C203.045 36.0369 203.106 35.6409 203.106 35.1967C203.106 34.7526 203.045 34.3565 202.922 34.0085C202.803 33.6605 202.626 33.3854 202.39 33.1832C202.155 32.9811 201.862 32.88 201.51 32.88C201.156 32.88 200.858 32.9811 200.616 33.1832C200.377 33.3854 200.196 33.6605 200.074 34.0085C199.954 34.3565 199.895 34.7526 199.895 35.1967C199.895 35.6409 199.954 36.0369 200.074 36.3849C200.196 36.733 200.377 37.008 200.616 37.2102C200.858 37.4091 201.156 37.5085 201.51 37.5085ZM213.938 31.3636V32.9545H209.339V31.3636H213.938ZM210.384 29.5341H212.501V36.6534C212.501 36.849 212.531 37.0014 212.591 37.1108C212.651 37.2169 212.733 37.2914 212.839 37.3345C212.949 37.3776 213.075 37.3991 213.217 37.3991C213.317 37.3991 213.416 37.3909 213.516 37.3743C213.615 37.3544 213.691 37.3395 213.744 37.3295L214.077 38.9055C213.971 38.9387 213.822 38.9768 213.63 39.0199C213.438 39.0663 213.204 39.0945 212.929 39.1044C212.419 39.1243 211.971 39.0563 211.587 38.9006C211.205 38.7448 210.909 38.5028 210.697 38.1747C210.485 37.8466 210.38 37.4323 210.384 36.9318V29.5341ZM217.6 34.5852V39H215.482V28.8182H217.54V32.7109H217.63C217.802 32.2602 218.08 31.9072 218.465 31.652C218.849 31.3935 219.332 31.2642 219.912 31.2642C220.442 31.2642 220.904 31.3802 221.299 31.6122C221.696 31.8409 222.005 32.1707 222.223 32.6016C222.445 33.0291 222.555 33.5412 222.551 34.1378V39H220.434V34.5156C220.437 34.045 220.318 33.6787 220.076 33.4169C219.837 33.1551 219.502 33.0241 219.071 33.0241C218.783 33.0241 218.528 33.0855 218.306 33.2081C218.087 33.3307 217.915 33.5097 217.789 33.745C217.666 33.977 217.603 34.2571 217.6 34.5852ZM227.698 39.1491C226.913 39.1491 226.237 38.9901 225.67 38.6719C225.106 38.3504 224.672 37.8963 224.367 37.3097C224.062 36.7197 223.91 36.022 223.91 35.2166C223.91 34.4311 224.062 33.7417 224.367 33.1484C224.672 32.5552 225.102 32.0928 225.655 31.7614C226.212 31.4299 226.865 31.2642 227.614 31.2642C228.118 31.2642 228.587 31.3454 229.021 31.5078C229.458 31.6669 229.839 31.9072 230.164 32.2287C230.492 32.5502 230.748 32.9545 230.93 33.4418C231.112 33.9257 231.203 34.4924 231.203 35.142V35.7237H224.755V34.4112H229.21C229.21 34.1063 229.143 33.8362 229.011 33.6009C228.878 33.3655 228.694 33.1816 228.459 33.049C228.227 32.9131 227.957 32.8452 227.649 32.8452C227.327 32.8452 227.042 32.9197 226.794 33.0689C226.548 33.2147 226.356 33.4119 226.217 33.6605C226.078 33.9058 226.006 34.1792 226.003 34.4808V35.7287C226.003 36.1065 226.073 36.433 226.212 36.7081C226.354 36.9832 226.555 37.1953 226.813 37.3445C227.072 37.4936 227.378 37.5682 227.733 37.5682C227.968 37.5682 228.184 37.535 228.379 37.4688C228.575 37.4025 228.742 37.303 228.882 37.1705C229.021 37.0379 229.127 36.8755 229.2 36.6832L231.159 36.8125C231.059 37.2831 230.855 37.6941 230.547 38.0455C230.242 38.3935 229.848 38.6652 229.364 38.8608C228.883 39.053 228.328 39.1491 227.698 39.1491ZM242.179 33.5412L240.24 33.6605C240.207 33.4948 240.136 33.3456 240.027 33.2131C239.917 33.0772 239.773 32.9695 239.594 32.8899C239.418 32.8071 239.208 32.7656 238.963 32.7656C238.635 32.7656 238.358 32.8352 238.132 32.9744C237.907 33.1103 237.794 33.2926 237.794 33.5213C237.794 33.7036 237.867 33.8577 238.013 33.9837C238.159 34.1096 238.409 34.2107 238.764 34.2869L240.146 34.5653C240.888 34.7178 241.442 34.9631 241.806 35.3011C242.171 35.6392 242.353 36.0833 242.353 36.6335C242.353 37.134 242.206 37.5732 241.911 37.951C241.619 38.3288 241.218 38.6238 240.708 38.8359C240.201 39.0447 239.616 39.1491 238.953 39.1491C237.942 39.1491 237.136 38.9387 236.537 38.5178C235.94 38.0935 235.59 37.5168 235.488 36.7876L237.571 36.6783C237.634 36.9865 237.786 37.2218 238.028 37.3842C238.27 37.5433 238.58 37.6229 238.958 37.6229C239.329 37.6229 239.627 37.5516 239.853 37.4091C240.081 37.2633 240.197 37.076 240.201 36.8473C240.197 36.6551 240.116 36.4976 239.957 36.375C239.798 36.2491 239.553 36.1529 239.221 36.0866L237.899 35.8232C237.153 35.674 236.598 35.4155 236.233 35.0476C235.872 34.6797 235.691 34.2107 235.691 33.6406C235.691 33.1501 235.824 32.7275 236.089 32.3729C236.358 32.0182 236.734 31.7448 237.218 31.5526C237.705 31.3603 238.275 31.2642 238.928 31.2642C239.892 31.2642 240.651 31.468 241.205 31.8757C241.762 32.2834 242.087 32.8385 242.179 33.5412ZM245.865 39.1442C245.377 39.1442 244.943 39.0597 244.562 38.8906C244.181 38.7183 243.879 38.4647 243.657 38.13C243.438 37.7919 243.329 37.371 243.329 36.8672C243.329 36.4429 243.407 36.0866 243.563 35.7983C243.718 35.5099 243.931 35.2779 244.199 35.1023C244.468 34.9266 244.772 34.794 245.114 34.7045C245.459 34.6151 245.82 34.5521 246.198 34.5156C246.642 34.4692 247 34.4261 247.271 34.3864C247.543 34.3433 247.74 34.2803 247.863 34.1974C247.986 34.1146 248.047 33.992 248.047 33.8295V33.7997C248.047 33.4848 247.948 33.2412 247.749 33.0689C247.553 32.8965 247.275 32.8104 246.914 32.8104C246.532 32.8104 246.229 32.8949 246.004 33.0639C245.778 33.2296 245.629 33.4384 245.556 33.6903L243.597 33.5312C243.697 33.0672 243.892 32.6662 244.184 32.3281C244.476 31.9867 244.852 31.7249 245.313 31.5426C245.777 31.357 246.314 31.2642 246.923 31.2642C247.348 31.2642 247.754 31.3139 248.142 31.4134C248.533 31.5128 248.879 31.6669 249.181 31.8757C249.485 32.0845 249.726 32.353 249.901 32.6811C250.077 33.0059 250.165 33.3954 250.165 33.8494V39H248.156V37.9411H248.097C247.974 38.1797 247.81 38.3902 247.605 38.5724C247.399 38.7514 247.152 38.8923 246.864 38.995C246.575 39.0945 246.242 39.1442 245.865 39.1442ZM246.471 37.6825C246.783 37.6825 247.058 37.6212 247.296 37.4986C247.535 37.3726 247.722 37.2036 247.858 36.9915C247.994 36.7794 248.062 36.5391 248.062 36.2706V35.4602C247.996 35.5033 247.905 35.5431 247.789 35.5795C247.676 35.6127 247.548 35.6442 247.406 35.674C247.263 35.7005 247.121 35.7254 246.978 35.7486C246.836 35.7685 246.706 35.7867 246.59 35.8033C246.342 35.8397 246.125 35.8977 245.939 35.9773C245.753 36.0568 245.609 36.1645 245.507 36.3004C245.404 36.433 245.352 36.5987 245.352 36.7976C245.352 37.0859 245.457 37.3063 245.666 37.4588C245.878 37.608 246.146 37.6825 246.471 37.6825ZM251.808 39V31.3636H253.827V32.7109H253.916C254.075 32.2635 254.34 31.9105 254.711 31.652C255.083 31.3935 255.527 31.2642 256.044 31.2642C256.568 31.2642 257.013 31.3951 257.381 31.657C257.749 31.9155 257.994 32.2668 258.117 32.7109H258.197C258.352 32.2734 258.634 31.9238 259.042 31.6619C259.453 31.3968 259.938 31.2642 260.498 31.2642C261.211 31.2642 261.789 31.4912 262.233 31.9453C262.681 32.3961 262.905 33.0357 262.905 33.8643V39H260.792V34.282C260.792 33.8577 260.679 33.5395 260.454 33.3274C260.228 33.1153 259.947 33.0092 259.608 33.0092C259.224 33.0092 258.924 33.1319 258.709 33.3771C258.493 33.6191 258.385 33.9389 258.385 34.3366V39H256.332V34.2372C256.332 33.8627 256.224 33.5644 256.009 33.3423C255.797 33.1203 255.517 33.0092 255.169 33.0092C254.934 33.0092 254.721 33.0689 254.532 33.1882C254.347 33.3042 254.199 33.4683 254.09 33.6804C253.981 33.8892 253.926 34.1345 253.926 34.4162V39H251.808ZM268.058 39.1491C267.272 39.1491 266.596 38.9901 266.029 38.6719C265.466 38.3504 265.032 37.8963 264.727 37.3097C264.422 36.7197 264.269 36.022 264.269 35.2166C264.269 34.4311 264.422 33.7417 264.727 33.1484C265.032 32.5552 265.461 32.0928 266.014 31.7614C266.571 31.4299 267.224 31.2642 267.973 31.2642C268.477 31.2642 268.946 31.3454 269.38 31.5078C269.818 31.6669 270.199 31.9072 270.524 32.2287C270.852 32.5502 271.107 32.9545 271.289 33.4418C271.472 33.9257 271.563 34.4924 271.563 35.142V35.7237H265.115V34.4112H269.569C269.569 34.1063 269.503 33.8362 269.37 33.6009C269.238 33.3655 269.054 33.1816 268.818 33.049C268.586 32.9131 268.316 32.8452 268.008 32.8452C267.686 32.8452 267.401 32.9197 267.153 33.0689C266.908 33.2147 266.715 33.4119 266.576 33.6605C266.437 33.9058 266.366 34.1792 266.362 34.4808V35.7287C266.362 36.1065 266.432 36.433 266.571 36.7081C266.714 36.9832 266.914 37.1953 267.173 37.3445C267.431 37.4936 267.738 37.5682 268.093 37.5682C268.328 37.5682 268.543 37.535 268.739 37.4688C268.934 37.4025 269.102 37.303 269.241 37.1705C269.38 37.0379 269.486 36.8755 269.559 36.6832L271.518 36.8125C271.419 37.2831 271.215 37.6941 270.906 38.0455C270.602 38.3935 270.207 38.6652 269.723 38.8608C269.243 39.053 268.687 39.1491 268.058 39.1491ZM280.292 31.3636V32.9545H275.578V31.3636H280.292ZM276.657 39V30.8118C276.657 30.2583 276.765 29.7992 276.98 29.4347C277.199 29.0701 277.498 28.7966 277.875 28.6143C278.253 28.4321 278.682 28.3409 279.163 28.3409C279.488 28.3409 279.784 28.3658 280.053 28.4155C280.325 28.4652 280.527 28.5099 280.659 28.5497L280.282 30.1406C280.199 30.1141 280.096 30.0893 279.973 30.0661C279.854 30.0429 279.731 30.0312 279.605 30.0312C279.294 30.0312 279.077 30.1042 278.954 30.25C278.832 30.3925 278.77 30.593 278.77 30.8516V39H276.657ZM284.762 39.1491C283.99 39.1491 283.322 38.9851 282.759 38.657C282.199 38.3255 281.766 37.8648 281.461 37.2749C281.156 36.6816 281.004 35.9938 281.004 35.2116C281.004 34.4228 281.156 33.7334 281.461 33.1435C281.766 32.5502 282.199 32.0895 282.759 31.7614C283.322 31.4299 283.99 31.2642 284.762 31.2642C285.535 31.2642 286.201 31.4299 286.761 31.7614C287.324 32.0895 287.758 32.5502 288.063 33.1435C288.368 33.7334 288.521 34.4228 288.521 35.2116C288.521 35.9938 288.368 36.6816 288.063 37.2749C287.758 37.8648 287.324 38.3255 286.761 38.657C286.201 38.9851 285.535 39.1491 284.762 39.1491ZM284.772 37.5085C285.124 37.5085 285.417 37.4091 285.652 37.2102C285.887 37.008 286.065 36.733 286.184 36.3849C286.307 36.0369 286.368 35.6409 286.368 35.1967C286.368 34.7526 286.307 34.3565 286.184 34.0085C286.065 33.6605 285.887 33.3854 285.652 33.1832C285.417 32.9811 285.124 32.88 284.772 32.88C284.418 32.88 284.119 32.9811 283.877 33.1832C283.639 33.3854 283.458 33.6605 283.335 34.0085C283.216 34.3565 283.156 34.7526 283.156 35.1967C283.156 35.6409 283.216 36.0369 283.335 36.3849C283.458 36.733 283.639 37.008 283.877 37.2102C284.119 37.4091 284.418 37.5085 284.772 37.5085ZM289.898 39V31.3636H291.951V32.696H292.031C292.17 32.2221 292.404 31.8641 292.732 31.6222C293.06 31.3769 293.438 31.2543 293.865 31.2543C293.971 31.2543 294.086 31.2609 294.208 31.2741C294.331 31.2874 294.439 31.3056 294.531 31.3288V33.2081C294.432 33.1783 294.294 33.1518 294.119 33.1286C293.943 33.1054 293.782 33.0938 293.637 33.0938C293.325 33.0938 293.047 33.1617 292.801 33.2976C292.559 33.4302 292.367 33.6158 292.225 33.8544C292.085 34.093 292.016 34.3681 292.016 34.6797V39H289.898ZM302.928 31.3636V32.9545H298.33V31.3636H302.928ZM299.374 29.5341H301.492V36.6534C301.492 36.849 301.521 37.0014 301.581 37.1108C301.641 37.2169 301.724 37.2914 301.83 37.3345C301.939 37.3776 302.065 37.3991 302.208 37.3991C302.307 37.3991 302.406 37.3909 302.506 37.3743C302.605 37.3544 302.682 37.3395 302.735 37.3295L303.068 38.9055C302.962 38.9387 302.812 38.9768 302.62 39.0199C302.428 39.0663 302.194 39.0945 301.919 39.1044C301.409 39.1243 300.961 39.0563 300.577 38.9006C300.196 38.7448 299.899 38.5028 299.687 38.1747C299.475 37.8466 299.37 37.4323 299.374 36.9318V29.5341ZM306.59 34.5852V39H304.472V28.8182H306.53V32.7109H306.62C306.792 32.2602 307.071 31.9072 307.455 31.652C307.84 31.3935 308.322 31.2642 308.902 31.2642C309.432 31.2642 309.894 31.3802 310.289 31.6122C310.687 31.8409 310.995 32.1707 311.214 32.6016C311.436 33.0291 311.545 33.5412 311.542 34.1378V39H309.424V34.5156C309.427 34.045 309.308 33.6787 309.066 33.4169C308.827 33.1551 308.492 33.0241 308.062 33.0241C307.773 33.0241 307.518 33.0855 307.296 33.2081C307.077 33.3307 306.905 33.5097 306.779 33.745C306.656 33.977 306.593 34.2571 306.59 34.5852ZM316.689 39.1491C315.903 39.1491 315.227 38.9901 314.66 38.6719C314.097 38.3504 313.663 37.8963 313.358 37.3097C313.053 36.7197 312.9 36.022 312.9 35.2166C312.9 34.4311 313.053 33.7417 313.358 33.1484C313.663 32.5552 314.092 32.0928 314.645 31.7614C315.202 31.4299 315.855 31.2642 316.604 31.2642C317.108 31.2642 317.577 31.3454 318.011 31.5078C318.449 31.6669 318.83 31.9072 319.154 32.2287C319.483 32.5502 319.738 32.9545 319.92 33.4418C320.102 33.9257 320.194 34.4924 320.194 35.142V35.7237H313.745V34.4112H318.2C318.2 34.1063 318.134 33.8362 318.001 33.6009C317.868 33.3655 317.685 33.1816 317.449 33.049C317.217 32.9131 316.947 32.8452 316.639 32.8452C316.317 32.8452 316.032 32.9197 315.784 33.0689C315.538 33.2147 315.346 33.4119 315.207 33.6605C315.068 33.9058 314.997 34.1792 314.993 34.4808V35.7287C314.993 36.1065 315.063 36.433 315.202 36.7081C315.345 36.9832 315.545 37.1953 315.804 37.3445C316.062 37.4936 316.369 37.5682 316.723 37.5682C316.959 37.5682 317.174 37.535 317.37 37.4688C317.565 37.4025 317.733 37.303 317.872 37.1705C318.011 37.0379 318.117 36.8755 318.19 36.6832L320.149 36.8125C320.049 37.2831 319.846 37.6941 319.537 38.0455C319.232 38.3935 318.838 38.6652 318.354 38.8608C317.873 39.053 317.318 39.1491 316.689 39.1491ZM331.935 31.3636L329.265 39H326.879L324.209 31.3636H326.447L328.032 36.8274H328.112L329.693 31.3636H331.935ZM334.991 39.1442C334.504 39.1442 334.07 39.0597 333.689 38.8906C333.308 38.7183 333.006 38.4647 332.784 38.13C332.565 37.7919 332.456 37.371 332.456 36.8672C332.456 36.4429 332.534 36.0866 332.69 35.7983C332.845 35.5099 333.058 35.2779 333.326 35.1023C333.594 34.9266 333.899 34.794 334.241 34.7045C334.585 34.6151 334.947 34.5521 335.325 34.5156C335.769 34.4692 336.127 34.4261 336.398 34.3864C336.67 34.3433 336.867 34.2803 336.99 34.1974C337.113 34.1146 337.174 33.992 337.174 33.8295V33.7997C337.174 33.4848 337.075 33.2412 336.876 33.0689C336.68 32.8965 336.402 32.8104 336.04 32.8104C335.659 32.8104 335.356 32.8949 335.131 33.0639C334.905 33.2296 334.756 33.4384 334.683 33.6903L332.724 33.5312C332.824 33.0672 333.019 32.6662 333.311 32.3281C333.603 31.9867 333.979 31.7249 334.44 31.5426C334.904 31.357 335.441 31.2642 336.05 31.2642C336.475 31.2642 336.881 31.3139 337.268 31.4134C337.66 31.5128 338.006 31.6669 338.308 31.8757C338.612 32.0845 338.853 32.353 339.028 32.6811C339.204 33.0059 339.292 33.3954 339.292 33.8494V39H337.283V37.9411H337.224C337.101 38.1797 336.937 38.3902 336.732 38.5724C336.526 38.7514 336.279 38.8923 335.991 38.995C335.702 39.0945 335.369 39.1442 334.991 39.1442ZM335.598 37.6825C335.91 37.6825 336.185 37.6212 336.423 37.4986C336.662 37.3726 336.849 37.2036 336.985 36.9915C337.121 36.7794 337.189 36.5391 337.189 36.2706V35.4602C337.123 35.5033 337.031 35.5431 336.915 35.5795C336.803 35.6127 336.675 35.6442 336.533 35.674C336.39 35.7005 336.248 35.7254 336.105 35.7486C335.963 35.7685 335.833 35.7867 335.717 35.8033C335.469 35.8397 335.252 35.8977 335.066 35.9773C334.88 36.0568 334.736 36.1645 334.634 36.3004C334.531 36.433 334.479 36.5987 334.479 36.7976C334.479 37.0859 334.584 37.3063 334.793 37.4588C335.005 37.608 335.273 37.6825 335.598 37.6825ZM343.053 28.8182V39H340.935V28.8182H343.053ZM349.646 35.7486V31.3636H351.764V39H349.731V37.6129H349.651C349.479 38.0604 349.192 38.42 348.791 38.6918C348.394 38.9635 347.908 39.0994 347.335 39.0994C346.824 39.0994 346.375 38.9834 345.987 38.7514C345.6 38.5194 345.296 38.1896 345.078 37.7621C344.862 37.3345 344.753 36.8224 344.749 36.2259V31.3636H346.867V35.848C346.871 36.2988 346.992 36.6551 347.23 36.9169C347.469 37.1787 347.789 37.3097 348.19 37.3097C348.445 37.3097 348.684 37.2517 348.906 37.1357C349.128 37.0163 349.307 36.8407 349.443 36.6087C349.582 36.3767 349.65 36.09 349.646 35.7486ZM356.939 39.1491C356.153 39.1491 355.477 38.9901 354.91 38.6719C354.347 38.3504 353.913 37.8963 353.608 37.3097C353.303 36.7197 353.15 36.022 353.15 35.2166C353.15 34.4311 353.303 33.7417 353.608 33.1484C353.913 32.5552 354.342 32.0928 354.895 31.7614C355.452 31.4299 356.105 31.2642 356.854 31.2642C357.358 31.2642 357.827 31.3454 358.261 31.5078C358.699 31.6669 359.08 31.9072 359.404 32.2287C359.733 32.5502 359.988 32.9545 360.17 33.4418C360.352 33.9257 360.444 34.4924 360.444 35.142V35.7237H353.995V34.4112H358.45C358.45 34.1063 358.384 33.8362 358.251 33.6009C358.118 33.3655 357.935 33.1816 357.699 33.049C357.467 32.9131 357.197 32.8452 356.889 32.8452C356.567 32.8452 356.282 32.9197 356.034 33.0689C355.788 33.2147 355.596 33.4119 355.457 33.6605C355.318 33.9058 355.247 34.1792 355.243 34.4808V35.7287C355.243 36.1065 355.313 36.433 355.452 36.7081C355.595 36.9832 355.795 37.1953 356.054 37.3445C356.312 37.4936 356.619 37.5682 356.973 37.5682C357.209 37.5682 357.424 37.535 357.62 37.4688C357.815 37.4025 357.983 37.303 358.122 37.1705C358.261 37.0379 358.367 36.8755 358.44 36.6832L360.399 36.8125C360.299 37.2831 360.096 37.6941 359.787 38.0455C359.482 38.3935 359.088 38.6652 358.604 38.8608C358.123 39.053 357.568 39.1491 356.939 39.1491ZM183.365 48.3636V49.9545H178.652V48.3636H183.365ZM179.731 56V47.8118C179.731 47.2583 179.838 46.7992 180.054 46.4347C180.272 46.0701 180.571 45.7966 180.949 45.6143C181.326 45.4321 181.756 45.3409 182.236 45.3409C182.561 45.3409 182.858 45.3658 183.126 45.4155C183.398 45.4652 183.6 45.5099 183.733 45.5497L183.355 47.1406C183.272 47.1141 183.169 47.0893 183.047 47.0661C182.927 47.0429 182.805 47.0312 182.679 47.0312C182.367 47.0312 182.15 47.1042 182.027 47.25C181.905 47.3925 181.843 47.593 181.843 47.8516V56H179.731ZM184.659 56V48.3636H186.777V56H184.659ZM185.723 47.3793C185.408 47.3793 185.138 47.2749 184.912 47.0661C184.69 46.8539 184.579 46.6004 184.579 46.3054C184.579 46.0137 184.69 45.7635 184.912 45.5547C185.138 45.3426 185.408 45.2365 185.723 45.2365C186.037 45.2365 186.306 45.3426 186.528 45.5547C186.753 45.7635 186.866 46.0137 186.866 46.3054C186.866 46.6004 186.753 46.8539 186.528 47.0661C186.306 47.2749 186.037 47.3793 185.723 47.3793ZM191.953 56.1491C191.168 56.1491 190.492 55.9901 189.925 55.6719C189.361 55.3504 188.927 54.8963 188.622 54.3097C188.317 53.7197 188.165 53.022 188.165 52.2166C188.165 51.4311 188.317 50.7417 188.622 50.1484C188.927 49.5552 189.356 49.0928 189.91 48.7614C190.467 48.4299 191.12 48.2642 191.869 48.2642C192.372 48.2642 192.841 48.3454 193.276 48.5078C193.713 48.6669 194.094 48.9072 194.419 49.2287C194.747 49.5502 195.002 49.9545 195.185 50.4418C195.367 50.9257 195.458 51.4924 195.458 52.142V52.7237H189.01V51.4112H193.465C193.465 51.1063 193.398 50.8362 193.266 50.6009C193.133 50.3655 192.949 50.1816 192.714 50.049C192.482 49.9131 192.212 49.8452 191.903 49.8452C191.582 49.8452 191.297 49.9197 191.048 50.0689C190.803 50.2147 190.611 50.4119 190.472 50.6605C190.332 50.9058 190.261 51.1792 190.258 51.4808V52.7287C190.258 53.1065 190.328 53.433 190.467 53.7081C190.609 53.9832 190.81 54.1953 191.068 54.3445C191.327 54.4936 191.633 54.5682 191.988 54.5682C192.223 54.5682 192.439 54.535 192.634 54.4688C192.83 54.4025 192.997 54.303 193.136 54.1705C193.276 54.0379 193.382 53.8755 193.455 53.6832L195.413 53.8125C195.314 54.2831 195.11 54.6941 194.802 55.0455C194.497 55.3935 194.103 55.6652 193.619 55.8608C193.138 56.053 192.583 56.1491 191.953 56.1491ZM198.958 45.8182V56H196.84V45.8182H198.958ZM203.469 56.1243C202.889 56.1243 202.363 55.9751 201.893 55.6768C201.425 55.3752 201.054 54.9328 200.779 54.3494C200.507 53.7628 200.371 53.0436 200.371 52.1918C200.371 51.3168 200.512 50.5893 200.794 50.0092C201.076 49.4259 201.45 48.9901 201.918 48.7017C202.388 48.41 202.904 48.2642 203.464 48.2642C203.891 48.2642 204.248 48.3371 204.533 48.483C204.821 48.6255 205.053 48.8045 205.229 49.0199C205.408 49.232 205.543 49.4408 205.636 49.6463H205.701V45.8182H207.814V56H205.726V54.777H205.636C205.537 54.9891 205.396 55.1996 205.214 55.4084C205.035 55.6139 204.801 55.7846 204.513 55.9205C204.228 56.0563 203.88 56.1243 203.469 56.1243ZM204.14 54.4389C204.481 54.4389 204.77 54.3461 205.005 54.1605C205.244 53.9716 205.426 53.7081 205.552 53.37C205.681 53.032 205.746 52.6359 205.746 52.1818C205.746 51.7277 205.683 51.3333 205.557 50.9986C205.431 50.6638 205.248 50.4053 205.01 50.223C204.771 50.0407 204.481 49.9496 204.14 49.9496C203.792 49.9496 203.498 50.044 203.26 50.233C203.021 50.4219 202.841 50.6837 202.718 51.0185C202.595 51.3532 202.534 51.741 202.534 52.1818C202.534 52.6259 202.595 53.0187 202.718 53.3601C202.844 53.6982 203.025 53.9633 203.26 54.1555C203.498 54.3445 203.792 54.4389 204.14 54.4389ZM214.973 56.1442C214.486 56.1442 214.052 56.0597 213.67 55.8906C213.289 55.7183 212.988 55.4647 212.766 55.13C212.547 54.7919 212.437 54.371 212.437 53.8672C212.437 53.4429 212.515 53.0866 212.671 52.7983C212.827 52.5099 213.039 52.2779 213.307 52.1023C213.576 51.9266 213.881 51.794 214.222 51.7045C214.567 51.6151 214.928 51.5521 215.306 51.5156C215.75 51.4692 216.108 51.4261 216.38 51.3864C216.652 51.3433 216.849 51.2803 216.972 51.1974C217.094 51.1146 217.155 50.992 217.155 50.8295V50.7997C217.155 50.4848 217.056 50.2412 216.857 50.0689C216.662 49.8965 216.383 49.8104 216.022 49.8104C215.641 49.8104 215.338 49.8949 215.112 50.0639C214.887 50.2296 214.738 50.4384 214.665 50.6903L212.706 50.5312C212.805 50.0672 213.001 49.6662 213.293 49.3281C213.584 48.9867 213.96 48.7249 214.421 48.5426C214.885 48.357 215.422 48.2642 216.032 48.2642C216.456 48.2642 216.862 48.3139 217.25 48.4134C217.641 48.5128 217.987 48.6669 218.289 48.8757C218.594 49.0845 218.834 49.353 219.01 49.6811C219.186 50.0059 219.273 50.3954 219.273 50.8494V56H217.265V54.9411H217.205C217.083 55.1797 216.918 55.3902 216.713 55.5724C216.507 55.7514 216.261 55.8923 215.972 55.995C215.684 56.0945 215.351 56.1442 214.973 56.1442ZM215.579 54.6825C215.891 54.6825 216.166 54.6212 216.405 54.4986C216.643 54.3726 216.831 54.2036 216.967 53.9915C217.102 53.7794 217.17 53.5391 217.17 53.2706V52.4602C217.104 52.5033 217.013 52.5431 216.897 52.5795C216.784 52.6127 216.657 52.6442 216.514 52.674C216.372 52.7005 216.229 52.7254 216.087 52.7486C215.944 52.7685 215.815 52.7867 215.699 52.8033C215.45 52.8397 215.233 52.8977 215.047 52.9773C214.862 53.0568 214.718 53.1645 214.615 53.3004C214.512 53.433 214.461 53.5987 214.461 53.7976C214.461 54.0859 214.565 54.3063 214.774 54.4588C214.986 54.608 215.255 54.6825 215.579 54.6825ZM223.034 51.5852V56H220.916V48.3636H222.935V49.7109H223.024C223.193 49.2668 223.477 48.9155 223.875 48.657C224.272 48.3951 224.755 48.2642 225.321 48.2642C225.852 48.2642 226.314 48.3802 226.708 48.6122C227.103 48.8442 227.409 49.1757 227.628 49.6065C227.847 50.0341 227.956 50.5445 227.956 51.1378V56H225.838V51.5156C225.842 51.0483 225.722 50.6837 225.48 50.4219C225.238 50.1567 224.905 50.0241 224.481 50.0241C224.196 50.0241 223.944 50.0855 223.725 50.2081C223.51 50.3307 223.341 50.5097 223.218 50.745C223.099 50.977 223.038 51.2571 223.034 51.5852ZM232.439 56.1243C231.859 56.1243 231.334 55.9751 230.863 55.6768C230.396 55.3752 230.025 54.9328 229.75 54.3494C229.478 53.7628 229.342 53.0436 229.342 52.1918C229.342 51.3168 229.483 50.5893 229.765 50.0092C230.046 49.4259 230.421 48.9901 230.888 48.7017C231.359 48.41 231.874 48.2642 232.434 48.2642C232.862 48.2642 233.218 48.3371 233.503 48.483C233.792 48.6255 234.024 48.8045 234.199 49.0199C234.378 49.232 234.514 49.4408 234.607 49.6463H234.672V45.8182H236.785V56H234.696V54.777H234.607C234.508 54.9891 234.367 55.1996 234.184 55.4084C234.005 55.6139 233.772 55.7846 233.483 55.9205C233.198 56.0563 232.85 56.1243 232.439 56.1243ZM233.111 54.4389C233.452 54.4389 233.74 54.3461 233.976 54.1605C234.214 53.9716 234.397 53.7081 234.522 53.37C234.652 53.032 234.716 52.6359 234.716 52.1818C234.716 51.7277 234.653 51.3333 234.527 50.9986C234.401 50.6638 234.219 50.4053 233.981 50.223C233.742 50.0407 233.452 49.9496 233.111 49.9496C232.763 49.9496 232.469 50.044 232.231 50.233C231.992 50.4219 231.811 50.6837 231.689 51.0185C231.566 51.3532 231.505 51.741 231.505 52.1818C231.505 52.6259 231.566 53.0187 231.689 53.3601C231.815 53.6982 231.995 53.9633 232.231 54.1555C232.469 54.3445 232.763 54.4389 233.111 54.4389ZM245.828 48.3636V49.9545H241.229V48.3636H245.828ZM242.273 46.5341H244.391V53.6534C244.391 53.849 244.421 54.0014 244.481 54.1108C244.54 54.2169 244.623 54.2914 244.729 54.3345C244.839 54.3776 244.964 54.3991 245.107 54.3991C245.206 54.3991 245.306 54.3909 245.405 54.3743C245.505 54.3544 245.581 54.3395 245.634 54.3295L245.967 55.9055C245.861 55.9387 245.712 55.9768 245.52 56.0199C245.327 56.0663 245.094 56.0945 244.819 56.1044C244.308 56.1243 243.861 56.0563 243.476 55.9006C243.095 55.7448 242.799 55.5028 242.586 55.1747C242.374 54.8466 242.27 54.4323 242.273 53.9318V46.5341ZM249.489 51.5852V56H247.372V45.8182H249.43V49.7109H249.519C249.692 49.2602 249.97 48.9072 250.354 48.652C250.739 48.3935 251.221 48.2642 251.801 48.2642C252.332 48.2642 252.794 48.3802 253.188 48.6122C253.586 48.8409 253.894 49.1707 254.113 49.6016C254.335 50.0291 254.444 50.5412 254.441 51.1378V56H252.323V51.5156C252.327 51.045 252.207 50.6787 251.965 50.4169C251.727 50.1551 251.392 50.0241 250.961 50.0241C250.673 50.0241 250.417 50.0855 250.195 50.2081C249.977 50.3307 249.804 50.5097 249.678 50.745C249.556 50.977 249.493 51.2571 249.489 51.5852ZM259.588 56.1491C258.802 56.1491 258.126 55.9901 257.56 55.6719C256.996 55.3504 256.562 54.8963 256.257 54.3097C255.952 53.7197 255.8 53.022 255.8 52.2166C255.8 51.4311 255.952 50.7417 256.257 50.1484C256.562 49.5552 256.991 49.0928 257.545 48.7614C258.101 48.4299 258.754 48.2642 259.503 48.2642C260.007 48.2642 260.476 48.3454 260.91 48.5078C261.348 48.6669 261.729 48.9072 262.054 49.2287C262.382 49.5502 262.637 49.9545 262.82 50.4418C263.002 50.9257 263.093 51.4924 263.093 52.142V52.7237H256.645V51.4112H261.099C261.099 51.1063 261.033 50.8362 260.9 50.6009C260.768 50.3655 260.584 50.1816 260.349 50.049C260.117 49.9131 259.847 49.8452 259.538 49.8452C259.217 49.8452 258.932 49.9197 258.683 50.0689C258.438 50.2147 258.246 50.4119 258.106 50.6605C257.967 50.9058 257.896 51.1792 257.893 51.4808V52.7287C257.893 53.1065 257.962 53.433 258.101 53.7081C258.244 53.9832 258.445 54.1953 258.703 54.3445C258.962 54.4936 259.268 54.5682 259.623 54.5682C259.858 54.5682 260.074 54.535 260.269 54.4688C260.465 54.4025 260.632 54.303 260.771 54.1705C260.91 54.0379 261.016 53.8755 261.089 53.6832L263.048 53.8125C262.949 54.2831 262.745 54.6941 262.437 55.0455C262.132 55.3935 261.737 55.6652 261.253 55.8608C260.773 56.053 260.218 56.1491 259.588 56.1491ZM266.593 51.5852V56H264.475V48.3636H266.494V49.7109H266.583C266.752 49.2668 267.035 48.9155 267.433 48.657C267.831 48.3951 268.313 48.2642 268.88 48.2642C269.41 48.2642 269.873 48.3802 270.267 48.6122C270.661 48.8442 270.968 49.1757 271.187 49.6065C271.405 50.0341 271.515 50.5445 271.515 51.1378V56H269.397V51.5156C269.4 51.0483 269.281 50.6837 269.039 50.4219C268.797 50.1567 268.464 50.0241 268.04 50.0241C267.755 50.0241 267.503 50.0855 267.284 50.2081C267.069 50.3307 266.9 50.5097 266.777 50.745C266.658 50.977 266.596 51.2571 266.593 51.5852ZM278.542 51.5852V56H276.424V45.8182H278.483V49.7109H278.572C278.744 49.2602 279.023 48.9072 279.407 48.652C279.792 48.3935 280.274 48.2642 280.854 48.2642C281.384 48.2642 281.847 48.3802 282.241 48.6122C282.639 48.8409 282.947 49.1707 283.166 49.6016C283.388 50.0291 283.497 50.5412 283.494 51.1378V56H281.376V51.5156C281.379 51.045 281.26 50.6787 281.018 50.4169C280.779 50.1551 280.445 50.0241 280.014 50.0241C279.725 50.0241 279.47 50.0855 279.248 50.2081C279.029 50.3307 278.857 50.5097 278.731 50.745C278.608 50.977 278.545 51.2571 278.542 51.5852ZM285.161 56V48.3636H287.278V56H285.161ZM286.225 47.3793C285.91 47.3793 285.64 47.2749 285.414 47.0661C285.192 46.8539 285.081 46.6004 285.081 46.3054C285.081 46.0137 285.192 45.7635 285.414 45.5547C285.64 45.3426 285.91 45.2365 286.225 45.2365C286.539 45.2365 286.808 45.3426 287.03 45.5547C287.255 45.7635 287.368 46.0137 287.368 46.3054C287.368 46.6004 287.255 46.8539 287.03 47.0661C286.808 47.2749 286.539 47.3793 286.225 47.3793ZM293.037 48.3636V49.9545H288.438V48.3636H293.037ZM289.482 46.5341H291.6V53.6534C291.6 53.849 291.63 54.0014 291.69 54.1108C291.749 54.2169 291.832 54.2914 291.938 54.3345C292.047 54.3776 292.173 54.3991 292.316 54.3991C292.415 54.3991 292.515 54.3909 292.614 54.3743C292.714 54.3544 292.79 54.3395 292.843 54.3295L293.176 55.9055C293.07 55.9387 292.921 55.9768 292.729 56.0199C292.536 56.0663 292.303 56.0945 292.028 56.1044C291.517 56.1243 291.07 56.0563 290.685 55.9006C290.304 55.7448 290.007 55.5028 289.795 55.1747C289.583 54.8466 289.479 54.4323 289.482 53.9318V46.5341ZM299.451 56H297.145L300.66 45.8182H303.434L306.944 56H304.637L302.086 48.1449H302.007L299.451 56ZM299.307 51.9979H304.756V53.6783H299.307V51.9979ZM314.305 50.5412L312.366 50.6605C312.333 50.4948 312.262 50.3456 312.153 50.2131C312.043 50.0772 311.899 49.9695 311.72 49.8899C311.544 49.8071 311.334 49.7656 311.089 49.7656C310.761 49.7656 310.484 49.8352 310.258 49.9744C310.033 50.1103 309.92 50.2926 309.92 50.5213C309.92 50.7036 309.993 50.8577 310.139 50.9837C310.285 51.1096 310.535 51.2107 310.89 51.2869L312.272 51.5653C313.014 51.7178 313.568 51.9631 313.932 52.3011C314.297 52.6392 314.479 53.0833 314.479 53.6335C314.479 54.134 314.332 54.5732 314.037 54.951C313.745 55.3288 313.344 55.6238 312.834 55.8359C312.327 56.0447 311.742 56.1491 311.079 56.1491C310.068 56.1491 309.262 55.9387 308.663 55.5178C308.066 55.0935 307.716 54.5168 307.614 53.7876L309.697 53.6783C309.76 53.9865 309.912 54.2218 310.154 54.3842C310.396 54.5433 310.706 54.6229 311.084 54.6229C311.455 54.6229 311.753 54.5516 311.979 54.4091C312.207 54.2633 312.323 54.076 312.327 53.8473C312.323 53.6551 312.242 53.4976 312.083 53.375C311.924 53.2491 311.679 53.1529 311.347 53.0866L310.025 52.8232C309.279 52.674 308.724 52.4155 308.359 52.0476C307.998 51.6797 307.817 51.2107 307.817 50.6406C307.817 50.1501 307.95 49.7275 308.215 49.3729C308.484 49.0182 308.86 48.7448 309.344 48.5526C309.831 48.3603 310.401 48.2642 311.054 48.2642C312.018 48.2642 312.777 48.468 313.331 48.8757C313.888 49.2834 314.213 49.8385 314.305 50.5412ZM322.167 50.5412L320.228 50.6605C320.195 50.4948 320.123 50.3456 320.014 50.2131C319.905 50.0772 319.76 49.9695 319.581 49.8899C319.406 49.8071 319.195 49.7656 318.95 49.7656C318.622 49.7656 318.345 49.8352 318.12 49.9744C317.894 50.1103 317.782 50.2926 317.782 50.5213C317.782 50.7036 317.855 50.8577 318 50.9837C318.146 51.1096 318.397 51.2107 318.751 51.2869L320.133 51.5653C320.876 51.7178 321.429 51.9631 321.794 52.3011C322.158 52.6392 322.341 53.0833 322.341 53.6335C322.341 54.134 322.193 54.5732 321.898 54.951C321.607 55.3288 321.205 55.6238 320.695 55.8359C320.188 56.0447 319.603 56.1491 318.94 56.1491C317.929 56.1491 317.124 55.9387 316.524 55.5178C315.927 55.0935 315.578 54.5168 315.475 53.7876L317.558 53.6783C317.621 53.9865 317.773 54.2218 318.015 54.3842C318.257 54.5433 318.567 54.6229 318.945 54.6229C319.316 54.6229 319.615 54.5516 319.84 54.4091C320.069 54.2633 320.185 54.076 320.188 53.8473C320.185 53.6551 320.103 53.4976 319.944 53.375C319.785 53.2491 319.54 53.1529 319.209 53.0866L317.886 52.8232C317.14 52.674 316.585 52.4155 316.221 52.0476C315.859 51.6797 315.679 51.2107 315.679 50.6406C315.679 50.1501 315.811 49.7275 316.076 49.3729C316.345 49.0182 316.721 48.7448 317.205 48.5526C317.692 48.3603 318.262 48.2642 318.915 48.2642C319.88 48.2642 320.639 48.468 321.192 48.8757C321.749 49.2834 322.074 49.8385 322.167 50.5412ZM327.154 56.1491C326.369 56.1491 325.693 55.9901 325.126 55.6719C324.563 55.3504 324.128 54.8963 323.823 54.3097C323.518 53.7197 323.366 53.022 323.366 52.2166C323.366 51.4311 323.518 50.7417 323.823 50.1484C324.128 49.5552 324.558 49.0928 325.111 48.7614C325.668 48.4299 326.321 48.2642 327.07 48.2642C327.574 48.2642 328.043 48.3454 328.477 48.5078C328.914 48.6669 329.295 48.9072 329.62 49.2287C329.948 49.5502 330.204 49.9545 330.386 50.4418C330.568 50.9257 330.659 51.4924 330.659 52.142V52.7237H324.211V51.4112H328.666C328.666 51.1063 328.599 50.8362 328.467 50.6009C328.334 50.3655 328.15 50.1816 327.915 50.049C327.683 49.9131 327.413 49.8452 327.105 49.8452C326.783 49.8452 326.498 49.9197 326.25 50.0689C326.004 50.2147 325.812 50.4119 325.673 50.6605C325.534 50.9058 325.462 51.1792 325.459 51.4808V52.7287C325.459 53.1065 325.529 53.433 325.668 53.7081C325.81 53.9832 326.011 54.1953 326.269 54.3445C326.528 54.4936 326.835 54.5682 327.189 54.5682C327.425 54.5682 327.64 54.535 327.835 54.4688C328.031 54.4025 328.198 54.303 328.338 54.1705C328.477 54.0379 328.583 53.8755 328.656 53.6832L330.615 53.8125C330.515 54.2831 330.311 54.6941 330.003 55.0455C329.698 55.3935 329.304 55.6652 328.82 55.8608C328.339 56.053 327.784 56.1491 327.154 56.1491ZM332.041 56V48.3636H334.06V49.7109H334.149C334.309 49.2635 334.574 48.9105 334.945 48.652C335.316 48.3935 335.76 48.2642 336.277 48.2642C336.801 48.2642 337.247 48.3951 337.615 48.657C337.983 48.9155 338.228 49.2668 338.35 49.7109H338.43C338.586 49.2734 338.867 48.9238 339.275 48.6619C339.686 48.3968 340.172 48.2642 340.732 48.2642C341.444 48.2642 342.023 48.4912 342.467 48.9453C342.914 49.3961 343.138 50.0357 343.138 50.8643V56H341.025V51.282C341.025 50.8577 340.912 50.5395 340.687 50.3274C340.462 50.1153 340.18 50.0092 339.842 50.0092C339.457 50.0092 339.157 50.1319 338.942 50.3771C338.727 50.6191 338.619 50.9389 338.619 51.3366V56H336.566V51.2372C336.566 50.8627 336.458 50.5644 336.242 50.3423C336.03 50.1203 335.75 50.0092 335.402 50.0092C335.167 50.0092 334.955 50.0689 334.766 50.1882C334.58 50.3042 334.433 50.4683 334.323 50.6804C334.214 50.8892 334.159 51.1345 334.159 51.4162V56H332.041ZM344.851 56V45.8182H346.969V49.6463H347.033C347.126 49.4408 347.26 49.232 347.436 49.0199C347.615 48.8045 347.847 48.6255 348.132 48.483C348.42 48.3371 348.778 48.2642 349.206 48.2642C349.763 48.2642 350.276 48.41 350.747 48.7017C351.218 48.9901 351.594 49.4259 351.876 50.0092C352.157 50.5893 352.298 51.3168 352.298 52.1918C352.298 53.0436 352.161 53.7628 351.886 54.3494C351.614 54.9328 351.243 55.3752 350.772 55.6768C350.305 55.9751 349.781 56.1243 349.201 56.1243C348.79 56.1243 348.44 56.0563 348.152 55.9205C347.867 55.7846 347.633 55.6139 347.451 55.4084C347.269 55.1996 347.129 54.9891 347.033 54.777H346.939V56H344.851ZM346.924 52.1818C346.924 52.6359 346.987 53.032 347.113 53.37C347.239 53.7081 347.421 53.9716 347.66 54.1605C347.898 54.3461 348.188 54.4389 348.53 54.4389C348.874 54.4389 349.166 54.3445 349.405 54.1555C349.643 53.9633 349.824 53.6982 349.947 53.3601C350.073 53.0187 350.136 52.6259 350.136 52.1818C350.136 51.741 350.074 51.3532 349.952 51.0185C349.829 50.6837 349.648 50.4219 349.41 50.233C349.171 50.044 348.878 49.9496 348.53 49.9496C348.185 49.9496 347.893 50.0407 347.655 50.223C347.419 50.4053 347.239 50.6638 347.113 50.9986C346.987 51.3333 346.924 51.7277 346.924 52.1818ZM355.829 45.8182V56H353.711V45.8182H355.829ZM361.006 56.1491C360.22 56.1491 359.544 55.9901 358.978 55.6719C358.414 55.3504 357.98 54.8963 357.675 54.3097C357.37 53.7197 357.218 53.022 357.218 52.2166C357.218 51.4311 357.37 50.7417 357.675 50.1484C357.98 49.5552 358.409 49.0928 358.963 48.7614C359.519 48.4299 360.172 48.2642 360.921 48.2642C361.425 48.2642 361.894 48.3454 362.328 48.5078C362.766 48.6669 363.147 48.9072 363.472 49.2287C363.8 49.5502 364.055 49.9545 364.237 50.4418C364.42 50.9257 364.511 51.4924 364.511 52.142V52.7237H358.063V51.4112H362.517C362.517 51.1063 362.451 50.8362 362.318 50.6009C362.186 50.3655 362.002 50.1816 361.767 50.049C361.535 49.9131 361.264 49.8452 360.956 49.8452C360.635 49.8452 360.35 49.9197 360.101 50.0689C359.856 50.2147 359.664 50.4119 359.524 50.6605C359.385 50.9058 359.314 51.1792 359.311 51.4808V52.7287C359.311 53.1065 359.38 53.433 359.519 53.7081C359.662 53.9832 359.862 54.1953 360.121 54.3445C360.38 54.4936 360.686 54.5682 361.041 54.5682C361.276 54.5682 361.492 54.535 361.687 54.4688C361.883 54.4025 362.05 54.303 362.189 54.1705C362.328 54.0379 362.434 53.8755 362.507 53.6832L364.466 53.8125C364.367 54.2831 364.163 54.6941 363.855 55.0455C363.55 55.3935 363.155 55.6652 362.671 55.8608C362.191 56.053 361.636 56.1491 361.006 56.1491ZM368.424 45.8182L368.23 52.9474H366.41L366.211 45.8182H368.424ZM367.32 56.1293C366.992 56.1293 366.71 56.0133 366.475 55.7812C366.239 55.5459 366.123 55.2642 366.127 54.9361C366.123 54.6113 366.239 54.3329 366.475 54.1009C366.71 53.8688 366.992 53.7528 367.32 53.7528C367.635 53.7528 367.911 53.8688 368.15 54.1009C368.389 54.3329 368.51 54.6113 368.513 54.9361C368.51 55.1548 368.452 55.3554 368.339 55.5376C368.23 55.7166 368.085 55.8608 367.907 55.9702C367.728 56.0762 367.532 56.1293 367.32 56.1293Z" fill="black"/>
</svg>
