<svg width="334" height="98" viewBox="0 0 334 98" fill="none" xmlns="http://www.w3.org/2000/svg">
<path d="M0 9.99999C0 4.47714 4.47715 0 10 0H139.922C145.445 0 149.922 4.47715 149.922 10V87.4862C149.922 93.0091 145.445 97.4862 139.922 97.4862H10C4.47716 97.4862 0 93.0091 0 87.4862V9.99999Z" fill="#A839FF"/>
<circle cx="63.7546" cy="34.7546" r="7.75459" fill="black"/>
<circle cx="113.975" cy="34.7546" r="7.75459" fill="black"/>
<path d="M88.9761 70.0195C96.9601 70.0195 96.9887 58.7569 96.9887 58.7569H81.1102C81.1102 58.7569 80.9921 70.0195 88.9761 70.0195Z" fill="white"/>
<path d="M175.939 11.9637C177.622 7.75787 181.695 5 186.225 5H322.739C328.857 5 333.817 9.95978 333.817 16.078V38.2339C333.817 44.3521 328.857 49.3119 322.739 49.3119H177.363C169.525 49.3119 164.166 41.3964 167.077 34.1197L175.939 11.9637Z" fill="#D9D9D9"/>
<path d="M198.733 25.0513C198.011 25.0485 197.39 24.8708 196.87 24.5183C196.352 24.1659 195.953 23.6553 195.674 22.9867C195.397 22.3181 195.26 21.5139 195.263 20.5739C195.263 19.6368 195.401 18.8381 195.678 18.1779C195.958 17.5177 196.356 17.0155 196.874 16.6714C197.394 16.3245 198.014 16.1511 198.733 16.1511C199.452 16.1511 200.07 16.3245 200.587 16.6714C201.108 17.0183 201.508 17.5219 201.788 18.1821C202.067 18.8395 202.206 19.6368 202.203 20.5739C202.203 21.5167 202.063 22.3223 201.783 22.9909C201.506 23.6595 201.109 24.1701 200.592 24.5225C200.074 24.875 199.455 25.0513 198.733 25.0513ZM198.733 23.5448C199.225 23.5448 199.618 23.2972 199.912 22.8021C200.206 22.3069 200.351 21.5642 200.348 20.5739C200.348 19.9221 200.281 19.3794 200.147 18.9458C200.015 18.5122 199.828 18.1863 199.585 17.9681C199.344 17.7499 199.06 17.6408 198.733 17.6408C198.243 17.6408 197.852 17.8855 197.558 18.3751C197.264 18.8647 197.116 19.5976 197.113 20.5739C197.113 21.2341 197.179 21.7852 197.31 22.2272C197.445 22.6664 197.633 22.9965 197.877 23.2175C198.12 23.4357 198.405 23.5448 198.733 23.5448ZM207.237 16.2686V24.8624H205.42V17.9932H205.37L203.402 19.2269V17.6156L205.53 16.2686H207.237ZM212.649 25.0513C211.928 25.0485 211.307 24.8708 210.786 24.5183C210.269 24.1659 209.87 23.6553 209.59 22.9867C209.314 22.3181 209.176 21.5139 209.179 20.5739C209.179 19.6368 209.318 18.8381 209.595 18.1779C209.874 17.5177 210.273 17.0155 210.791 16.6714C211.311 16.3245 211.931 16.1511 212.649 16.1511C213.368 16.1511 213.987 16.3245 214.504 16.6714C215.025 17.0183 215.425 17.5219 215.704 18.1821C215.984 18.8395 216.123 19.6368 216.12 20.5739C216.12 21.5167 215.98 22.3223 215.7 22.9909C215.423 23.6595 215.026 24.1701 214.508 24.5225C213.991 24.875 213.371 25.0513 212.649 25.0513ZM212.649 23.5448C213.142 23.5448 213.535 23.2972 213.829 22.8021C214.122 22.3069 214.268 21.5642 214.265 20.5739C214.265 19.9221 214.198 19.3794 214.064 18.9458C213.932 18.5122 213.745 18.1863 213.501 17.9681C213.261 17.7499 212.977 17.6408 212.649 17.6408C212.16 17.6408 211.768 17.8855 211.475 18.3751C211.181 18.8647 211.033 19.5976 211.03 20.5739C211.03 21.2341 211.095 21.7852 211.227 22.2272C211.361 22.6664 211.55 22.9965 211.793 23.2175C212.037 23.4357 212.322 23.5448 212.649 23.5448ZM220.785 25.0513C220.063 25.0485 219.442 24.8708 218.922 24.5183C218.404 24.1659 218.006 23.6553 217.726 22.9867C217.449 22.3181 217.312 21.5139 217.315 20.5739C217.315 19.6368 217.453 18.8381 217.73 18.1779C218.01 17.5177 218.408 17.0155 218.926 16.6714C219.446 16.3245 220.066 16.1511 220.785 16.1511C221.504 16.1511 222.122 16.3245 222.64 16.6714C223.16 17.0183 223.56 17.5219 223.84 18.1821C224.119 18.8395 224.258 19.6368 224.255 20.5739C224.255 21.5167 224.115 22.3223 223.836 22.9909C223.559 23.6595 223.161 24.1701 222.644 24.5225C222.126 24.875 221.507 25.0513 220.785 25.0513ZM220.785 23.5448C221.277 23.5448 221.67 23.2972 221.964 22.8021C222.258 22.3069 222.403 21.5642 222.4 20.5739C222.4 19.9221 222.333 19.3794 222.199 18.9458C222.068 18.5122 221.88 18.1863 221.637 17.9681C221.396 17.7499 221.112 17.6408 220.785 17.6408C220.295 17.6408 219.904 17.8855 219.61 18.3751C219.316 18.8647 219.168 19.5976 219.165 20.5739C219.165 21.2341 219.231 21.7852 219.362 22.2272C219.497 22.6664 219.685 22.9965 219.929 23.2175C220.172 23.4357 220.458 23.5448 220.785 23.5448ZM229.29 16.2686V24.8624H227.473V17.9932H227.422L225.454 19.2269V17.6156L227.582 16.2686H229.29ZM234.702 25.0513C233.98 25.0485 233.359 24.8708 232.838 24.5183C232.321 24.1659 231.922 23.6553 231.643 22.9867C231.366 22.3181 231.229 21.5139 231.231 20.5739C231.231 19.6368 231.37 18.8381 231.647 18.1779C231.927 17.5177 232.325 17.0155 232.843 16.6714C233.363 16.3245 233.983 16.1511 234.702 16.1511C235.421 16.1511 236.039 16.3245 236.556 16.6714C237.077 17.0183 237.477 17.5219 237.756 18.1821C238.036 18.8395 238.175 19.6368 238.172 20.5739C238.172 21.5167 238.032 22.3223 237.752 22.9909C237.475 23.6595 237.078 24.1701 236.561 24.5225C236.043 24.875 235.423 25.0513 234.702 25.0513ZM234.702 23.5448C235.194 23.5448 235.587 23.2972 235.881 22.8021C236.174 22.3069 236.32 21.5642 236.317 20.5739C236.317 19.9221 236.25 19.3794 236.116 18.9458C235.984 18.5122 235.797 18.1863 235.553 17.9681C235.313 17.7499 235.029 17.6408 234.702 17.6408C234.212 17.6408 233.82 17.8855 233.527 18.3751C233.233 18.8647 233.085 19.5976 233.082 20.5739C233.082 21.2341 233.148 21.7852 233.279 22.2272C233.413 22.6664 233.602 22.9965 233.846 23.2175C234.089 23.4357 234.374 23.5448 234.702 23.5448ZM242.837 25.0513C242.115 25.0485 241.494 24.8708 240.974 24.5183C240.456 24.1659 240.058 23.6553 239.778 22.9867C239.501 22.3181 239.364 21.5139 239.367 20.5739C239.367 19.6368 239.505 18.8381 239.782 18.1779C240.062 17.5177 240.461 17.0155 240.978 16.6714C241.498 16.3245 242.118 16.1511 242.837 16.1511C243.556 16.1511 244.174 16.3245 244.692 16.6714C245.212 17.0183 245.612 17.5219 245.892 18.1821C246.172 18.8395 246.31 19.6368 246.307 20.5739C246.307 21.5167 246.167 22.3223 245.888 22.9909C245.611 23.6595 245.213 24.1701 244.696 24.5225C244.178 24.875 243.559 25.0513 242.837 25.0513ZM242.837 23.5448C243.329 23.5448 243.722 23.2972 244.016 22.8021C244.31 22.3069 244.455 21.5642 244.453 20.5739C244.453 19.9221 244.385 19.3794 244.251 18.9458C244.12 18.5122 243.932 18.1863 243.689 17.9681C243.448 17.7499 243.164 17.6408 242.837 17.6408C242.347 17.6408 241.956 17.8855 241.662 18.3751C241.368 18.8647 241.22 19.5976 241.217 20.5739C241.217 21.2341 241.283 21.7852 241.414 22.2272C241.549 22.6664 241.738 22.9965 241.981 23.2175C242.224 23.4357 242.51 23.5448 242.837 23.5448ZM250.972 25.0513C250.251 25.0485 249.63 24.8708 249.109 24.5183C248.592 24.1659 248.193 23.6553 247.913 22.9867C247.636 22.3181 247.499 21.5139 247.502 20.5739C247.502 19.6368 247.641 18.8381 247.918 18.1779C248.197 17.5177 248.596 17.0155 249.113 16.6714C249.634 16.3245 250.253 16.1511 250.972 16.1511C251.691 16.1511 252.31 16.3245 252.827 16.6714C253.347 17.0183 253.747 17.5219 254.027 18.1821C254.307 18.8395 254.445 19.6368 254.443 20.5739C254.443 21.5167 254.303 22.3223 254.023 22.9909C253.746 23.6595 253.349 24.1701 252.831 24.5225C252.314 24.875 251.694 25.0513 250.972 25.0513ZM250.972 23.5448C251.465 23.5448 251.858 23.2972 252.152 22.8021C252.445 22.3069 252.591 21.5642 252.588 20.5739C252.588 19.9221 252.521 19.3794 252.387 18.9458C252.255 18.5122 252.068 18.1863 251.824 17.9681C251.584 17.7499 251.3 17.6408 250.972 17.6408C250.483 17.6408 250.091 17.8855 249.797 18.3751C249.504 18.8647 249.355 19.5976 249.353 20.5739C249.353 21.2341 249.418 21.7852 249.55 22.2272C249.684 22.6664 249.873 22.9965 250.116 23.2175C250.36 23.4357 250.645 23.5448 250.972 23.5448ZM261.843 25.0513C261.121 25.0485 260.5 24.8708 259.98 24.5183C259.462 24.1659 259.063 23.6553 258.784 22.9867C258.507 22.3181 258.37 21.5139 258.372 20.5739C258.372 19.6368 258.511 18.8381 258.788 18.1779C259.068 17.5177 259.466 17.0155 259.984 16.6714C260.504 16.3245 261.124 16.1511 261.843 16.1511C262.562 16.1511 263.18 16.3245 263.697 16.6714C264.218 17.0183 264.618 17.5219 264.897 18.1821C265.177 18.8395 265.316 19.6368 265.313 20.5739C265.313 21.5167 265.173 22.3223 264.893 22.9909C264.616 23.6595 264.219 24.1701 263.702 24.5225C263.184 24.875 262.564 25.0513 261.843 25.0513ZM261.843 23.5448C262.335 23.5448 262.728 23.2972 263.022 22.8021C263.316 22.3069 263.461 21.5642 263.458 20.5739C263.458 19.9221 263.391 19.3794 263.257 18.9458C263.125 18.5122 262.938 18.1863 262.694 17.9681C262.454 17.7499 262.17 17.6408 261.843 17.6408C261.353 17.6408 260.961 17.8855 260.668 18.3751C260.374 18.8647 260.226 19.5976 260.223 20.5739C260.223 21.2341 260.289 21.7852 260.42 22.2272C260.554 22.6664 260.743 22.9965 260.987 23.2175C261.23 23.4357 261.515 23.5448 261.843 23.5448ZM270.347 16.2686V24.8624H268.53V17.9932H268.48L266.512 19.2269V17.6156L268.639 16.2686H270.347ZM276.129 16.2686V24.8624H274.312V17.9932H274.261L272.293 19.2269V17.6156L274.421 16.2686H276.129ZM281.541 25.0513C280.819 25.0485 280.198 24.8708 279.678 24.5183C279.16 24.1659 278.761 23.6553 278.482 22.9867C278.205 22.3181 278.068 21.5139 278.07 20.5739C278.07 19.6368 278.209 18.8381 278.486 18.1779C278.766 17.5177 279.164 17.0155 279.682 16.6714C280.202 16.3245 280.822 16.1511 281.541 16.1511C282.26 16.1511 282.878 16.3245 283.395 16.6714C283.916 17.0183 284.316 17.5219 284.596 18.1821C284.875 18.8395 285.014 19.6368 285.011 20.5739C285.011 21.5167 284.871 22.3223 284.591 22.9909C284.314 23.6595 283.917 24.1701 283.4 24.5225C282.882 24.875 282.262 25.0513 281.541 25.0513ZM281.541 23.5448C282.033 23.5448 282.426 23.2972 282.72 22.8021C283.014 22.3069 283.159 21.5642 283.156 20.5739C283.156 19.9221 283.089 19.3794 282.955 18.9458C282.823 18.5122 282.636 18.1863 282.393 17.9681C282.152 17.7499 281.868 17.6408 281.541 17.6408C281.051 17.6408 280.659 17.8855 280.366 18.3751C280.072 18.8647 279.924 19.5976 279.921 20.5739C279.921 21.2341 279.987 21.7852 280.118 22.2272C280.252 22.6664 280.441 22.9965 280.685 23.2175C280.928 23.4357 281.213 23.5448 281.541 23.5448ZM290.045 16.2686V24.8624H288.228V17.9932H288.178L286.21 19.2269V17.6156L288.338 16.2686H290.045ZM295.457 25.0513C294.736 25.0485 294.115 24.8708 293.594 24.5183C293.077 24.1659 292.678 23.6553 292.398 22.9867C292.121 22.3181 291.984 21.5139 291.987 20.5739C291.987 19.6368 292.126 18.8381 292.403 18.1779C292.682 17.5177 293.081 17.0155 293.598 16.6714C294.119 16.3245 294.738 16.1511 295.457 16.1511C296.176 16.1511 296.795 16.3245 297.312 16.6714C297.832 17.0183 298.232 17.5219 298.512 18.1821C298.792 18.8395 298.93 19.6368 298.928 20.5739C298.928 21.5167 298.788 22.3223 298.508 22.9909C298.231 23.6595 297.834 24.1701 297.316 24.5225C296.799 24.875 296.179 25.0513 295.457 25.0513ZM295.457 23.5448C295.95 23.5448 296.343 23.2972 296.637 22.8021C296.93 22.3069 297.076 21.5642 297.073 20.5739C297.073 19.9221 297.006 19.3794 296.872 18.9458C296.74 18.5122 296.553 18.1863 296.309 17.9681C296.069 17.7499 295.785 17.6408 295.457 17.6408C294.968 17.6408 294.576 17.8855 294.282 18.3751C293.989 18.8647 293.84 19.5976 293.838 20.5739C293.838 21.2341 293.903 21.7852 294.035 22.2272C294.169 22.6664 294.358 22.9965 294.601 23.2175C294.845 23.4357 295.13 23.5448 295.457 23.5448ZM303.593 25.0513C302.871 25.0485 302.25 24.8708 301.73 24.5183C301.212 24.1659 300.814 23.6553 300.534 22.9867C300.257 22.3181 300.12 21.5139 300.123 20.5739C300.123 19.6368 300.261 18.8381 300.538 18.1779C300.818 17.5177 301.216 17.0155 301.734 16.6714C302.254 16.3245 302.874 16.1511 303.593 16.1511C304.312 16.1511 304.93 16.3245 305.448 16.6714C305.968 17.0183 306.368 17.5219 306.648 18.1821C306.927 18.8395 307.066 19.6368 307.063 20.5739C307.063 21.5167 306.923 22.3223 306.643 22.9909C306.366 23.6595 305.969 24.1701 305.452 24.5225C304.934 24.875 304.315 25.0513 303.593 25.0513ZM303.593 23.5448C304.085 23.5448 304.478 23.2972 304.772 22.8021C305.066 22.3069 305.211 21.5642 305.208 20.5739C305.208 19.9221 305.141 19.3794 305.007 18.9458C304.875 18.5122 304.688 18.1863 304.445 17.9681C304.204 17.7499 303.92 17.6408 303.593 17.6408C303.103 17.6408 302.712 17.8855 302.418 18.3751C302.124 18.8647 301.976 19.5976 301.973 20.5739C301.973 21.2341 302.039 21.7852 302.17 22.2272C302.305 22.6664 302.493 22.9965 302.737 23.2175C302.98 23.4357 303.265 23.5448 303.593 23.5448ZM312.097 16.2686V24.8624H310.28V17.9932H310.23L308.262 19.2269V17.6156L310.39 16.2686H312.097ZM227.934 39.0513C227.212 39.0485 226.591 38.8708 226.071 38.5183C225.553 38.1659 225.154 37.6553 224.875 36.9867C224.598 36.3181 224.461 35.5139 224.463 34.5739C224.463 33.6368 224.602 32.8381 224.879 32.1779C225.159 31.5177 225.557 31.0155 226.075 30.6714C226.595 30.3245 227.215 30.1511 227.934 30.1511C228.653 30.1511 229.271 30.3245 229.788 30.6714C230.309 31.0183 230.709 31.5219 230.988 32.1821C231.268 32.8395 231.407 33.6368 231.404 34.5739C231.404 35.5167 231.264 36.3223 230.984 36.9909C230.707 37.6595 230.31 38.1701 229.793 38.5225C229.275 38.875 228.655 39.0513 227.934 39.0513ZM227.934 37.5448C228.426 37.5448 228.819 37.2972 229.113 36.8021C229.407 36.3069 229.552 35.5642 229.549 34.5739C229.549 33.9221 229.482 33.3794 229.348 32.9458C229.216 32.5122 229.029 32.1863 228.785 31.9681C228.545 31.7499 228.261 31.6408 227.934 31.6408C227.444 31.6408 227.052 31.8855 226.759 32.3751C226.465 32.8647 226.317 33.5976 226.314 34.5739C226.314 35.2341 226.38 35.7852 226.511 36.2272C226.645 36.6664 226.834 36.9965 227.078 37.2175C227.321 37.4357 227.606 37.5448 227.934 37.5448ZM236.069 39.0513C235.347 39.0485 234.726 38.8708 234.206 38.5183C233.688 38.1659 233.29 37.6553 233.01 36.9867C232.733 36.3181 232.596 35.5139 232.599 34.5739C232.599 33.6368 232.737 32.8381 233.014 32.1779C233.294 31.5177 233.693 31.0155 234.21 30.6714C234.73 30.3245 235.35 30.1511 236.069 30.1511C236.788 30.1511 237.406 30.3245 237.924 30.6714C238.444 31.0183 238.844 31.5219 239.124 32.1821C239.404 32.8395 239.542 33.6368 239.539 34.5739C239.539 35.5167 239.399 36.3223 239.12 36.9909C238.843 37.6595 238.445 38.1701 237.928 38.5225C237.41 38.875 236.791 39.0513 236.069 39.0513ZM236.069 37.5448C236.561 37.5448 236.954 37.2972 237.248 36.8021C237.542 36.3069 237.687 35.5642 237.685 34.5739C237.685 33.9221 237.617 33.3794 237.483 32.9458C237.352 32.5122 237.164 32.1863 236.921 31.9681C236.68 31.7499 236.396 31.6408 236.069 31.6408C235.579 31.6408 235.188 31.8855 234.894 32.3751C234.6 32.8647 234.452 33.5976 234.449 34.5739C234.449 35.2341 234.515 35.7852 234.647 36.2272C234.781 36.6664 234.97 36.9965 235.213 37.2175C235.456 37.4357 235.742 37.5448 236.069 37.5448ZM244.204 39.0513C243.483 39.0485 242.862 38.8708 242.341 38.5183C241.824 38.1659 241.425 37.6553 241.145 36.9867C240.868 36.3181 240.731 35.5139 240.734 34.5739C240.734 33.6368 240.873 32.8381 241.15 32.1779C241.429 31.5177 241.828 31.0155 242.346 30.6714C242.866 30.3245 243.485 30.1511 244.204 30.1511C244.923 30.1511 245.542 30.3245 246.059 30.6714C246.579 31.0183 246.98 31.5219 247.259 32.1821C247.539 32.8395 247.677 33.6368 247.675 34.5739C247.675 35.5167 247.535 36.3223 247.255 36.9909C246.978 37.6595 246.581 38.1701 246.063 38.5225C245.546 38.875 244.926 39.0513 244.204 39.0513ZM244.204 37.5448C244.697 37.5448 245.09 37.2972 245.384 36.8021C245.677 36.3069 245.823 35.5642 245.82 34.5739C245.82 33.9221 245.753 33.3794 245.619 32.9458C245.487 32.5122 245.3 32.1863 245.056 31.9681C244.816 31.7499 244.532 31.6408 244.204 31.6408C243.715 31.6408 243.323 31.8855 243.029 32.3751C242.736 32.8647 242.587 33.5976 242.585 34.5739C242.585 35.2341 242.65 35.7852 242.782 36.2272C242.916 36.6664 243.105 36.9965 243.348 37.2175C243.592 37.4357 243.877 37.5448 244.204 37.5448ZM252.34 39.0513C251.618 39.0485 250.997 38.8708 250.477 38.5183C249.959 38.1659 249.561 37.6553 249.281 36.9867C249.004 36.3181 248.867 35.5139 248.87 34.5739C248.87 33.6368 249.008 32.8381 249.285 32.1779C249.565 31.5177 249.963 31.0155 250.481 30.6714C251.001 30.3245 251.621 30.1511 252.34 30.1511C253.059 30.1511 253.677 30.3245 254.195 30.6714C254.715 31.0183 255.115 31.5219 255.395 32.1821C255.674 32.8395 255.813 33.6368 255.81 34.5739C255.81 35.5167 255.67 36.3223 255.39 36.9909C255.114 37.6595 254.716 38.1701 254.199 38.5225C253.681 38.875 253.062 39.0513 252.34 39.0513ZM252.34 37.5448C252.832 37.5448 253.225 37.2972 253.519 36.8021C253.813 36.3069 253.958 35.5642 253.955 34.5739C253.955 33.9221 253.888 33.3794 253.754 32.9458C253.622 32.5122 253.435 32.1863 253.192 31.9681C252.951 31.7499 252.667 31.6408 252.34 31.6408C251.85 31.6408 251.459 31.8855 251.165 32.3751C250.871 32.8647 250.723 33.5976 250.72 34.5739C250.72 35.2341 250.786 35.7852 250.917 36.2272C251.052 36.6664 251.24 36.9965 251.484 37.2175C251.727 37.4357 252.013 37.5448 252.34 37.5448ZM260.844 30.2686V38.8624H259.028V31.9932H258.977L257.009 33.2269V31.6156L259.137 30.2686H260.844ZM266.257 39.0513C265.535 39.0485 264.914 38.8708 264.393 38.5183C263.876 38.1659 263.477 37.6553 263.198 36.9867C262.921 36.3181 262.783 35.5139 262.786 34.5739C262.786 33.6368 262.925 32.8381 263.202 32.1779C263.481 31.5177 263.88 31.0155 264.398 30.6714C264.918 30.3245 265.538 30.1511 266.257 30.1511C266.975 30.1511 267.594 30.3245 268.111 30.6714C268.632 31.0183 269.032 31.5219 269.311 32.1821C269.591 32.8395 269.73 33.6368 269.727 34.5739C269.727 35.5167 269.587 36.3223 269.307 36.9909C269.03 37.6595 268.633 38.1701 268.115 38.5225C267.598 38.875 266.978 39.0513 266.257 39.0513ZM266.257 37.5448C266.749 37.5448 267.142 37.2972 267.436 36.8021C267.729 36.3069 267.875 35.5642 267.872 34.5739C267.872 33.9221 267.805 33.3794 267.671 32.9458C267.539 32.5122 267.352 32.1863 267.108 31.9681C266.868 31.7499 266.584 31.6408 266.257 31.6408C265.767 31.6408 265.375 31.8855 265.082 32.3751C264.788 32.8647 264.64 33.5976 264.637 34.5739C264.637 35.2341 264.703 35.7852 264.834 36.2272C264.968 36.6664 265.157 36.9965 265.401 37.2175C265.644 37.4357 265.929 37.5448 266.257 37.5448ZM274.761 30.2686V38.8624H272.944V31.9932H272.894L270.926 33.2269V31.6156L273.053 30.2686H274.761ZM280.173 39.0513C279.452 39.0485 278.83 38.8708 278.31 38.5183C277.793 38.1659 277.394 37.6553 277.114 36.9867C276.837 36.3181 276.7 35.5139 276.703 34.5739C276.703 33.6368 276.841 32.8381 277.118 32.1779C277.398 31.5177 277.797 31.0155 278.314 30.6714C278.835 30.3245 279.454 30.1511 280.173 30.1511C280.892 30.1511 281.51 30.3245 282.028 30.6714C282.548 31.0183 282.948 31.5219 283.228 32.1821C283.508 32.8395 283.646 33.6368 283.644 34.5739C283.644 35.5167 283.504 36.3223 283.224 36.9909C282.947 37.6595 282.55 38.1701 282.032 38.5225C281.515 38.875 280.895 39.0513 280.173 39.0513ZM280.173 37.5448C280.666 37.5448 281.059 37.2972 281.352 36.8021C281.646 36.3069 281.792 35.5642 281.789 34.5739C281.789 33.9221 281.722 33.3794 281.587 32.9458C281.456 32.5122 281.268 32.1863 281.025 31.9681C280.785 31.7499 280.501 31.6408 280.173 31.6408C279.684 31.6408 279.292 31.8855 278.998 32.3751C278.705 32.8647 278.556 33.5976 278.554 34.5739C278.554 35.2341 278.619 35.7852 278.751 36.2272C278.885 36.6664 279.074 36.9965 279.317 37.2175C279.561 37.4357 279.846 37.5448 280.173 37.5448Z" fill="black"/>
</svg>
