<svg width="403" height="97" viewBox="0 0 403 97" fill="none" xmlns="http://www.w3.org/2000/svg">
<path d="M0 0H104C109.523 0 114 4.47715 114 10V87C114 92.5228 109.523 97 104 97H0V0Z" fill="#A839FF"/>
<circle cx="38.7546" cy="34.7546" r="7.75459" fill="black"/>
<circle cx="88.9748" cy="34.7546" r="7.75459" fill="black"/>
<path d="M63.9761 70.0195C71.9601 70.0195 71.9887 58.7569 71.9887 58.7569H56.1102C56.1102 58.7569 55.9921 70.0195 63.9761 70.0195Z" fill="white"/>
<path d="M143.935 23.817C146.051 16.8009 152.515 12 159.843 12H386.383C395.56 12 403 19.4397 403 28.617V53.383C403 62.5603 395.56 70 386.383 70H140.097C135.068 70 131.464 65.1481 132.917 60.3335L143.935 23.817Z" fill="#D9D9D9"/>
<path d="M171.527 30.593V28.8182H179.89V30.593H176.772V39H174.645V30.593H171.527ZM183.57 39.1491C182.798 39.1491 182.13 38.9851 181.566 38.657C181.006 38.3255 180.574 37.8648 180.269 37.2749C179.964 36.6816 179.811 35.9938 179.811 35.2116C179.811 34.4228 179.964 33.7334 180.269 33.1435C180.574 32.5502 181.006 32.0895 181.566 31.7614C182.13 31.4299 182.798 31.2642 183.57 31.2642C184.342 31.2642 185.008 31.4299 185.568 31.7614C186.132 32.0895 186.566 32.5502 186.871 33.1435C187.176 33.7334 187.328 34.4228 187.328 35.2116C187.328 35.9938 187.176 36.6816 186.871 37.2749C186.566 37.8648 186.132 38.3255 185.568 38.657C185.008 38.9851 184.342 39.1491 183.57 39.1491ZM183.58 37.5085C183.931 37.5085 184.224 37.4091 184.46 37.2102C184.695 37.008 184.872 36.733 184.992 36.3849C185.114 36.0369 185.176 35.6409 185.176 35.1967C185.176 34.7526 185.114 34.3565 184.992 34.0085C184.872 33.6605 184.695 33.3854 184.46 33.1832C184.224 32.9811 183.931 32.88 183.58 32.88C183.225 32.88 182.927 32.9811 182.685 33.1832C182.446 33.3854 182.266 33.6605 182.143 34.0085C182.024 34.3565 181.964 34.7526 181.964 35.1967C181.964 35.6409 182.024 36.0369 182.143 36.3849C182.266 36.733 182.446 37.008 182.685 37.2102C182.927 37.4091 183.225 37.5085 183.58 37.5085ZM194.064 28.8182V39H191.946V28.8182H194.064ZM199.24 39.1491C198.455 39.1491 197.779 38.9901 197.212 38.6719C196.648 38.3504 196.214 37.8963 195.909 37.3097C195.604 36.7197 195.452 36.022 195.452 35.2166C195.452 34.4311 195.604 33.7417 195.909 33.1484C196.214 32.5552 196.643 32.0928 197.197 31.7614C197.754 31.4299 198.407 31.2642 199.156 31.2642C199.66 31.2642 200.129 31.3454 200.563 31.5078C201 31.6669 201.381 31.9072 201.706 32.2287C202.034 32.5502 202.29 32.9545 202.472 33.4418C202.654 33.9257 202.745 34.4924 202.745 35.142V35.7237H196.297V34.4112H200.752C200.752 34.1063 200.685 33.8362 200.553 33.6009C200.42 33.3655 200.236 33.1816 200.001 33.049C199.769 32.9131 199.499 32.8452 199.191 32.8452C198.869 32.8452 198.584 32.9197 198.335 33.0689C198.09 33.2147 197.898 33.4119 197.759 33.6605C197.62 33.9058 197.548 34.1792 197.545 34.4808V35.7287C197.545 36.1065 197.615 36.433 197.754 36.7081C197.896 36.9832 198.097 37.1953 198.355 37.3445C198.614 37.4936 198.92 37.5682 199.275 37.5682C199.51 37.5682 199.726 37.535 199.921 37.4688C200.117 37.4025 200.284 37.303 200.424 37.1705C200.563 37.0379 200.669 36.8755 200.742 36.6832L202.701 36.8125C202.601 37.2831 202.397 37.6941 202.089 38.0455C201.784 38.3935 201.39 38.6652 200.906 38.8608C200.425 39.053 199.87 39.1491 199.24 39.1491ZM206.305 39.1442C205.818 39.1442 205.384 39.0597 205.002 38.8906C204.621 38.7183 204.32 38.4647 204.098 38.13C203.879 37.7919 203.769 37.371 203.769 36.8672C203.769 36.4429 203.847 36.0866 204.003 35.7983C204.159 35.5099 204.371 35.2779 204.639 35.1023C204.908 34.9266 205.213 34.794 205.554 34.7045C205.899 34.6151 206.26 34.5521 206.638 34.5156C207.082 34.4692 207.44 34.4261 207.712 34.3864C207.984 34.3433 208.181 34.2803 208.304 34.1974C208.426 34.1146 208.487 33.992 208.487 33.8295V33.7997C208.487 33.4848 208.388 33.2412 208.189 33.0689C207.994 32.8965 207.715 32.8104 207.354 32.8104C206.973 32.8104 206.67 32.8949 206.444 33.0639C206.219 33.2296 206.07 33.4384 205.997 33.6903L204.038 33.5312C204.137 33.0672 204.333 32.6662 204.625 32.3281C204.916 31.9867 205.292 31.7249 205.753 31.5426C206.217 31.357 206.754 31.2642 207.364 31.2642C207.788 31.2642 208.194 31.3139 208.582 31.4134C208.973 31.5128 209.319 31.6669 209.621 31.8757C209.926 32.0845 210.166 32.353 210.342 32.6811C210.518 33.0059 210.605 33.3954 210.605 33.8494V39H208.597V37.9411H208.537C208.415 38.1797 208.251 38.3902 208.045 38.5724C207.84 38.7514 207.593 38.8923 207.304 38.995C207.016 39.0945 206.683 39.1442 206.305 39.1442ZM206.911 37.6825C207.223 37.6825 207.498 37.6212 207.737 37.4986C207.975 37.3726 208.163 37.2036 208.299 36.9915C208.434 36.7794 208.502 36.5391 208.502 36.2706V35.4602C208.436 35.5033 208.345 35.5431 208.229 35.5795C208.116 35.6127 207.989 35.6442 207.846 35.674C207.704 35.7005 207.561 35.7254 207.419 35.7486C207.276 35.7685 207.147 35.7867 207.031 35.8033C206.782 35.8397 206.565 35.8977 206.38 35.9773C206.194 36.0568 206.05 36.1645 205.947 36.3004C205.844 36.433 205.793 36.5987 205.793 36.7976C205.793 37.0859 205.897 37.3063 206.106 37.4588C206.318 37.608 206.587 37.6825 206.911 37.6825ZM212.248 39V31.3636H214.302V32.696H214.381C214.521 32.2221 214.754 31.8641 215.082 31.6222C215.41 31.3769 215.788 31.2543 216.216 31.2543C216.322 31.2543 216.436 31.2609 216.559 31.2741C216.681 31.2874 216.789 31.3056 216.882 31.3288V33.2081C216.783 33.1783 216.645 33.1518 216.469 33.1286C216.294 33.1054 216.133 33.0938 215.987 33.0938C215.676 33.0938 215.397 33.1617 215.152 33.2976C214.91 33.4302 214.718 33.6158 214.575 33.8544C214.436 34.093 214.366 34.3681 214.366 34.6797V39H212.248ZM220.095 34.5852V39H217.977V31.3636H219.995V32.7109H220.085C220.254 32.2668 220.537 31.9155 220.935 31.657C221.333 31.3951 221.815 31.2642 222.382 31.2642C222.912 31.2642 223.374 31.3802 223.769 31.6122C224.163 31.8442 224.47 32.1757 224.689 32.6065C224.907 33.0341 225.017 33.5445 225.017 34.1378V39H222.899V34.5156C222.902 34.0483 222.783 33.6837 222.541 33.4219C222.299 33.1567 221.966 33.0241 221.542 33.0241C221.257 33.0241 221.005 33.0855 220.786 33.2081C220.571 33.3307 220.401 33.5097 220.279 33.745C220.16 33.977 220.098 34.2571 220.095 34.5852ZM232.104 39.1442C231.617 39.1442 231.182 39.0597 230.801 38.8906C230.42 38.7183 230.118 38.4647 229.896 38.13C229.678 37.7919 229.568 37.371 229.568 36.8672C229.568 36.4429 229.646 36.0866 229.802 35.7983C229.958 35.5099 230.17 35.2779 230.438 35.1023C230.707 34.9266 231.012 34.794 231.353 34.7045C231.698 34.6151 232.059 34.5521 232.437 34.5156C232.881 34.4692 233.239 34.4261 233.511 34.3864C233.783 34.3433 233.98 34.2803 234.102 34.1974C234.225 34.1146 234.286 33.992 234.286 33.8295V33.7997C234.286 33.4848 234.187 33.2412 233.988 33.0689C233.792 32.8965 233.514 32.8104 233.153 32.8104C232.772 32.8104 232.468 32.8949 232.243 33.0639C232.018 33.2296 231.868 33.4384 231.796 33.6903L229.837 33.5312C229.936 33.0672 230.132 32.6662 230.423 32.3281C230.715 31.9867 231.091 31.7249 231.552 31.5426C232.016 31.357 232.553 31.2642 233.163 31.2642C233.587 31.2642 233.993 31.3139 234.381 31.4134C234.772 31.5128 235.118 31.6669 235.42 31.8757C235.725 32.0845 235.965 32.353 236.141 32.6811C236.316 33.0059 236.404 33.3954 236.404 33.8494V39H234.396V37.9411H234.336C234.213 38.1797 234.049 38.3902 233.844 38.5724C233.638 38.7514 233.391 38.8923 233.103 38.995C232.815 39.0945 232.482 39.1442 232.104 39.1442ZM232.71 37.6825C233.022 37.6825 233.297 37.6212 233.536 37.4986C233.774 37.3726 233.961 37.2036 234.097 36.9915C234.233 36.7794 234.301 36.5391 234.301 36.2706V35.4602C234.235 35.5033 234.144 35.5431 234.028 35.5795C233.915 35.6127 233.787 35.6442 233.645 35.674C233.502 35.7005 233.36 35.7254 233.217 35.7486C233.075 35.7685 232.946 35.7867 232.83 35.8033C232.581 35.8397 232.364 35.8977 232.178 35.9773C231.993 36.0568 231.849 36.1645 231.746 36.3004C231.643 36.433 231.592 36.5987 231.592 36.7976C231.592 37.0859 231.696 37.3063 231.905 37.4588C232.117 37.608 232.386 37.6825 232.71 37.6825ZM238.087 39V28.8182H240.205V32.6463H240.27C240.362 32.4408 240.497 32.232 240.672 32.0199C240.851 31.8045 241.083 31.6255 241.368 31.483C241.657 31.3371 242.015 31.2642 242.442 31.2642C242.999 31.2642 243.513 31.41 243.983 31.7017C244.454 31.9901 244.83 32.4259 245.112 33.0092C245.394 33.5893 245.535 34.3168 245.535 35.1918C245.535 36.0436 245.397 36.7628 245.122 37.3494C244.85 37.9328 244.479 38.3752 244.008 38.6768C243.541 38.9751 243.017 39.1243 242.437 39.1243C242.026 39.1243 241.677 39.0563 241.388 38.9205C241.103 38.7846 240.87 38.6139 240.687 38.4084C240.505 38.1996 240.366 37.9891 240.27 37.777H240.175V39H238.087ZM240.16 35.1818C240.16 35.6359 240.223 36.032 240.349 36.37C240.475 36.7081 240.657 36.9716 240.896 37.1605C241.135 37.3461 241.425 37.4389 241.766 37.4389C242.111 37.4389 242.402 37.3445 242.641 37.1555C242.88 36.9633 243.06 36.6982 243.183 36.3601C243.309 36.0187 243.372 35.6259 243.372 35.1818C243.372 34.741 243.311 34.3532 243.188 34.0185C243.065 33.6837 242.885 33.4219 242.646 33.233C242.407 33.044 242.114 32.9496 241.766 32.9496C241.421 32.9496 241.13 33.0407 240.891 33.223C240.656 33.4053 240.475 33.6638 240.349 33.9986C240.223 34.3333 240.16 34.7277 240.16 35.1818ZM250.398 39.1491C249.626 39.1491 248.958 38.9851 248.394 38.657C247.834 38.3255 247.402 37.8648 247.097 37.2749C246.792 36.6816 246.639 35.9938 246.639 35.2116C246.639 34.4228 246.792 33.7334 247.097 33.1435C247.402 32.5502 247.834 32.0895 248.394 31.7614C248.958 31.4299 249.626 31.2642 250.398 31.2642C251.17 31.2642 251.836 31.4299 252.397 31.7614C252.96 32.0895 253.394 32.5502 253.699 33.1435C254.004 33.7334 254.157 34.4228 254.157 35.2116C254.157 35.9938 254.004 36.6816 253.699 37.2749C253.394 37.8648 252.96 38.3255 252.397 38.657C251.836 38.9851 251.17 39.1491 250.398 39.1491ZM250.408 37.5085C250.759 37.5085 251.053 37.4091 251.288 37.2102C251.523 37.008 251.701 36.733 251.82 36.3849C251.943 36.0369 252.004 35.6409 252.004 35.1967C252.004 34.7526 251.943 34.3565 251.82 34.0085C251.701 33.6605 251.523 33.3854 251.288 33.1832C251.053 32.9811 250.759 32.88 250.408 32.88C250.053 32.88 249.755 32.9811 249.513 33.1832C249.274 33.3854 249.094 33.6605 248.971 34.0085C248.852 34.3565 248.792 34.7526 248.792 35.1967C248.792 35.6409 248.852 36.0369 248.971 36.3849C249.094 36.733 249.274 37.008 249.513 37.2102C249.755 37.4091 250.053 37.5085 250.408 37.5085ZM260.431 35.7486V31.3636H262.549V39H260.515V37.6129H260.436C260.263 38.0604 259.977 38.42 259.576 38.6918C259.178 38.9635 258.692 39.0994 258.119 39.0994C257.608 39.0994 257.159 38.9834 256.772 38.7514C256.384 38.5194 256.081 38.1896 255.862 37.7621C255.646 37.3345 255.537 36.8224 255.534 36.2259V31.3636H257.652V35.848C257.655 36.2988 257.776 36.6551 258.014 36.9169C258.253 37.1787 258.573 37.3097 258.974 37.3097C259.229 37.3097 259.468 37.2517 259.69 37.1357C259.912 37.0163 260.091 36.8407 260.227 36.6087C260.366 36.3767 260.434 36.09 260.431 35.7486ZM268.304 31.3636V32.9545H263.706V31.3636H268.304ZM264.75 29.5341H266.868V36.6534C266.868 36.849 266.897 37.0014 266.957 37.1108C267.017 37.2169 267.1 37.2914 267.206 37.3345C267.315 37.3776 267.441 37.3991 267.584 37.3991C267.683 37.3991 267.782 37.3909 267.882 37.3743C267.981 37.3544 268.057 37.3395 268.111 37.3295L268.444 38.9055C268.338 38.9387 268.188 38.9768 267.996 39.0199C267.804 39.0663 267.57 39.0945 267.295 39.1044C266.785 39.1243 266.337 39.0563 265.953 38.9006C265.572 38.7448 265.275 38.5028 265.063 38.1747C264.851 37.8466 264.746 37.4323 264.75 36.9318V29.5341ZM276.986 31.3636V32.9545H272.387V31.3636H276.986ZM273.431 29.5341H275.549V36.6534C275.549 36.849 275.579 37.0014 275.639 37.1108C275.698 37.2169 275.781 37.2914 275.887 37.3345C275.997 37.3776 276.123 37.3991 276.265 37.3991C276.365 37.3991 276.464 37.3909 276.563 37.3743C276.663 37.3544 276.739 37.3395 276.792 37.3295L277.125 38.9055C277.019 38.9387 276.87 38.9768 276.678 39.0199C276.486 39.0663 276.252 39.0945 275.977 39.1044C275.466 39.1243 275.019 39.0563 274.634 38.9006C274.253 38.7448 273.957 38.5028 273.745 38.1747C273.532 37.8466 273.428 37.4323 273.431 36.9318V29.5341ZM280.648 34.5852V39H278.53V28.8182H280.588V32.7109H280.677C280.85 32.2602 281.128 31.9072 281.513 31.652C281.897 31.3935 282.379 31.2642 282.959 31.2642C283.49 31.2642 283.952 31.3802 284.347 31.6122C284.744 31.8409 285.052 32.1707 285.271 32.6016C285.493 33.0291 285.603 33.5412 285.599 34.1378V39H283.481V34.5156C283.485 34.045 283.365 33.6787 283.123 33.4169C282.885 33.1551 282.55 33.0241 282.119 33.0241C281.831 33.0241 281.576 33.0855 281.354 33.2081C281.135 33.3307 280.963 33.5097 280.837 33.745C280.714 33.977 280.651 34.2571 280.648 34.5852ZM290.746 39.1491C289.961 39.1491 289.285 38.9901 288.718 38.6719C288.154 38.3504 287.72 37.8963 287.415 37.3097C287.11 36.7197 286.958 36.022 286.958 35.2166C286.958 34.4311 287.11 33.7417 287.415 33.1484C287.72 32.5552 288.149 32.0928 288.703 31.7614C289.26 31.4299 289.913 31.2642 290.662 31.2642C291.165 31.2642 291.634 31.3454 292.069 31.5078C292.506 31.6669 292.887 31.9072 293.212 32.2287C293.54 32.5502 293.795 32.9545 293.978 33.4418C294.16 33.9257 294.251 34.4924 294.251 35.142V35.7237H287.803V34.4112H292.258C292.258 34.1063 292.191 33.8362 292.059 33.6009C291.926 33.3655 291.742 33.1816 291.507 33.049C291.275 32.9131 291.005 32.8452 290.696 32.8452C290.375 32.8452 290.09 32.9197 289.841 33.0689C289.596 33.2147 289.404 33.4119 289.265 33.6605C289.125 33.9058 289.054 34.1792 289.051 34.4808V35.7287C289.051 36.1065 289.12 36.433 289.26 36.7081C289.402 36.9832 289.603 37.1953 289.861 37.3445C290.12 37.4936 290.426 37.5682 290.781 37.5682C291.016 37.5682 291.232 37.535 291.427 37.4688C291.623 37.4025 291.79 37.303 291.929 37.1705C292.069 37.0379 292.175 36.8755 292.248 36.6832L294.206 36.8125C294.107 37.2831 293.903 37.6941 293.595 38.0455C293.29 38.3935 292.896 38.6652 292.412 38.8608C291.931 39.053 291.376 39.1491 290.746 39.1491ZM300.991 28.8182V39H298.873V28.8182H300.991ZM302.688 39V31.3636H304.806V39H302.688ZM303.752 30.3793C303.437 30.3793 303.167 30.2749 302.941 30.0661C302.719 29.8539 302.608 29.6004 302.608 29.3054C302.608 29.0137 302.719 28.7635 302.941 28.5547C303.167 28.3426 303.437 28.2365 303.752 28.2365C304.067 28.2365 304.335 28.3426 304.557 28.5547C304.783 28.7635 304.895 29.0137 304.895 29.3054C304.895 29.6004 304.783 29.8539 304.557 30.0661C304.335 30.2749 304.067 30.3793 303.752 30.3793ZM313.193 39.1491C312.411 39.1491 311.738 38.9834 311.174 38.652C310.614 38.3172 310.183 37.8532 309.882 37.2599C309.584 36.6667 309.434 35.9839 309.434 35.2116C309.434 34.4295 309.585 33.7434 309.887 33.1534C310.192 32.5601 310.624 32.0978 311.184 31.7663C311.745 31.4316 312.411 31.2642 313.183 31.2642C313.849 31.2642 314.432 31.3852 314.933 31.6271C315.433 31.8691 315.83 32.2088 316.121 32.6463C316.413 33.0838 316.574 33.5975 316.603 34.1875H314.605C314.549 33.8063 314.399 33.4998 314.157 33.2678C313.919 33.0324 313.606 32.9148 313.218 32.9148C312.89 32.9148 312.603 33.0043 312.358 33.1832C312.116 33.3589 311.927 33.6158 311.791 33.9538C311.655 34.2919 311.587 34.7012 311.587 35.1818C311.587 35.669 311.653 36.0833 311.786 36.4247C311.922 36.7661 312.112 37.0263 312.358 37.2053C312.603 37.3842 312.89 37.4737 313.218 37.4737C313.46 37.4737 313.677 37.424 313.869 37.3246C314.065 37.2251 314.225 37.081 314.351 36.892C314.481 36.6998 314.565 36.4695 314.605 36.201H316.603C316.57 36.7843 316.411 37.2981 316.126 37.7422C315.844 38.183 315.455 38.5277 314.958 38.7763C314.461 39.0249 313.872 39.1491 313.193 39.1491ZM321.41 39.1491C320.637 39.1491 319.97 38.9851 319.406 38.657C318.846 38.3255 318.414 37.8648 318.109 37.2749C317.804 36.6816 317.651 35.9938 317.651 35.2116C317.651 34.4228 317.804 33.7334 318.109 33.1435C318.414 32.5502 318.846 32.0895 319.406 31.7614C319.97 31.4299 320.637 31.2642 321.41 31.2642C322.182 31.2642 322.848 31.4299 323.408 31.7614C323.972 32.0895 324.406 32.5502 324.711 33.1435C325.016 33.7334 325.168 34.4228 325.168 35.2116C325.168 35.9938 325.016 36.6816 324.711 37.2749C324.406 37.8648 323.972 38.3255 323.408 38.657C322.848 38.9851 322.182 39.1491 321.41 39.1491ZM321.42 37.5085C321.771 37.5085 322.064 37.4091 322.3 37.2102C322.535 37.008 322.712 36.733 322.832 36.3849C322.954 36.0369 323.016 35.6409 323.016 35.1967C323.016 34.7526 322.954 34.3565 322.832 34.0085C322.712 33.6605 322.535 33.3854 322.3 33.1832C322.064 32.9811 321.771 32.88 321.42 32.88C321.065 32.88 320.767 32.9811 320.525 33.1832C320.286 33.3854 320.105 33.6605 319.983 34.0085C319.864 34.3565 319.804 34.7526 319.804 35.1967C319.804 35.6409 319.864 36.0369 319.983 36.3849C320.105 36.733 320.286 37.008 320.525 37.2102C320.767 37.4091 321.065 37.5085 321.42 37.5085ZM326.545 39V31.3636H328.564V32.7109H328.653C328.812 32.2635 329.078 31.9105 329.449 31.652C329.82 31.3935 330.264 31.2642 330.781 31.2642C331.305 31.2642 331.751 31.3951 332.119 31.657C332.486 31.9155 332.732 32.2668 332.854 32.7109H332.934C333.09 32.2734 333.371 31.9238 333.779 31.6619C334.19 31.3968 334.676 31.2642 335.236 31.2642C335.948 31.2642 336.527 31.4912 336.971 31.9453C337.418 32.3961 337.642 33.0357 337.642 33.8643V39H335.529V34.282C335.529 33.8577 335.416 33.5395 335.191 33.3274C334.966 33.1153 334.684 33.0092 334.346 33.0092C333.961 33.0092 333.661 33.1319 333.446 33.3771C333.23 33.6191 333.123 33.9389 333.123 34.3366V39H331.07V34.2372C331.07 33.8627 330.962 33.5644 330.746 33.3423C330.534 33.1203 330.254 33.0092 329.906 33.0092C329.671 33.0092 329.459 33.0689 329.27 33.1882C329.084 33.3042 328.937 33.4683 328.827 33.6804C328.718 33.8892 328.663 34.1345 328.663 34.4162V39H326.545ZM339.315 39V31.3636H341.333V32.7109H341.423C341.582 32.2635 341.847 31.9105 342.218 31.652C342.59 31.3935 343.034 31.2642 343.551 31.2642C344.074 31.2642 344.52 31.3951 344.888 31.657C345.256 31.9155 345.501 32.2668 345.624 32.7109H345.703C345.859 32.2734 346.141 31.9238 346.549 31.6619C346.96 31.3968 347.445 31.2642 348.005 31.2642C348.718 31.2642 349.296 31.4912 349.74 31.9453C350.188 32.3961 350.411 33.0357 350.411 33.8643V39H348.299V34.282C348.299 33.8577 348.186 33.5395 347.96 33.3274C347.735 33.1153 347.453 33.0092 347.115 33.0092C346.731 33.0092 346.431 33.1319 346.215 33.3771C346 33.6191 345.892 33.9389 345.892 34.3366V39H343.839V34.2372C343.839 33.8627 343.731 33.5644 343.516 33.3423C343.304 33.1203 343.024 33.0092 342.676 33.0092C342.44 33.0092 342.228 33.0689 342.039 33.1882C341.854 33.3042 341.706 33.4683 341.597 33.6804C341.487 33.8892 341.433 34.1345 341.433 34.4162V39H339.315ZM354.262 39.1442C353.775 39.1442 353.341 39.0597 352.959 38.8906C352.578 38.7183 352.277 38.4647 352.055 38.13C351.836 37.7919 351.726 37.371 351.726 36.8672C351.726 36.4429 351.804 36.0866 351.96 35.7983C352.116 35.5099 352.328 35.2779 352.597 35.1023C352.865 34.9266 353.17 34.794 353.511 34.7045C353.856 34.6151 354.217 34.5521 354.595 34.5156C355.039 34.4692 355.397 34.4261 355.669 34.3864C355.941 34.3433 356.138 34.2803 356.261 34.1974C356.383 34.1146 356.445 33.992 356.445 33.8295V33.7997C356.445 33.4848 356.345 33.2412 356.146 33.0689C355.951 32.8965 355.672 32.8104 355.311 32.8104C354.93 32.8104 354.627 32.8949 354.401 33.0639C354.176 33.2296 354.027 33.4384 353.954 33.6903L351.995 33.5312C352.094 33.0672 352.29 32.6662 352.582 32.3281C352.873 31.9867 353.249 31.7249 353.71 31.5426C354.174 31.357 354.711 31.2642 355.321 31.2642C355.745 31.2642 356.151 31.3139 356.539 31.4134C356.93 31.5128 357.276 31.6669 357.578 31.8757C357.883 32.0845 358.123 32.353 358.299 32.6811C358.475 33.0059 358.562 33.3954 358.562 33.8494V39H356.554V37.9411H356.494C356.372 38.1797 356.208 38.3902 356.002 38.5724C355.797 38.7514 355.55 38.8923 355.261 38.995C354.973 39.0945 354.64 39.1442 354.262 39.1442ZM354.869 37.6825C355.18 37.6825 355.455 37.6212 355.694 37.4986C355.932 37.3726 356.12 37.2036 356.256 36.9915C356.391 36.7794 356.459 36.5391 356.459 36.2706V35.4602C356.393 35.5033 356.302 35.5431 356.186 35.5795C356.073 35.6127 355.946 35.6442 355.803 35.674C355.661 35.7005 355.518 35.7254 355.376 35.7486C355.233 35.7685 355.104 35.7867 354.988 35.8033C354.739 35.8397 354.522 35.8977 354.337 35.9773C354.151 36.0568 354.007 36.1645 353.904 36.3004C353.801 36.433 353.75 36.5987 353.75 36.7976C353.75 37.0859 353.854 37.3063 354.063 37.4588C354.275 37.608 354.544 37.6825 354.869 37.6825ZM362.323 34.5852V39H360.206V31.3636H362.224V32.7109H362.313C362.483 32.2668 362.766 31.9155 363.164 31.657C363.561 31.3951 364.044 31.2642 364.61 31.2642C365.141 31.2642 365.603 31.3802 365.997 31.6122C366.392 31.8442 366.698 32.1757 366.917 32.6065C367.136 33.0341 367.245 33.5445 367.245 34.1378V39H365.127V34.5156C365.131 34.0483 365.011 33.6837 364.769 33.4219C364.527 33.1567 364.194 33.0241 363.77 33.0241C363.485 33.0241 363.233 33.0855 363.014 33.2081C362.799 33.3307 362.63 33.5097 362.507 33.745C362.388 33.977 362.327 34.2571 362.323 34.5852ZM371.728 39.1243C371.148 39.1243 370.623 38.9751 370.152 38.6768C369.685 38.3752 369.314 37.9328 369.039 37.3494C368.767 36.7628 368.631 36.0436 368.631 35.1918C368.631 34.3168 368.772 33.5893 369.054 33.0092C369.335 32.4259 369.71 31.9901 370.177 31.7017C370.648 31.41 371.163 31.2642 371.723 31.2642C372.151 31.2642 372.507 31.3371 372.792 31.483C373.081 31.6255 373.313 31.8045 373.488 32.0199C373.667 32.232 373.803 32.4408 373.896 32.6463H373.961V28.8182H376.074V39H373.986V37.777H373.896C373.797 37.9891 373.656 38.1996 373.473 38.4084C373.294 38.6139 373.061 38.7846 372.772 38.9205C372.487 39.0563 372.139 39.1243 371.728 39.1243ZM372.4 37.4389C372.741 37.4389 373.029 37.3461 373.265 37.1605C373.503 36.9716 373.686 36.7081 373.812 36.37C373.941 36.032 374.005 35.6359 374.005 35.1818C374.005 34.7277 373.942 34.3333 373.816 33.9986C373.691 33.6638 373.508 33.4053 373.27 33.223C373.031 33.0407 372.741 32.9496 372.4 32.9496C372.052 32.9496 371.758 33.044 371.52 33.233C371.281 33.4219 371.1 33.6837 370.978 34.0185C370.855 34.3532 370.794 34.741 370.794 35.1818C370.794 35.6259 370.855 36.0187 370.978 36.3601C371.104 36.6982 371.284 36.9633 371.52 37.1555C371.758 37.3445 372.052 37.4389 372.4 37.4389ZM167.762 58.8636C167.494 58.8636 167.242 58.8421 167.006 58.799C166.774 58.7592 166.582 58.7079 166.43 58.6449L166.907 57.0639C167.156 57.1402 167.379 57.1816 167.578 57.1882C167.78 57.1948 167.954 57.1484 168.1 57.049C168.249 56.9496 168.37 56.7805 168.463 56.5419L168.587 56.2188L165.848 48.3636H168.075L169.656 53.9716H169.736L171.332 48.3636H173.574L170.606 56.8253C170.463 57.2363 170.269 57.5942 170.024 57.8991C169.782 58.2074 169.476 58.4444 169.104 58.6101C168.733 58.7791 168.286 58.8636 167.762 58.8636ZM177.862 56.1491C177.09 56.1491 176.422 55.9851 175.858 55.657C175.298 55.3255 174.866 54.8648 174.561 54.2749C174.256 53.6816 174.103 52.9938 174.103 52.2116C174.103 51.4228 174.256 50.7334 174.561 50.1435C174.866 49.5502 175.298 49.0895 175.858 48.7614C176.422 48.4299 177.09 48.2642 177.862 48.2642C178.634 48.2642 179.3 48.4299 179.86 48.7614C180.424 49.0895 180.858 49.5502 181.163 50.1435C181.468 50.7334 181.62 51.4228 181.62 52.2116C181.62 52.9938 181.468 53.6816 181.163 54.2749C180.858 54.8648 180.424 55.3255 179.86 55.657C179.3 55.9851 178.634 56.1491 177.862 56.1491ZM177.872 54.5085C178.223 54.5085 178.516 54.4091 178.752 54.2102C178.987 54.008 179.164 53.733 179.284 53.3849C179.406 53.0369 179.468 52.6409 179.468 52.1967C179.468 51.7526 179.406 51.3565 179.284 51.0085C179.164 50.6605 178.987 50.3854 178.752 50.1832C178.516 49.9811 178.223 49.88 177.872 49.88C177.517 49.88 177.219 49.9811 176.977 50.1832C176.738 50.3854 176.558 50.6605 176.435 51.0085C176.316 51.3565 176.256 51.7526 176.256 52.1967C176.256 52.6409 176.316 53.0369 176.435 53.3849C176.558 53.733 176.738 54.008 176.977 54.2102C177.219 54.4091 177.517 54.5085 177.872 54.5085ZM187.895 52.7486V48.3636H190.012V56H187.979V54.6129H187.9C187.727 55.0604 187.44 55.42 187.039 55.6918C186.642 55.9635 186.156 56.0994 185.583 56.0994C185.072 56.0994 184.623 55.9834 184.235 55.7514C183.848 55.5194 183.544 55.1896 183.326 54.7621C183.11 54.3345 183.001 53.8224 182.998 53.2259V48.3636H185.115V52.848C185.119 53.2988 185.24 53.6551 185.478 53.9169C185.717 54.1787 186.037 54.3097 186.438 54.3097C186.693 54.3097 186.932 54.2517 187.154 54.1357C187.376 54.0163 187.555 53.8407 187.691 53.6087C187.83 53.3767 187.898 53.09 187.895 52.7486ZM198.397 56.1491C197.615 56.1491 196.942 55.9834 196.379 55.652C195.818 55.3172 195.388 54.8532 195.086 54.2599C194.788 53.6667 194.638 52.9839 194.638 52.2116C194.638 51.4295 194.789 50.7434 195.091 50.1534C195.396 49.5601 195.828 49.0978 196.388 48.7663C196.949 48.4316 197.615 48.2642 198.387 48.2642C199.053 48.2642 199.637 48.3852 200.137 48.6271C200.638 48.8691 201.034 49.2088 201.325 49.6463C201.617 50.0838 201.778 50.5975 201.808 51.1875H199.809C199.753 50.8063 199.603 50.4998 199.362 50.2678C199.123 50.0324 198.81 49.9148 198.422 49.9148C198.094 49.9148 197.807 50.0043 197.562 50.1832C197.32 50.3589 197.131 50.6158 196.995 50.9538C196.859 51.2919 196.791 51.7012 196.791 52.1818C196.791 52.669 196.857 53.0833 196.99 53.4247C197.126 53.7661 197.317 54.0263 197.562 54.2053C197.807 54.3842 198.094 54.4737 198.422 54.4737C198.664 54.4737 198.881 54.424 199.073 54.3246C199.269 54.2251 199.429 54.081 199.555 53.892C199.685 53.6998 199.769 53.4695 199.809 53.201H201.808C201.774 53.7843 201.615 54.2981 201.33 54.7422C201.049 55.183 200.659 55.5277 200.162 55.7763C199.665 56.0249 199.076 56.1491 198.397 56.1491ZM205.341 56.1442C204.854 56.1442 204.42 56.0597 204.039 55.8906C203.657 55.7183 203.356 55.4647 203.134 55.13C202.915 54.7919 202.806 54.371 202.806 53.8672C202.806 53.4429 202.883 53.0866 203.039 52.7983C203.195 52.5099 203.407 52.2779 203.676 52.1023C203.944 51.9266 204.249 51.794 204.59 51.7045C204.935 51.6151 205.296 51.5521 205.674 51.5156C206.118 51.4692 206.476 51.4261 206.748 51.3864C207.02 51.3433 207.217 51.2803 207.34 51.1974C207.462 51.1146 207.524 50.992 207.524 50.8295V50.7997C207.524 50.4848 207.424 50.2412 207.225 50.0689C207.03 49.8965 206.751 49.8104 206.39 49.8104C206.009 49.8104 205.706 49.8949 205.48 50.0639C205.255 50.2296 205.106 50.4384 205.033 50.6903L203.074 50.5312C203.173 50.0672 203.369 49.6662 203.661 49.3281C203.952 48.9867 204.329 48.7249 204.789 48.5426C205.253 48.357 205.79 48.2642 206.4 48.2642C206.824 48.2642 207.23 48.3139 207.618 48.4134C208.009 48.5128 208.356 48.6669 208.657 48.8757C208.962 49.0845 209.202 49.353 209.378 49.6811C209.554 50.0059 209.642 50.3954 209.642 50.8494V56H207.633V54.9411H207.573C207.451 55.1797 207.287 55.3902 207.081 55.5724C206.876 55.7514 206.629 55.8923 206.34 55.995C206.052 56.0945 205.719 56.1442 205.341 56.1442ZM205.948 54.6825C206.259 54.6825 206.534 54.6212 206.773 54.4986C207.012 54.3726 207.199 54.2036 207.335 53.9915C207.471 53.7794 207.539 53.5391 207.539 53.2706V52.4602C207.472 52.5033 207.381 52.5431 207.265 52.5795C207.152 52.6127 207.025 52.6442 206.882 52.674C206.74 52.7005 206.597 52.7254 206.455 52.7486C206.312 52.7685 206.183 52.7867 206.067 52.8033C205.818 52.8397 205.601 52.8977 205.416 52.9773C205.23 53.0568 205.086 53.1645 204.983 53.3004C204.88 53.433 204.829 53.5987 204.829 53.7976C204.829 54.0859 204.933 54.3063 205.142 54.4588C205.354 54.608 205.623 54.6825 205.948 54.6825ZM213.403 51.5852V56H211.285V48.3636H213.303V49.7109H213.393C213.562 49.2668 213.845 48.9155 214.243 48.657C214.64 48.3951 215.123 48.2642 215.689 48.2642C216.22 48.2642 216.682 48.3802 217.077 48.6122C217.471 48.8442 217.778 49.1757 217.996 49.6065C218.215 50.0341 218.324 50.5445 218.324 51.1378V56H216.206V51.5156C216.21 51.0483 216.09 50.6837 215.849 50.4219C215.607 50.1567 215.273 50.0241 214.849 50.0241C214.564 50.0241 214.312 50.0855 214.094 50.2081C213.878 50.3307 213.709 50.5097 213.586 50.745C213.467 50.977 213.406 51.2571 213.403 51.5852ZM227.296 48.3636V49.9545H222.697V48.3636H227.296ZM223.741 46.5341H225.859V53.6534C225.859 53.849 225.889 54.0014 225.948 54.1108C226.008 54.2169 226.091 54.2914 226.197 54.3345C226.306 54.3776 226.432 54.3991 226.575 54.3991C226.674 54.3991 226.774 54.3909 226.873 54.3743C226.972 54.3544 227.049 54.3395 227.102 54.3295L227.435 55.9055C227.329 55.9387 227.18 55.9768 226.987 56.0199C226.795 56.0663 226.561 56.0945 226.286 56.1044C225.776 56.1243 225.329 56.0563 224.944 55.9006C224.563 55.7448 224.266 55.5028 224.054 55.1747C223.842 54.8466 223.738 54.4323 223.741 53.9318V46.5341ZM230.853 56.1442C230.366 56.1442 229.931 56.0597 229.55 55.8906C229.169 55.7183 228.867 55.4647 228.645 55.13C228.427 54.7919 228.317 54.371 228.317 53.8672C228.317 53.4429 228.395 53.0866 228.551 52.7983C228.707 52.5099 228.919 52.2779 229.187 52.1023C229.456 51.9266 229.761 51.794 230.102 51.7045C230.447 51.6151 230.808 51.5521 231.186 51.5156C231.63 51.4692 231.988 51.4261 232.26 51.3864C232.532 51.3433 232.729 51.2803 232.851 51.1974C232.974 51.1146 233.035 50.992 233.035 50.8295V50.7997C233.035 50.4848 232.936 50.2412 232.737 50.0689C232.541 49.8965 232.263 49.8104 231.902 49.8104C231.521 49.8104 231.217 49.8949 230.992 50.0639C230.767 50.2296 230.617 50.4384 230.545 50.6903L228.586 50.5312C228.685 50.0672 228.881 49.6662 229.172 49.3281C229.464 48.9867 229.84 48.7249 230.301 48.5426C230.765 48.357 231.302 48.2642 231.912 48.2642C232.336 48.2642 232.742 48.3139 233.13 48.4134C233.521 48.5128 233.867 48.6669 234.169 48.8757C234.474 49.0845 234.714 49.353 234.89 49.6811C235.065 50.0059 235.153 50.3954 235.153 50.8494V56H233.145V54.9411H233.085C232.962 55.1797 232.798 55.3902 232.593 55.5724C232.387 55.7514 232.14 55.8923 231.852 55.995C231.564 56.0945 231.231 56.1442 230.853 56.1442ZM231.459 54.6825C231.771 54.6825 232.046 54.6212 232.285 54.4986C232.523 54.3726 232.711 54.2036 232.846 53.9915C232.982 53.7794 233.05 53.5391 233.05 53.2706V52.4602C232.984 52.5033 232.893 52.5431 232.777 52.5795C232.664 52.6127 232.537 52.6442 232.394 52.674C232.251 52.7005 232.109 52.7254 231.966 52.7486C231.824 52.7685 231.695 52.7867 231.579 52.8033C231.33 52.8397 231.113 52.8977 230.927 52.9773C230.742 53.0568 230.598 53.1645 230.495 53.3004C230.392 53.433 230.341 53.5987 230.341 53.7976C230.341 54.0859 230.445 54.3063 230.654 54.4588C230.866 54.608 231.135 54.6825 231.459 54.6825ZM236.796 58.8636V48.3636H238.884V49.6463H238.979C239.072 49.4408 239.206 49.232 239.382 49.0199C239.561 48.8045 239.793 48.6255 240.078 48.483C240.366 48.3371 240.724 48.2642 241.151 48.2642C241.708 48.2642 242.222 48.41 242.693 48.7017C243.163 48.9901 243.539 49.4259 243.821 50.0092C244.103 50.5893 244.244 51.3168 244.244 52.1918C244.244 53.0436 244.106 53.7628 243.831 54.3494C243.559 54.9328 243.188 55.3752 242.718 55.6768C242.25 55.9751 241.727 56.1243 241.146 56.1243C240.735 56.1243 240.386 56.0563 240.097 55.9205C239.812 55.7846 239.579 55.6139 239.396 55.4084C239.214 55.1996 239.075 54.9891 238.979 54.777H238.914V58.8636H236.796ZM238.869 52.1818C238.869 52.6359 238.932 53.032 239.058 53.37C239.184 53.7081 239.367 53.9716 239.605 54.1605C239.844 54.3461 240.134 54.4389 240.475 54.4389C240.82 54.4389 241.112 54.3445 241.35 54.1555C241.589 53.9633 241.77 53.6982 241.892 53.3601C242.018 53.0187 242.081 52.6259 242.081 52.1818C242.081 51.741 242.02 51.3532 241.897 51.0185C241.775 50.6837 241.594 50.4219 241.355 50.233C241.117 50.044 240.823 49.9496 240.475 49.9496C240.131 49.9496 239.839 50.0407 239.6 50.223C239.365 50.4053 239.184 50.6638 239.058 50.9986C238.932 51.3333 238.869 51.7277 238.869 52.1818ZM252.958 48.3636V49.9545H248.359V48.3636H252.958ZM249.403 46.5341H251.521V53.6534C251.521 53.849 251.551 54.0014 251.61 54.1108C251.67 54.2169 251.753 54.2914 251.859 54.3345C251.968 54.3776 252.094 54.3991 252.237 54.3991C252.336 54.3991 252.436 54.3909 252.535 54.3743C252.635 54.3544 252.711 54.3395 252.764 54.3295L253.097 55.9055C252.991 55.9387 252.842 55.9768 252.65 56.0199C252.457 56.0663 252.224 56.0945 251.949 56.1044C251.438 56.1243 250.991 56.0563 250.606 55.9006C250.225 55.7448 249.928 55.5028 249.716 55.1747C249.504 54.8466 249.4 54.4323 249.403 53.9318V46.5341ZM256.619 51.5852V56H254.501V45.8182H256.56V49.7109H256.649C256.821 49.2602 257.1 48.9072 257.484 48.652C257.869 48.3935 258.351 48.2642 258.931 48.2642C259.461 48.2642 259.924 48.3802 260.318 48.6122C260.716 48.8409 261.024 49.1707 261.243 49.6016C261.465 50.0291 261.574 50.5412 261.571 51.1378V56H259.453V51.5156C259.456 51.045 259.337 50.6787 259.095 50.4169C258.857 50.1551 258.522 50.0241 258.091 50.0241C257.803 50.0241 257.547 50.0855 257.325 50.2081C257.107 50.3307 256.934 50.5097 256.808 50.745C256.686 50.977 256.623 51.2571 256.619 51.5852ZM266.718 56.1491C265.932 56.1491 265.256 55.9901 264.689 55.6719C264.126 55.3504 263.692 54.8963 263.387 54.3097C263.082 53.7197 262.93 53.022 262.93 52.2166C262.93 51.4311 263.082 50.7417 263.387 50.1484C263.692 49.5552 264.121 49.0928 264.675 48.7614C265.231 48.4299 265.884 48.2642 266.633 48.2642C267.137 48.2642 267.606 48.3454 268.04 48.5078C268.478 48.6669 268.859 48.9072 269.184 49.2287C269.512 49.5502 269.767 49.9545 269.949 50.4418C270.132 50.9257 270.223 51.4924 270.223 52.142V52.7237H263.775V51.4112H268.229C268.229 51.1063 268.163 50.8362 268.03 50.6009C267.898 50.3655 267.714 50.1816 267.479 50.049C267.247 49.9131 266.976 49.8452 266.668 49.8452C266.347 49.8452 266.062 49.9197 265.813 50.0689C265.568 50.2147 265.376 50.4119 265.236 50.6605C265.097 50.9058 265.026 51.1792 265.023 51.4808V52.7287C265.023 53.1065 265.092 53.433 265.231 53.7081C265.374 53.9832 265.574 54.1953 265.833 54.3445C266.091 54.4936 266.398 54.5682 266.753 54.5682C266.988 54.5682 267.203 54.535 267.399 54.4688C267.595 54.4025 267.762 54.303 267.901 54.1705C268.04 54.0379 268.146 53.8755 268.219 53.6832L270.178 53.8125C270.079 54.2831 269.875 54.6941 269.567 55.0455C269.262 55.3935 268.867 55.6652 268.383 55.8608C267.903 56.053 267.348 56.1491 266.718 56.1491ZM294.497 56.1491C293.724 56.1491 293.057 55.9851 292.493 55.657C291.933 55.3255 291.5 54.8648 291.195 54.2749C290.891 53.6816 290.738 52.9938 290.738 52.2116C290.738 51.4228 290.891 50.7334 291.195 50.1435C291.5 49.5502 291.933 49.0895 292.493 48.7614C293.057 48.4299 293.724 48.2642 294.497 48.2642C295.269 48.2642 295.935 48.4299 296.495 48.7614C297.059 49.0895 297.493 49.5502 297.798 50.1435C298.103 50.7334 298.255 51.4228 298.255 52.2116C298.255 52.9938 298.103 53.6816 297.798 54.2749C297.493 54.8648 297.059 55.3255 296.495 55.657C295.935 55.9851 295.269 56.1491 294.497 56.1491ZM294.507 54.5085C294.858 54.5085 295.151 54.4091 295.387 54.2102C295.622 54.008 295.799 53.733 295.919 53.3849C296.041 53.0369 296.102 52.6409 296.102 52.1967C296.102 51.7526 296.041 51.3565 295.919 51.0085C295.799 50.6605 295.622 50.3854 295.387 50.1832C295.151 49.9811 294.858 49.88 294.507 49.88C294.152 49.88 293.854 49.9811 293.612 50.1832C293.373 50.3854 293.192 50.6605 293.07 51.0085C292.95 51.3565 292.891 51.7526 292.891 52.1967C292.891 52.6409 292.95 53.0369 293.07 53.3849C293.192 53.733 293.373 54.008 293.612 54.2102C293.854 54.4091 294.152 54.5085 294.507 54.5085ZM301.75 51.5852V56H299.632V48.3636H301.651V49.7109H301.74C301.909 49.2668 302.193 48.9155 302.59 48.657C302.988 48.3951 303.47 48.2642 304.037 48.2642C304.567 48.2642 305.03 48.3802 305.424 48.6122C305.819 48.8442 306.125 49.1757 306.344 49.6065C306.563 50.0341 306.672 50.5445 306.672 51.1378V56H304.554V51.5156C304.557 51.0483 304.438 50.6837 304.196 50.4219C303.954 50.1567 303.621 50.0241 303.197 50.0241C302.912 50.0241 302.66 50.0855 302.441 50.2081C302.226 50.3307 302.057 50.5097 301.934 50.745C301.815 50.977 301.753 51.2571 301.75 51.5852ZM315.643 48.3636V49.9545H311.045V48.3636H315.643ZM312.089 46.5341H314.206V53.6534C314.206 53.849 314.236 54.0014 314.296 54.1108C314.356 54.2169 314.439 54.2914 314.545 54.3345C314.654 54.3776 314.78 54.3991 314.922 54.3991C315.022 54.3991 315.121 54.3909 315.221 54.3743C315.32 54.3544 315.396 54.3395 315.449 54.3295L315.782 55.9055C315.676 55.9387 315.527 55.9768 315.335 56.0199C315.143 56.0663 314.909 56.0945 314.634 56.1044C314.124 56.1243 313.676 56.0563 313.292 55.9006C312.911 55.7448 312.614 55.5028 312.402 55.1747C312.19 54.8466 312.085 54.4323 312.089 53.9318V46.5341ZM319.305 51.5852V56H317.187V45.8182H319.245V49.7109H319.335C319.507 49.2602 319.785 48.9072 320.17 48.652C320.554 48.3935 321.037 48.2642 321.617 48.2642C322.147 48.2642 322.609 48.3802 323.004 48.6122C323.401 48.8409 323.71 49.1707 323.928 49.6016C324.151 50.0291 324.26 50.5412 324.257 51.1378V56H322.139V51.5156C322.142 51.045 322.023 50.6787 321.781 50.4169C321.542 50.1551 321.207 50.0241 320.776 50.0241C320.488 50.0241 320.233 50.0855 320.011 50.2081C319.792 50.3307 319.62 50.5097 319.494 50.745C319.371 50.977 319.308 51.2571 319.305 51.5852ZM329.403 56.1491C328.618 56.1491 327.942 55.9901 327.375 55.6719C326.812 55.3504 326.377 54.8963 326.072 54.3097C325.768 53.7197 325.615 53.022 325.615 52.2166C325.615 51.4311 325.768 50.7417 326.072 50.1484C326.377 49.5552 326.807 49.0928 327.36 48.7614C327.917 48.4299 328.57 48.2642 329.319 48.2642C329.823 48.2642 330.292 48.3454 330.726 48.5078C331.163 48.6669 331.545 48.9072 331.869 49.2287C332.197 49.5502 332.453 49.9545 332.635 50.4418C332.817 50.9257 332.908 51.4924 332.908 52.142V52.7237H326.46V51.4112H330.915C330.915 51.1063 330.848 50.8362 330.716 50.6009C330.583 50.3655 330.399 50.1816 330.164 50.049C329.932 49.9131 329.662 49.8452 329.354 49.8452C329.032 49.8452 328.747 49.9197 328.499 50.0689C328.253 50.2147 328.061 50.4119 327.922 50.6605C327.783 50.9058 327.711 51.1792 327.708 51.4808V52.7287C327.708 53.1065 327.778 53.433 327.917 53.7081C328.059 53.9832 328.26 54.1953 328.518 54.3445C328.777 54.4936 329.084 54.5682 329.438 54.5682C329.674 54.5682 329.889 54.535 330.085 54.4688C330.28 54.4025 330.447 54.303 330.587 54.1705C330.726 54.0379 330.832 53.8755 330.905 53.6832L332.864 53.8125C332.764 54.2831 332.56 54.6941 332.252 55.0455C331.947 55.3935 331.553 55.6652 331.069 55.8608C330.588 56.053 330.033 56.1491 329.403 56.1491ZM337.57 56V45.8182H339.688V49.6463H339.753C339.846 49.4408 339.98 49.232 340.156 49.0199C340.335 48.8045 340.567 48.6255 340.852 48.483C341.14 48.3371 341.498 48.2642 341.926 48.2642C342.482 48.2642 342.996 48.41 343.467 48.7017C343.937 48.9901 344.314 49.4259 344.595 50.0092C344.877 50.5893 345.018 51.3168 345.018 52.1918C345.018 53.0436 344.88 53.7628 344.605 54.3494C344.334 54.9328 343.962 55.3752 343.492 55.6768C343.024 55.9751 342.501 56.1243 341.921 56.1243C341.51 56.1243 341.16 56.0563 340.872 55.9205C340.587 55.7846 340.353 55.6139 340.171 55.4084C339.988 55.1996 339.849 54.9891 339.753 54.777H339.659V56H337.57ZM339.644 52.1818C339.644 52.6359 339.707 53.032 339.833 53.37C339.959 53.7081 340.141 53.9716 340.379 54.1605C340.618 54.3461 340.908 54.4389 341.249 54.4389C341.594 54.4389 341.886 54.3445 342.124 54.1555C342.363 53.9633 342.544 53.6982 342.666 53.3601C342.792 53.0187 342.855 52.6259 342.855 52.1818C342.855 51.741 342.794 51.3532 342.671 51.0185C342.549 50.6837 342.368 50.4219 342.129 50.233C341.891 50.044 341.597 49.9496 341.249 49.9496C340.905 49.9496 340.613 50.0407 340.374 50.223C340.139 50.4053 339.959 50.6638 339.833 50.9986C339.707 51.3333 339.644 51.7277 339.644 52.1818ZM351.328 52.7486V48.3636H353.446V56H351.413V54.6129H351.333C351.161 55.0604 350.874 55.42 350.473 55.6918C350.075 55.9635 349.59 56.0994 349.016 56.0994C348.506 56.0994 348.057 55.9834 347.669 55.7514C347.281 55.5194 346.978 55.1896 346.759 54.7621C346.544 54.3345 346.434 53.8224 346.431 53.2259V48.3636H348.549V52.848C348.552 53.2988 348.673 53.6551 348.912 53.9169C349.151 54.1787 349.47 54.3097 349.871 54.3097C350.127 54.3097 350.365 54.2517 350.587 54.1357C350.809 54.0163 350.988 53.8407 351.124 53.6087C351.263 53.3767 351.331 53.09 351.328 52.7486ZM359.202 48.3636V49.9545H354.603V48.3636H359.202ZM355.647 46.5341H357.765V53.6534C357.765 53.849 357.795 54.0014 357.855 54.1108C357.914 54.2169 357.997 54.2914 358.103 54.3345C358.213 54.3776 358.338 54.3991 358.481 54.3991C358.58 54.3991 358.68 54.3909 358.779 54.3743C358.879 54.3544 358.955 54.3395 359.008 54.3295L359.341 55.9055C359.235 55.9387 359.086 55.9768 358.894 56.0199C358.701 56.0663 358.468 56.0945 358.193 56.1044C357.682 56.1243 357.235 56.0563 356.85 55.9006C356.469 55.7448 356.173 55.5028 355.96 55.1747C355.748 54.8466 355.644 54.4323 355.647 53.9318V46.5341ZM364.643 48.3636V49.9545H360.045V48.3636H364.643ZM361.089 46.5341H363.206V53.6534C363.206 53.849 363.236 54.0014 363.296 54.1108C363.356 54.2169 363.439 54.2914 363.545 54.3345C363.654 54.3776 363.78 54.3991 363.922 54.3991C364.022 54.3991 364.121 54.3909 364.221 54.3743C364.32 54.3544 364.396 54.3395 364.449 54.3295L364.782 55.9055C364.676 55.9387 364.527 55.9768 364.335 56.0199C364.143 56.0663 363.909 56.0945 363.634 56.1044C363.124 56.1243 362.676 56.0563 362.292 55.9006C361.911 55.7448 361.614 55.5028 361.402 55.1747C361.19 54.8466 361.085 54.4323 361.089 53.9318V46.5341ZM369.391 56.1491C368.619 56.1491 367.951 55.9851 367.388 55.657C366.827 55.3255 366.395 54.8648 366.09 54.2749C365.785 53.6816 365.633 52.9938 365.633 52.2116C365.633 51.4228 365.785 50.7334 366.09 50.1435C366.395 49.5502 366.827 49.0895 367.388 48.7614C367.951 48.4299 368.619 48.2642 369.391 48.2642C370.163 48.2642 370.83 48.4299 371.39 48.7614C371.953 49.0895 372.387 49.5502 372.692 50.1435C372.997 50.7334 373.15 51.4228 373.15 52.2116C373.15 52.9938 372.997 53.6816 372.692 54.2749C372.387 54.8648 371.953 55.3255 371.39 55.657C370.83 55.9851 370.163 56.1491 369.391 56.1491ZM369.401 54.5085C369.752 54.5085 370.046 54.4091 370.281 54.2102C370.516 54.008 370.694 53.733 370.813 53.3849C370.936 53.0369 370.997 52.6409 370.997 52.1967C370.997 51.7526 370.936 51.3565 370.813 51.0085C370.694 50.6605 370.516 50.3854 370.281 50.1832C370.046 49.9811 369.752 49.88 369.401 49.88C369.046 49.88 368.748 49.9811 368.506 50.1832C368.268 50.3854 368.087 50.6605 367.964 51.0085C367.845 51.3565 367.785 51.7526 367.785 52.1967C367.785 52.6409 367.845 53.0369 367.964 53.3849C368.087 53.733 368.268 54.008 368.506 54.2102C368.748 54.4091 369.046 54.5085 369.401 54.5085ZM376.645 51.5852V56H374.527V48.3636H376.545V49.7109H376.635C376.804 49.2668 377.087 48.9155 377.485 48.657C377.883 48.3951 378.365 48.2642 378.932 48.2642C379.462 48.2642 379.924 48.3802 380.319 48.6122C380.713 48.8442 381.02 49.1757 381.238 49.6065C381.457 50.0341 381.567 50.5445 381.567 51.1378V56H379.449V51.5156C379.452 51.0483 379.333 50.6837 379.091 50.4219C378.849 50.1567 378.516 50.0241 378.091 50.0241C377.806 50.0241 377.555 50.0855 377.336 50.2081C377.12 50.3307 376.951 50.5097 376.829 50.745C376.709 50.977 376.648 51.2571 376.645 51.5852Z" fill="black"/>
<path d="M281 56C283.735 56 286 53.7304 286 51C286 48.2647 283.73 46 280.995 46C278.265 46 276 48.2647 276 51C276 53.7304 278.27 56 281 56ZM281 55.1666C278.686 55.1666 276.838 53.3137 276.838 51C276.838 48.6863 278.681 46.8333 280.995 46.8333C283.309 46.8333 285.167 48.6863 285.167 51C285.167 53.3137 283.314 55.1666 281 55.1666ZM280.897 52.0147C281.142 52.0147 281.294 51.8578 281.294 51.6667C281.294 51.6471 281.294 51.6226 281.294 51.6078C281.294 51.3333 281.451 51.1568 281.794 50.9314C282.27 50.6176 282.608 50.3333 282.608 49.7451C282.608 48.9314 281.882 48.4902 281.049 48.4902C280.206 48.4902 279.652 48.8922 279.52 49.3431C279.495 49.4216 279.48 49.5 279.48 49.5833C279.48 49.8039 279.652 49.9216 279.814 49.9216C279.98 49.9216 280.088 49.8431 280.176 49.7255L280.265 49.6078C280.436 49.3235 280.691 49.1569 281.02 49.1569C281.466 49.1569 281.755 49.4118 281.755 49.7843C281.755 50.1176 281.549 50.2794 281.123 50.5784C280.77 50.8235 280.505 51.0834 280.505 51.5637C280.505 51.5833 280.505 51.6078 280.505 51.6274C280.505 51.8824 280.647 52.0147 280.897 52.0147ZM280.887 53.4755C281.172 53.4755 281.417 53.25 281.417 52.9657C281.417 52.6813 281.176 52.4559 280.887 52.4559C280.598 52.4559 280.358 52.6863 280.358 52.9657C280.358 53.2451 280.603 53.4755 280.887 53.4755Z" fill="black" fill-opacity="0.85"/>
</svg>
