<svg width="403" height="97" viewBox="0 0 403 97" fill="none" xmlns="http://www.w3.org/2000/svg">
<path d="M0 0H104C109.523 0 114 4.47715 114 10V87C114 92.5228 109.523 97 104 97H0V0Z" fill="#A839FF"/>
<circle cx="38.7546" cy="34.7546" r="7.75459" fill="black"/>
<circle cx="88.9748" cy="34.7546" r="7.75459" fill="black"/>
<path d="M63.9761 70.0195C71.9601 70.0195 71.9887 58.7569 71.9887 58.7569H56.1102C56.1102 58.7569 55.9921 70.0195 63.9761 70.0195Z" fill="white"/>
<path d="M143.935 23.817C146.051 16.8009 152.515 12 159.843 12H386.383C395.56 12 403 19.4397 403 28.617V53.383C403 62.5603 395.56 70 386.383 70H140.097C135.068 70 131.464 65.1481 132.917 60.3335L143.935 23.817Z" fill="#D9D9D9"/>
<path d="M160.159 30.593V28.8182H168.521V30.593H165.404V39H163.276V30.593H160.159ZM171.977 34.5852V39H169.859V28.8182H171.917V32.7109H172.007C172.179 32.2602 172.457 31.9072 172.842 31.652C173.226 31.3935 173.709 31.2642 174.289 31.2642C174.819 31.2642 175.281 31.3802 175.676 31.6122C176.073 31.8409 176.382 32.1707 176.6 32.6016C176.822 33.0291 176.932 33.5412 176.928 34.1378V39H174.811V34.5156C174.814 34.045 174.695 33.6787 174.453 33.4169C174.214 33.1551 173.879 33.0241 173.448 33.0241C173.16 33.0241 172.905 33.0855 172.683 33.2081C172.464 33.3307 172.292 33.5097 172.166 33.745C172.043 33.977 171.98 34.2571 171.977 34.5852ZM182.075 39.1491C181.29 39.1491 180.614 38.9901 180.047 38.6719C179.483 38.3504 179.049 37.8963 178.744 37.3097C178.439 36.7197 178.287 36.022 178.287 35.2166C178.287 34.4311 178.439 33.7417 178.744 33.1484C179.049 32.5552 179.478 32.0928 180.032 31.7614C180.589 31.4299 181.242 31.2642 181.991 31.2642C182.495 31.2642 182.964 31.3454 183.398 31.5078C183.835 31.6669 184.216 31.9072 184.541 32.2287C184.869 32.5502 185.125 32.9545 185.307 33.4418C185.489 33.9257 185.58 34.4924 185.58 35.142V35.7237H179.132V34.4112H183.587C183.587 34.1063 183.52 33.8362 183.388 33.6009C183.255 33.3655 183.071 33.1816 182.836 33.049C182.604 32.9131 182.334 32.8452 182.026 32.8452C181.704 32.8452 181.419 32.9197 181.17 33.0689C180.925 33.2147 180.733 33.4119 180.594 33.6605C180.455 33.9058 180.383 34.1792 180.38 34.4808V35.7287C180.38 36.1065 180.45 36.433 180.589 36.7081C180.731 36.9832 180.932 37.1953 181.19 37.3445C181.449 37.4936 181.755 37.5682 182.11 37.5682C182.345 37.5682 182.561 37.535 182.756 37.4688C182.952 37.4025 183.119 37.303 183.259 37.1705C183.398 37.0379 183.504 36.8755 183.577 36.6832L185.536 36.8125C185.436 37.2831 185.232 37.6941 184.924 38.0455C184.619 38.3935 184.225 38.6652 183.741 38.8608C183.26 39.053 182.705 39.1491 182.075 39.1491ZM193.603 40.2727V27.5455H194.419V40.2727H193.603ZM195.766 31.7464C195.726 31.3454 195.555 31.0339 195.254 30.8118C194.952 30.5897 194.543 30.4787 194.026 30.4787C193.674 30.4787 193.378 30.5284 193.136 30.6278C192.894 30.724 192.708 30.8582 192.579 31.0305C192.453 31.2029 192.39 31.3984 192.39 31.6172C192.383 31.7995 192.422 31.9586 192.504 32.0945C192.591 32.2304 192.708 32.348 192.857 32.4474C193.007 32.5436 193.179 32.6281 193.374 32.701C193.57 32.7706 193.779 32.8303 194.001 32.88L194.916 33.0987C195.36 33.1982 195.767 33.3307 196.139 33.4964C196.51 33.6622 196.831 33.866 197.103 34.108C197.375 34.3499 197.585 34.6349 197.735 34.9631C197.887 35.2912 197.965 35.6674 197.968 36.0916C197.965 36.7147 197.806 37.255 197.491 37.7124C197.179 38.1664 196.729 38.5194 196.139 38.7713C195.552 39.0199 194.844 39.1442 194.016 39.1442C193.194 39.1442 192.478 39.0182 191.868 38.7663C191.262 38.5144 190.788 38.1416 190.446 37.6477C190.108 37.1506 189.931 36.5357 189.914 35.8033H191.997C192.021 36.1446 192.118 36.4297 192.291 36.6584C192.466 36.8838 192.7 37.0545 192.992 37.1705C193.287 37.2831 193.62 37.3395 193.991 37.3395C194.356 37.3395 194.672 37.2865 194.941 37.1804C195.212 37.0743 195.423 36.9268 195.572 36.7379C195.721 36.549 195.796 36.3319 195.796 36.0866C195.796 35.858 195.728 35.6657 195.592 35.5099C195.459 35.3542 195.264 35.2216 195.005 35.1122C194.75 35.0028 194.437 34.9034 194.066 34.8139L192.957 34.5355C192.098 34.3267 191.421 34.0002 190.923 33.5561C190.426 33.112 190.179 32.5137 190.183 31.7614C190.179 31.1449 190.343 30.6063 190.675 30.1456C191.01 29.6849 191.469 29.3253 192.052 29.0668C192.635 28.8082 193.298 28.679 194.041 28.679C194.796 28.679 195.456 28.8082 196.019 29.0668C196.586 29.3253 197.027 29.6849 197.342 30.1456C197.657 30.6063 197.819 31.1399 197.829 31.7464H195.766ZM203.349 39.2237C202.494 39.2204 201.758 39.0099 201.141 38.5923C200.528 38.1747 200.056 37.5698 199.724 36.7777C199.396 35.9856 199.234 35.0327 199.237 33.919C199.237 32.8087 199.401 31.8625 199.729 31.0803C200.061 30.2981 200.533 29.7031 201.146 29.2955C201.763 28.8845 202.497 28.679 203.349 28.679C204.201 28.679 204.933 28.8845 205.546 29.2955C206.163 29.7064 206.637 30.303 206.968 31.0852C207.299 31.8641 207.464 32.8087 207.46 33.919C207.46 35.036 207.295 35.9905 206.963 36.7827C206.635 37.5748 206.164 38.1797 205.551 38.5973C204.938 39.0149 204.204 39.2237 203.349 39.2237ZM203.349 37.4389C203.932 37.4389 204.398 37.1456 204.746 36.5589C205.094 35.9723 205.266 35.0923 205.263 33.919C205.263 33.1468 205.183 32.5038 205.024 31.9901C204.868 31.4763 204.646 31.0902 204.358 30.8317C204.073 30.5732 203.737 30.4439 203.349 30.4439C202.769 30.4439 202.305 30.7339 201.957 31.3139C201.609 31.8939 201.433 32.7623 201.43 33.919C201.43 34.7012 201.508 35.3542 201.663 35.8778C201.822 36.3982 202.046 36.7893 202.335 37.0511C202.623 37.3097 202.961 37.4389 203.349 37.4389ZM212.255 39V31.3636H214.309V32.696H214.388C214.527 32.2221 214.761 31.8641 215.089 31.6222C215.417 31.3769 215.795 31.2543 216.223 31.2543C216.329 31.2543 216.443 31.2609 216.566 31.2741C216.688 31.2874 216.796 31.3056 216.889 31.3288V33.2081C216.789 33.1783 216.652 33.1518 216.476 33.1286C216.301 33.1054 216.14 33.0938 215.994 33.0938C215.682 33.0938 215.404 33.1617 215.159 33.2976C214.917 33.4302 214.725 33.6158 214.582 33.8544C214.443 34.093 214.373 34.3681 214.373 34.6797V39H212.255ZM221.108 39.1491C220.323 39.1491 219.647 38.9901 219.08 38.6719C218.517 38.3504 218.082 37.8963 217.778 37.3097C217.473 36.7197 217.32 36.022 217.32 35.2166C217.32 34.4311 217.473 33.7417 217.778 33.1484C218.082 32.5552 218.512 32.0928 219.065 31.7614C219.622 31.4299 220.275 31.2642 221.024 31.2642C221.528 31.2642 221.997 31.3454 222.431 31.5078C222.868 31.6669 223.25 31.9072 223.574 32.2287C223.903 32.5502 224.158 32.9545 224.34 33.4418C224.522 33.9257 224.613 34.4924 224.613 35.142V35.7237H218.165V34.4112H222.62C222.62 34.1063 222.554 33.8362 222.421 33.6009C222.288 33.3655 222.104 33.1816 221.869 33.049C221.637 32.9131 221.367 32.8452 221.059 32.8452C220.737 32.8452 220.452 32.9197 220.204 33.0689C219.958 33.2147 219.766 33.4119 219.627 33.6605C219.488 33.9058 219.416 34.1792 219.413 34.4808V35.7287C219.413 36.1065 219.483 36.433 219.622 36.7081C219.765 36.9832 219.965 37.1953 220.224 37.3445C220.482 37.4936 220.789 37.5682 221.143 37.5682C221.379 37.5682 221.594 37.535 221.79 37.4688C221.985 37.4025 222.153 37.303 222.292 37.1705C222.431 37.0379 222.537 36.8755 222.61 36.6832L224.569 36.8125C224.469 37.2831 224.265 37.6941 223.957 38.0455C223.652 38.3935 223.258 38.6652 222.774 38.8608C222.293 39.053 221.738 39.1491 221.108 39.1491ZM229.436 42.0227C228.75 42.0227 228.162 41.9283 227.671 41.7393C227.184 41.5537 226.796 41.3002 226.508 40.9787C226.219 40.6572 226.032 40.2959 225.946 39.8949L227.905 39.6314C227.964 39.7839 228.059 39.9264 228.188 40.0589C228.317 40.1915 228.488 40.2976 228.7 40.3771C228.916 40.46 229.177 40.5014 229.486 40.5014C229.946 40.5014 230.326 40.3887 230.624 40.1634C230.926 39.9413 231.077 39.5684 231.077 39.0447V37.6477H230.987C230.894 37.8598 230.755 38.0604 230.569 38.2493C230.384 38.4382 230.145 38.5923 229.854 38.7116C229.562 38.831 229.214 38.8906 228.809 38.8906C228.236 38.8906 227.714 38.758 227.243 38.4929C226.776 38.2244 226.403 37.8151 226.125 37.2649C225.85 36.7114 225.712 36.0121 225.712 35.1669C225.712 34.3018 225.853 33.5793 226.135 32.9993C226.416 32.4193 226.791 31.9851 227.258 31.6967C227.729 31.4084 228.244 31.2642 228.805 31.2642C229.232 31.2642 229.59 31.3371 229.878 31.483C230.167 31.6255 230.399 31.8045 230.574 32.0199C230.753 32.232 230.891 32.4408 230.987 32.6463H231.067V31.3636H233.17V39.0746C233.17 39.7242 233.01 40.2678 232.692 40.7053C232.374 41.1428 231.933 41.4709 231.37 41.6896C230.81 41.9117 230.165 42.0227 229.436 42.0227ZM229.481 37.2997C229.822 37.2997 230.11 37.2152 230.346 37.0462C230.584 36.8738 230.767 36.6286 230.893 36.3104C231.022 35.9889 231.086 35.6044 231.086 35.157C231.086 34.7095 231.023 34.3217 230.898 33.9936C230.772 33.6622 230.589 33.4053 230.351 33.223C230.112 33.0407 229.822 32.9496 229.481 32.9496C229.133 32.9496 228.839 33.044 228.601 33.233C228.362 33.4186 228.181 33.6771 228.059 34.0085C227.936 34.34 227.875 34.7228 227.875 35.157C227.875 35.5978 227.936 35.9789 228.059 36.3004C228.185 36.6186 228.365 36.8655 228.601 37.0412C228.839 37.2135 229.133 37.2997 229.481 37.2997ZM234.855 39V31.3636H236.973V39H234.855ZM235.919 30.3793C235.604 30.3793 235.334 30.2749 235.108 30.0661C234.886 29.8539 234.775 29.6004 234.775 29.3054C234.775 29.0137 234.886 28.7635 235.108 28.5547C235.334 28.3426 235.604 28.2365 235.919 28.2365C236.234 28.2365 236.502 28.3426 236.724 28.5547C236.95 28.7635 237.062 29.0137 237.062 29.3054C237.062 29.6004 236.95 29.8539 236.724 30.0661C236.502 30.2749 236.234 30.3793 235.919 30.3793ZM245.023 33.5412L243.084 33.6605C243.051 33.4948 242.98 33.3456 242.87 33.2131C242.761 33.0772 242.617 32.9695 242.438 32.8899C242.262 32.8071 242.052 32.7656 241.806 32.7656C241.478 32.7656 241.202 32.8352 240.976 32.9744C240.751 33.1103 240.638 33.2926 240.638 33.5213C240.638 33.7036 240.711 33.8577 240.857 33.9837C241.003 34.1096 241.253 34.2107 241.608 34.2869L242.99 34.5653C243.732 34.7178 244.286 34.9631 244.65 35.3011C245.015 35.6392 245.197 36.0833 245.197 36.6335C245.197 37.134 245.05 37.5732 244.755 37.951C244.463 38.3288 244.062 38.6238 243.551 38.8359C243.044 39.0447 242.459 39.1491 241.797 39.1491C240.786 39.1491 239.98 38.9387 239.38 38.5178C238.784 38.0935 238.434 37.5168 238.331 36.7876L240.414 36.6783C240.477 36.9865 240.63 37.2218 240.872 37.3842C241.114 37.5433 241.424 37.6229 241.801 37.6229C242.173 37.6229 242.471 37.5516 242.696 37.4091C242.925 37.2633 243.041 37.076 243.044 36.8473C243.041 36.6551 242.96 36.4976 242.801 36.375C242.642 36.2491 242.396 36.1529 242.065 36.0866L240.743 35.8232C239.997 35.674 239.442 35.4155 239.077 35.0476C238.716 34.6797 238.535 34.2107 238.535 33.6406C238.535 33.1501 238.668 32.7275 238.933 32.3729C239.201 32.0182 239.578 31.7448 240.061 31.5526C240.549 31.3603 241.119 31.2642 241.772 31.2642C242.736 31.2642 243.495 31.468 244.049 31.8757C244.605 32.2834 244.93 32.8385 245.023 33.5412ZM250.593 31.3636V32.9545H245.994V31.3636H250.593ZM247.038 29.5341H249.156V36.6534C249.156 36.849 249.186 37.0014 249.245 37.1108C249.305 37.2169 249.388 37.2914 249.494 37.3345C249.603 37.3776 249.729 37.3991 249.872 37.3991C249.971 37.3991 250.07 37.3909 250.17 37.3743C250.269 37.3544 250.346 37.3395 250.399 37.3295L250.732 38.9055C250.626 38.9387 250.477 38.9768 250.284 39.0199C250.092 39.0663 249.858 39.0945 249.583 39.1044C249.073 39.1243 248.625 39.0563 248.241 38.9006C247.86 38.7448 247.563 38.5028 247.351 38.1747C247.139 37.8466 247.035 37.4323 247.038 36.9318V29.5341ZM255.37 39.1491C254.585 39.1491 253.909 38.9901 253.342 38.6719C252.778 38.3504 252.344 37.8963 252.039 37.3097C251.734 36.7197 251.582 36.022 251.582 35.2166C251.582 34.4311 251.734 33.7417 252.039 33.1484C252.344 32.5552 252.773 32.0928 253.327 31.7614C253.884 31.4299 254.537 31.2642 255.286 31.2642C255.789 31.2642 256.258 31.3454 256.693 31.5078C257.13 31.6669 257.511 31.9072 257.836 32.2287C258.164 32.5502 258.419 32.9545 258.602 33.4418C258.784 33.9257 258.875 34.4924 258.875 35.142V35.7237H252.427V34.4112H256.882C256.882 34.1063 256.815 33.8362 256.683 33.6009C256.55 33.3655 256.366 33.1816 256.131 33.049C255.899 32.9131 255.629 32.8452 255.32 32.8452C254.999 32.8452 254.714 32.9197 254.465 33.0689C254.22 33.2147 254.028 33.4119 253.889 33.6605C253.749 33.9058 253.678 34.1792 253.675 34.4808V35.7287C253.675 36.1065 253.744 36.433 253.884 36.7081C254.026 36.9832 254.227 37.1953 254.485 37.3445C254.744 37.4936 255.05 37.5682 255.405 37.5682C255.64 37.5682 255.856 37.535 256.051 37.4688C256.247 37.4025 256.414 37.303 256.553 37.1705C256.693 37.0379 256.799 36.8755 256.872 36.6832L258.83 36.8125C258.731 37.2831 258.527 37.6941 258.219 38.0455C257.914 38.3935 257.52 38.6652 257.036 38.8608C256.555 39.053 256 39.1491 255.37 39.1491ZM260.257 39V31.3636H262.311V32.696H262.39C262.529 32.2221 262.763 31.8641 263.091 31.6222C263.419 31.3769 263.797 31.2543 264.225 31.2543C264.331 31.2543 264.445 31.2609 264.568 31.2741C264.69 31.2874 264.798 31.3056 264.891 31.3288V33.2081C264.791 33.1783 264.654 33.1518 264.478 33.1286C264.302 33.1054 264.142 33.0938 263.996 33.0938C263.684 33.0938 263.406 33.1617 263.161 33.2976C262.919 33.4302 262.727 33.6158 262.584 33.8544C262.445 34.093 262.375 34.3681 262.375 34.6797V39H260.257ZM269.226 39V31.3636H271.344V39H269.226ZM270.29 30.3793C269.975 30.3793 269.705 30.2749 269.48 30.0661C269.258 29.8539 269.146 29.6004 269.146 29.3054C269.146 29.0137 269.258 28.7635 269.48 28.5547C269.705 28.3426 269.975 28.2365 270.29 28.2365C270.605 28.2365 270.873 28.3426 271.095 28.5547C271.321 28.7635 271.433 29.0137 271.433 29.3054C271.433 29.6004 271.321 29.8539 271.095 30.0661C270.873 30.2749 270.605 30.3793 270.29 30.3793ZM279.394 33.5412L277.455 33.6605C277.422 33.4948 277.351 33.3456 277.241 33.2131C277.132 33.0772 276.988 32.9695 276.809 32.8899C276.633 32.8071 276.423 32.7656 276.178 32.7656C275.849 32.7656 275.573 32.8352 275.347 32.9744C275.122 33.1103 275.009 33.2926 275.009 33.5213C275.009 33.7036 275.082 33.8577 275.228 33.9837C275.374 34.1096 275.624 34.2107 275.979 34.2869L277.361 34.5653C278.103 34.7178 278.657 34.9631 279.021 35.3011C279.386 35.6392 279.568 36.0833 279.568 36.6335C279.568 37.134 279.421 37.5732 279.126 37.951C278.834 38.3288 278.433 38.6238 277.923 38.8359C277.415 39.0447 276.83 39.1491 276.168 39.1491C275.157 39.1491 274.351 38.9387 273.751 38.5178C273.155 38.0935 272.805 37.5168 272.702 36.7876L274.786 36.6783C274.848 36.9865 275.001 37.2218 275.243 37.3842C275.485 37.5433 275.795 37.6229 276.173 37.6229C276.544 37.6229 276.842 37.5516 277.067 37.4091C277.296 37.2633 277.412 37.076 277.415 36.8473C277.412 36.6551 277.331 36.4976 277.172 36.375C277.013 36.2491 276.768 36.1529 276.436 36.0866L275.114 35.8232C274.368 35.674 273.813 35.4155 273.448 35.0476C273.087 34.6797 272.906 34.2107 272.906 33.6406C272.906 33.1501 273.039 32.7275 273.304 32.3729C273.572 32.0182 273.949 31.7448 274.433 31.5526C274.92 31.3603 275.49 31.2642 276.143 31.2642C277.107 31.2642 277.866 31.468 278.42 31.8757C278.977 32.2834 279.301 32.8385 279.394 33.5412ZM284.142 39V31.3636H286.195V32.696H286.275C286.414 32.2221 286.648 31.8641 286.976 31.6222C287.304 31.3769 287.682 31.2543 288.109 31.2543C288.215 31.2543 288.33 31.2609 288.452 31.2741C288.575 31.2874 288.683 31.3056 288.776 31.3288V33.2081C288.676 33.1783 288.539 33.1518 288.363 33.1286C288.187 33.1054 288.027 33.0938 287.881 33.0938C287.569 33.0938 287.291 33.1617 287.045 33.2976C286.804 33.4302 286.611 33.6158 286.469 33.8544C286.33 34.093 286.26 34.3681 286.26 34.6797V39H284.142ZM292.995 39.1491C292.21 39.1491 291.534 38.9901 290.967 38.6719C290.403 38.3504 289.969 37.8963 289.664 37.3097C289.359 36.7197 289.207 36.022 289.207 35.2166C289.207 34.4311 289.359 33.7417 289.664 33.1484C289.969 32.5552 290.398 32.0928 290.952 31.7614C291.509 31.4299 292.162 31.2642 292.911 31.2642C293.414 31.2642 293.883 31.3454 294.318 31.5078C294.755 31.6669 295.136 31.9072 295.461 32.2287C295.789 32.5502 296.044 32.9545 296.227 33.4418C296.409 33.9257 296.5 34.4924 296.5 35.142V35.7237H290.052V34.4112H294.507C294.507 34.1063 294.44 33.8362 294.308 33.6009C294.175 33.3655 293.991 33.1816 293.756 33.049C293.524 32.9131 293.254 32.8452 292.945 32.8452C292.624 32.8452 292.339 32.9197 292.09 33.0689C291.845 33.2147 291.653 33.4119 291.514 33.6605C291.374 33.9058 291.303 34.1792 291.3 34.4808V35.7287C291.3 36.1065 291.369 36.433 291.509 36.7081C291.651 36.9832 291.852 37.1953 292.11 37.3445C292.369 37.4936 292.675 37.5682 293.03 37.5682C293.265 37.5682 293.481 37.535 293.676 37.4688C293.872 37.4025 294.039 37.303 294.178 37.1705C294.318 37.0379 294.424 36.8755 294.497 36.6832L296.455 36.8125C296.356 37.2831 296.152 37.6941 295.844 38.0455C295.539 38.3935 295.145 38.6652 294.661 38.8608C294.18 39.053 293.625 39.1491 292.995 39.1491ZM304.236 33.5412L302.297 33.6605C302.264 33.4948 302.193 33.3456 302.083 33.2131C301.974 33.0772 301.83 32.9695 301.651 32.8899C301.475 32.8071 301.265 32.7656 301.019 32.7656C300.691 32.7656 300.414 32.8352 300.189 32.9744C299.964 33.1103 299.851 33.2926 299.851 33.5213C299.851 33.7036 299.924 33.8577 300.07 33.9837C300.216 34.1096 300.466 34.2107 300.82 34.2869L302.203 34.5653C302.945 34.7178 303.499 34.9631 303.863 35.3011C304.228 35.6392 304.41 36.0833 304.41 36.6335C304.41 37.134 304.262 37.5732 303.968 37.951C303.676 38.3288 303.275 38.6238 302.764 38.8359C302.257 39.0447 301.672 39.1491 301.009 39.1491C299.999 39.1491 299.193 38.9387 298.593 38.5178C297.997 38.0935 297.647 37.5168 297.544 36.7876L299.627 36.6783C299.69 36.9865 299.843 37.2218 300.085 37.3842C300.327 37.5433 300.637 37.6229 301.014 37.6229C301.386 37.6229 301.684 37.5516 301.909 37.4091C302.138 37.2633 302.254 37.076 302.257 36.8473C302.254 36.6551 302.173 36.4976 302.014 36.375C301.855 36.2491 301.609 36.1529 301.278 36.0866L299.955 35.8232C299.21 35.674 298.655 35.4155 298.29 35.0476C297.929 34.6797 297.748 34.2107 297.748 33.6406C297.748 33.1501 297.881 32.7275 298.146 32.3729C298.414 32.0182 298.79 31.7448 299.274 31.5526C299.762 31.3603 300.332 31.2642 300.985 31.2642C301.949 31.2642 302.708 31.468 303.262 31.8757C303.818 32.2834 304.143 32.8385 304.236 33.5412ZM309.224 39.1491C308.438 39.1491 307.762 38.9901 307.195 38.6719C306.632 38.3504 306.198 37.8963 305.893 37.3097C305.588 36.7197 305.435 36.022 305.435 35.2166C305.435 34.4311 305.588 33.7417 305.893 33.1484C306.198 32.5552 306.627 32.0928 307.18 31.7614C307.737 31.4299 308.39 31.2642 309.139 31.2642C309.643 31.2642 310.112 31.3454 310.546 31.5078C310.984 31.6669 311.365 31.9072 311.69 32.2287C312.018 32.5502 312.273 32.9545 312.455 33.4418C312.638 33.9257 312.729 34.4924 312.729 35.142V35.7237H306.281V34.4112H310.735C310.735 34.1063 310.669 33.8362 310.536 33.6009C310.404 33.3655 310.22 33.1816 309.984 33.049C309.752 32.9131 309.482 32.8452 309.174 32.8452C308.853 32.8452 308.567 32.9197 308.319 33.0689C308.074 33.2147 307.881 33.4119 307.742 33.6605C307.603 33.9058 307.532 34.1792 307.528 34.4808V35.7287C307.528 36.1065 307.598 36.433 307.737 36.7081C307.88 36.9832 308.08 37.1953 308.339 37.3445C308.597 37.4936 308.904 37.5682 309.259 37.5682C309.494 37.5682 309.709 37.535 309.905 37.4688C310.1 37.4025 310.268 37.303 310.407 37.1705C310.546 37.0379 310.652 36.8755 310.725 36.6832L312.684 36.8125C312.585 37.2831 312.381 37.6941 312.072 38.0455C311.768 38.3935 311.373 38.6652 310.889 38.8608C310.409 39.053 309.853 39.1491 309.224 39.1491ZM314.111 39V31.3636H316.164V32.696H316.244C316.383 32.2221 316.616 31.8641 316.945 31.6222C317.273 31.3769 317.651 31.2543 318.078 31.2543C318.184 31.2543 318.299 31.2609 318.421 31.2741C318.544 31.2874 318.652 31.3056 318.744 31.3288V33.2081C318.645 33.1783 318.507 33.1518 318.332 33.1286C318.156 33.1054 317.995 33.0938 317.849 33.0938C317.538 33.0938 317.259 33.1617 317.014 33.2976C316.772 33.4302 316.58 33.6158 316.438 33.8544C316.298 34.093 316.229 34.3681 316.229 34.6797V39H314.111ZM327.191 31.3636L324.521 39H322.135L319.465 31.3636H321.702L323.288 36.8274H323.368L324.949 31.3636H327.191ZM331.509 39.1491C330.723 39.1491 330.047 38.9901 329.48 38.6719C328.917 38.3504 328.483 37.8963 328.178 37.3097C327.873 36.7197 327.721 36.022 327.721 35.2166C327.721 34.4311 327.873 33.7417 328.178 33.1484C328.483 32.5552 328.912 32.0928 329.466 31.7614C330.022 31.4299 330.675 31.2642 331.424 31.2642C331.928 31.2642 332.397 31.3454 332.831 31.5078C333.269 31.6669 333.65 31.9072 333.975 32.2287C334.303 32.5502 334.558 32.9545 334.74 33.4418C334.923 33.9257 335.014 34.4924 335.014 35.142V35.7237H328.566V34.4112H333.02C333.02 34.1063 332.954 33.8362 332.821 33.6009C332.689 33.3655 332.505 33.1816 332.27 33.049C332.038 32.9131 331.767 32.8452 331.459 32.8452C331.138 32.8452 330.853 32.9197 330.604 33.0689C330.359 33.2147 330.167 33.4119 330.027 33.6605C329.888 33.9058 329.817 34.1792 329.814 34.4808V35.7287C329.814 36.1065 329.883 36.433 330.022 36.7081C330.165 36.9832 330.365 37.1953 330.624 37.3445C330.882 37.4936 331.189 37.5682 331.544 37.5682C331.779 37.5682 331.994 37.535 332.19 37.4688C332.386 37.4025 332.553 37.303 332.692 37.1705C332.831 37.0379 332.937 36.8755 333.01 36.6832L334.969 36.8125C334.87 37.2831 334.666 37.6941 334.358 38.0455C334.053 38.3935 333.658 38.6652 333.174 38.8608C332.694 39.053 332.139 39.1491 331.509 39.1491ZM339.21 39.1243C338.63 39.1243 338.105 38.9751 337.634 38.6768C337.167 38.3752 336.795 37.9328 336.52 37.3494C336.248 36.7628 336.113 36.0436 336.113 35.1918C336.113 34.3168 336.253 33.5893 336.535 33.0092C336.817 32.4259 337.191 31.9901 337.659 31.7017C338.129 31.41 338.645 31.2642 339.205 31.2642C339.632 31.2642 339.989 31.3371 340.274 31.483C340.562 31.6255 340.794 31.8045 340.97 32.0199C341.149 32.232 341.285 32.4408 341.377 32.6463H341.442V28.8182H343.555V39H341.467V37.777H341.377C341.278 37.9891 341.137 38.1996 340.955 38.4084C340.776 38.6139 340.542 38.7846 340.254 38.9205C339.969 39.0563 339.621 39.1243 339.21 39.1243ZM339.881 37.4389C340.222 37.4389 340.511 37.3461 340.746 37.1605C340.985 36.9716 341.167 36.7081 341.293 36.37C341.422 36.032 341.487 35.6359 341.487 35.1818C341.487 34.7277 341.424 34.3333 341.298 33.9986C341.172 33.6638 340.99 33.4053 340.751 33.223C340.512 33.0407 340.222 32.9496 339.881 32.9496C339.533 32.9496 339.24 33.044 339.001 33.233C338.762 33.4219 338.582 33.6837 338.459 34.0185C338.337 34.3532 338.275 34.741 338.275 35.1818C338.275 35.6259 338.337 36.0187 338.459 36.3601C338.585 36.6982 338.766 36.9633 339.001 37.1555C339.24 37.3445 339.533 37.4389 339.881 37.4389ZM350.714 39.1442C350.227 39.1442 349.793 39.0597 349.412 38.8906C349.03 38.7183 348.729 38.4647 348.507 38.13C348.288 37.7919 348.179 37.371 348.179 36.8672C348.179 36.4429 348.257 36.0866 348.412 35.7983C348.568 35.5099 348.78 35.2779 349.049 35.1023C349.317 34.9266 349.622 34.794 349.963 34.7045C350.308 34.6151 350.669 34.5521 351.047 34.5156C351.491 34.4692 351.849 34.4261 352.121 34.3864C352.393 34.3433 352.59 34.2803 352.713 34.1974C352.835 34.1146 352.897 33.992 352.897 33.8295V33.7997C352.897 33.4848 352.797 33.2412 352.598 33.0689C352.403 32.8965 352.124 32.8104 351.763 32.8104C351.382 32.8104 351.079 32.8949 350.853 33.0639C350.628 33.2296 350.479 33.4384 350.406 33.6903L348.447 33.5312C348.547 33.0672 348.742 32.6662 349.034 32.3281C349.325 31.9867 349.702 31.7249 350.162 31.5426C350.626 31.357 351.163 31.2642 351.773 31.2642C352.197 31.2642 352.603 31.3139 352.991 31.4134C353.382 31.5128 353.729 31.6669 354.03 31.8757C354.335 32.0845 354.575 32.353 354.751 32.6811C354.927 33.0059 355.015 33.3954 355.015 33.8494V39H353.006V37.9411H352.946C352.824 38.1797 352.66 38.3902 352.454 38.5724C352.249 38.7514 352.002 38.8923 351.713 38.995C351.425 39.0945 351.092 39.1442 350.714 39.1442ZM351.321 37.6825C351.632 37.6825 351.907 37.6212 352.146 37.4986C352.385 37.3726 352.572 37.2036 352.708 36.9915C352.844 36.7794 352.912 36.5391 352.912 36.2706V35.4602C352.845 35.5033 352.754 35.5431 352.638 35.5795C352.525 35.6127 352.398 35.6442 352.255 35.674C352.113 35.7005 351.97 35.7254 351.828 35.7486C351.685 35.7685 351.556 35.7867 351.44 35.8033C351.191 35.8397 350.974 35.8977 350.789 35.9773C350.603 36.0568 350.459 36.1645 350.356 36.3004C350.253 36.433 350.202 36.5987 350.202 36.7976C350.202 37.0859 350.306 37.3063 350.515 37.4588C350.727 37.608 350.996 37.6825 351.321 37.6825ZM358.776 34.5852V39H356.658V31.3636H358.676V32.7109H358.766C358.935 32.2668 359.218 31.9155 359.616 31.657C360.013 31.3951 360.496 31.2642 361.062 31.2642C361.593 31.2642 362.055 31.3802 362.45 31.6122C362.844 31.8442 363.151 32.1757 363.369 32.6065C363.588 33.0341 363.697 33.5445 363.697 34.1378V39H361.58V34.5156C361.583 34.0483 361.464 33.6837 361.222 33.4219C360.98 33.1567 360.647 33.0241 360.222 33.0241C359.937 33.0241 359.685 33.0855 359.467 33.2081C359.251 33.3307 359.082 33.5097 358.96 33.745C358.84 33.977 358.779 34.2571 358.776 34.5852ZM368.181 39.1243C367.601 39.1243 367.075 38.9751 366.605 38.6768C366.137 38.3752 365.766 37.9328 365.491 37.3494C365.219 36.7628 365.083 36.0436 365.083 35.1918C365.083 34.3168 365.224 33.5893 365.506 33.0092C365.788 32.4259 366.162 31.9901 366.629 31.7017C367.1 31.41 367.615 31.2642 368.176 31.2642C368.603 31.2642 368.959 31.3371 369.244 31.483C369.533 31.6255 369.765 31.8045 369.941 32.0199C370.119 32.232 370.255 32.4408 370.348 32.6463H370.413V28.8182H372.526V39H370.438V37.777H370.348C370.249 37.9891 370.108 38.1996 369.926 38.4084C369.747 38.6139 369.513 38.7846 369.225 38.9205C368.94 39.0563 368.592 39.1243 368.181 39.1243ZM368.852 37.4389C369.193 37.4389 369.481 37.3461 369.717 37.1605C369.955 36.9716 370.138 36.7081 370.264 36.37C370.393 36.032 370.458 35.6359 370.458 35.1818C370.458 34.7277 370.395 34.3333 370.269 33.9986C370.143 33.6638 369.96 33.4053 369.722 33.223C369.483 33.0407 369.193 32.9496 368.852 32.9496C368.504 32.9496 368.21 33.044 367.972 33.233C367.733 33.4219 367.552 33.6837 367.43 34.0185C367.307 34.3532 367.246 34.741 367.246 35.1818C367.246 35.6259 367.307 36.0187 367.43 36.3601C367.556 36.6982 367.736 36.9633 367.972 37.1555C368.21 37.3445 368.504 37.4389 368.852 37.4389ZM377.507 39V31.3636H379.625V39H377.507ZM378.571 30.3793C378.256 30.3793 377.986 30.2749 377.761 30.0661C377.539 29.8539 377.428 29.6004 377.428 29.3054C377.428 29.0137 377.539 28.7635 377.761 28.5547C377.986 28.3426 378.256 28.2365 378.571 28.2365C378.886 28.2365 379.155 28.3426 379.377 28.5547C379.602 28.7635 379.715 29.0137 379.715 29.3054C379.715 29.6004 379.602 29.8539 379.377 30.0661C379.155 30.2749 378.886 30.3793 378.571 30.3793ZM387.675 33.5412L385.737 33.6605C385.703 33.4948 385.632 33.3456 385.523 33.2131C385.413 33.0772 385.269 32.9695 385.09 32.8899C384.915 32.8071 384.704 32.7656 384.459 32.7656C384.131 32.7656 383.854 32.8352 383.629 32.9744C383.403 33.1103 383.29 33.2926 383.29 33.5213C383.29 33.7036 383.363 33.8577 383.509 33.9837C383.655 34.1096 383.905 34.2107 384.26 34.2869L385.642 34.5653C386.384 34.7178 386.938 34.9631 387.303 35.3011C387.667 35.6392 387.849 36.0833 387.849 36.6335C387.849 37.134 387.702 37.5732 387.407 37.951C387.115 38.3288 386.714 38.6238 386.204 38.8359C385.697 39.0447 385.112 39.1491 384.449 39.1491C383.438 39.1491 382.633 38.9387 382.033 38.5178C381.436 38.0935 381.086 37.5168 380.984 36.7876L383.067 36.6783C383.13 36.9865 383.282 37.2218 383.524 37.3842C383.766 37.5433 384.076 37.6229 384.454 37.6229C384.825 37.6229 385.123 37.5516 385.349 37.4091C385.577 37.2633 385.693 37.076 385.697 36.8473C385.693 36.6551 385.612 36.4976 385.453 36.375C385.294 36.2491 385.049 36.1529 384.717 36.0866L383.395 35.8232C382.649 35.674 382.094 35.4155 381.729 35.0476C381.368 34.6797 381.188 34.2107 381.188 33.6406C381.188 33.1501 381.32 32.7275 381.585 32.3729C381.854 32.0182 382.23 31.7448 382.714 31.5526C383.201 31.3603 383.771 31.2642 384.424 31.2642C385.388 31.2642 386.147 31.468 386.701 31.8757C387.258 32.2834 387.583 32.8385 387.675 33.5412ZM224.017 56.1442C223.53 56.1442 223.095 56.0597 222.714 55.8906C222.333 55.7183 222.032 55.4647 221.809 55.13C221.591 54.7919 221.481 54.371 221.481 53.8672C221.481 53.4429 221.559 53.0866 221.715 52.7983C221.871 52.5099 222.083 52.2779 222.351 52.1023C222.62 51.9266 222.925 51.794 223.266 51.7045C223.611 51.6151 223.972 51.5521 224.35 51.5156C224.794 51.4692 225.152 51.4261 225.424 51.3864C225.696 51.3433 225.893 51.2803 226.015 51.1974C226.138 51.1146 226.199 50.992 226.199 50.8295V50.7997C226.199 50.4848 226.1 50.2412 225.901 50.0689C225.706 49.8965 225.427 49.8104 225.066 49.8104C224.685 49.8104 224.381 49.8949 224.156 50.0639C223.931 50.2296 223.782 50.4384 223.709 50.6903L221.75 50.5312C221.849 50.0672 222.045 49.6662 222.336 49.3281C222.628 48.9867 223.004 48.7249 223.465 48.5426C223.929 48.357 224.466 48.2642 225.076 48.2642C225.5 48.2642 225.906 48.3139 226.294 48.4134C226.685 48.5128 227.031 48.6669 227.333 48.8757C227.638 49.0845 227.878 49.353 228.054 49.6811C228.229 50.0059 228.317 50.3954 228.317 50.8494V56H226.309V54.9411H226.249C226.126 55.1797 225.962 55.3902 225.757 55.5724C225.551 55.7514 225.305 55.8923 225.016 55.995C224.728 56.0945 224.395 56.1442 224.017 56.1442ZM224.623 54.6825C224.935 54.6825 225.21 54.6212 225.449 54.4986C225.687 54.3726 225.875 54.2036 226.01 53.9915C226.146 53.7794 226.214 53.5391 226.214 53.2706V52.4602C226.148 52.5033 226.057 52.5431 225.941 52.5795C225.828 52.6127 225.701 52.6442 225.558 52.674C225.416 52.7005 225.273 52.7254 225.131 52.7486C224.988 52.7685 224.859 52.7867 224.743 52.8033C224.494 52.8397 224.277 52.8977 224.091 52.9773C223.906 53.0568 223.762 53.1645 223.659 53.3004C223.556 53.433 223.505 53.5987 223.505 53.7976C223.505 54.0859 223.609 54.3063 223.818 54.4588C224.03 54.608 224.299 54.6825 224.623 54.6825ZM232.078 45.8182V56H229.96V45.8182H232.078ZM235.281 56L233.203 48.3636H235.346L236.529 53.4943H236.599L237.832 48.3636H239.935L241.188 53.4645H241.252L242.415 48.3636H244.553L242.48 56H240.238L238.925 51.1974H238.831L237.518 56H235.281ZM247.861 56.1442C247.373 56.1442 246.939 56.0597 246.558 55.8906C246.177 55.7183 245.875 55.4647 245.653 55.13C245.434 54.7919 245.325 54.371 245.325 53.8672C245.325 53.4429 245.403 53.0866 245.559 52.7983C245.715 52.5099 245.927 52.2779 246.195 52.1023C246.464 51.9266 246.769 51.794 247.11 51.7045C247.455 51.6151 247.816 51.5521 248.194 51.5156C248.638 51.4692 248.996 51.4261 249.268 51.3864C249.539 51.3433 249.737 51.2803 249.859 51.1974C249.982 51.1146 250.043 50.992 250.043 50.8295V50.7997C250.043 50.4848 249.944 50.2412 249.745 50.0689C249.549 49.8965 249.271 49.8104 248.91 49.8104C248.528 49.8104 248.225 49.8949 248 50.0639C247.774 50.2296 247.625 50.4384 247.552 50.6903L245.594 50.5312C245.693 50.0672 245.889 49.6662 246.18 49.3281C246.472 48.9867 246.848 48.7249 247.309 48.5426C247.773 48.357 248.31 48.2642 248.92 48.2642C249.344 48.2642 249.75 48.3139 250.138 48.4134C250.529 48.5128 250.875 48.6669 251.177 48.8757C251.482 49.0845 251.722 49.353 251.898 49.6811C252.073 50.0059 252.161 50.3954 252.161 50.8494V56H250.153V54.9411H250.093C249.97 55.1797 249.806 55.3902 249.601 55.5724C249.395 55.7514 249.148 55.8923 248.86 55.995C248.572 56.0945 248.238 56.1442 247.861 56.1442ZM248.467 54.6825C248.779 54.6825 249.054 54.6212 249.292 54.4986C249.531 54.3726 249.718 54.2036 249.854 53.9915C249.99 53.7794 250.058 53.5391 250.058 53.2706V52.4602C249.992 52.5033 249.901 52.5431 249.785 52.5795C249.672 52.6127 249.544 52.6442 249.402 52.674C249.259 52.7005 249.117 52.7254 248.974 52.7486C248.832 52.7685 248.702 52.7867 248.586 52.8033C248.338 52.8397 248.121 52.8977 247.935 52.9773C247.75 53.0568 247.605 53.1645 247.503 53.3004C247.4 53.433 247.349 53.5987 247.349 53.7976C247.349 54.0859 247.453 54.3063 247.662 54.4588C247.874 54.608 248.142 54.6825 248.467 54.6825ZM254.838 58.8636C254.57 58.8636 254.318 58.8421 254.083 58.799C253.851 58.7592 253.658 58.7079 253.506 58.6449L253.983 57.0639C254.232 57.1402 254.455 57.1816 254.654 57.1882C254.856 57.1948 255.03 57.1484 255.176 57.049C255.325 56.9496 255.446 56.7805 255.539 56.5419L255.664 56.2188L252.924 48.3636H255.151L256.732 53.9716H256.812L258.408 48.3636H260.65L257.682 56.8253C257.539 57.2363 257.346 57.5942 257.1 57.8991C256.858 58.2074 256.552 58.4444 256.181 58.6101C255.809 58.7791 255.362 58.8636 254.838 58.8636ZM268.088 50.5412L266.149 50.6605C266.115 50.4948 266.044 50.3456 265.935 50.2131C265.825 50.0772 265.681 49.9695 265.502 49.8899C265.327 49.8071 265.116 49.7656 264.871 49.7656C264.543 49.7656 264.266 49.8352 264.041 49.9744C263.815 50.1103 263.703 50.2926 263.703 50.5213C263.703 50.7036 263.776 50.8577 263.921 50.9837C264.067 51.1096 264.317 51.2107 264.672 51.2869L266.054 51.5653C266.797 51.7178 267.35 51.9631 267.715 52.3011C268.079 52.6392 268.262 53.0833 268.262 53.6335C268.262 54.134 268.114 54.5732 267.819 54.951C267.527 55.3288 267.126 55.6238 266.616 55.8359C266.109 56.0447 265.524 56.1491 264.861 56.1491C263.85 56.1491 263.045 55.9387 262.445 55.5178C261.848 55.0935 261.499 54.5168 261.396 53.7876L263.479 53.6783C263.542 53.9865 263.694 54.2218 263.936 54.3842C264.178 54.5433 264.488 54.6229 264.866 54.6229C265.237 54.6229 265.535 54.5516 265.761 54.4091C265.99 54.2633 266.106 54.076 266.109 53.8473C266.106 53.6551 266.024 53.4976 265.865 53.375C265.706 53.2491 265.461 53.1529 265.129 53.0866L263.807 52.8232C263.061 52.674 262.506 52.4155 262.142 52.0476C261.78 51.6797 261.6 51.2107 261.6 50.6406C261.6 50.1501 261.732 49.7275 261.997 49.3729C262.266 49.0182 262.642 48.7448 263.126 48.5526C263.613 48.3603 264.183 48.2642 264.836 48.2642C265.801 48.2642 266.56 48.468 267.113 48.8757C267.67 49.2834 267.995 49.8385 268.088 50.5412ZM279.189 50.5412L277.25 50.6605C277.217 50.4948 277.146 50.3456 277.036 50.2131C276.927 50.0772 276.783 49.9695 276.604 49.8899C276.428 49.8071 276.218 49.7656 275.972 49.7656C275.644 49.7656 275.368 49.8352 275.142 49.9744C274.917 50.1103 274.804 50.2926 274.804 50.5213C274.804 50.7036 274.877 50.8577 275.023 50.9837C275.169 51.1096 275.419 51.2107 275.774 51.2869L277.156 51.5653C277.898 51.7178 278.452 51.9631 278.816 52.3011C279.181 52.6392 279.363 53.0833 279.363 53.6335C279.363 54.134 279.216 54.5732 278.921 54.951C278.629 55.3288 278.228 55.6238 277.718 55.8359C277.21 56.0447 276.625 56.1491 275.963 56.1491C274.952 56.1491 274.146 55.9387 273.546 55.5178C272.95 55.0935 272.6 54.5168 272.497 53.7876L274.58 53.6783C274.643 53.9865 274.796 54.2218 275.038 54.3842C275.28 54.5433 275.59 54.6229 275.968 54.6229C276.339 54.6229 276.637 54.5516 276.862 54.4091C277.091 54.2633 277.207 54.076 277.21 53.8473C277.207 53.6551 277.126 53.4976 276.967 53.375C276.808 53.2491 276.562 53.1529 276.231 53.0866L274.909 52.8232C274.163 52.674 273.608 52.4155 273.243 52.0476C272.882 51.6797 272.701 51.2107 272.701 50.6406C272.701 50.1501 272.834 49.7275 273.099 49.3729C273.367 49.0182 273.744 48.7448 274.227 48.5526C274.715 48.3603 275.285 48.2642 275.938 48.2642C276.902 48.2642 277.661 48.468 278.215 48.8757C278.771 49.2834 279.096 49.8385 279.189 50.5412ZM284.177 56.1491C283.391 56.1491 282.715 55.9901 282.148 55.6719C281.585 55.3504 281.151 54.8963 280.846 54.3097C280.541 53.7197 280.388 53.022 280.388 52.2166C280.388 51.4311 280.541 50.7417 280.846 50.1484C281.151 49.5552 281.58 49.0928 282.134 48.7614C282.69 48.4299 283.343 48.2642 284.092 48.2642C284.596 48.2642 285.065 48.3454 285.499 48.5078C285.937 48.6669 286.318 48.9072 286.643 49.2287C286.971 49.5502 287.226 49.9545 287.408 50.4418C287.591 50.9257 287.682 51.4924 287.682 52.142V52.7237H281.234V51.4112H285.688C285.688 51.1063 285.622 50.8362 285.489 50.6009C285.357 50.3655 285.173 50.1816 284.938 50.049C284.705 49.9131 284.435 49.8452 284.127 49.8452C283.806 49.8452 283.521 49.9197 283.272 50.0689C283.027 50.2147 282.835 50.4119 282.695 50.6605C282.556 50.9058 282.485 51.1792 282.482 51.4808V52.7287C282.482 53.1065 282.551 53.433 282.69 53.7081C282.833 53.9832 283.033 54.1953 283.292 54.3445C283.55 54.4936 283.857 54.5682 284.212 54.5682C284.447 54.5682 284.662 54.535 284.858 54.4688C285.054 54.4025 285.221 54.303 285.36 54.1705C285.499 54.0379 285.605 53.8755 285.678 53.6832L287.637 53.8125C287.538 54.2831 287.334 54.6941 287.026 55.0455C286.721 55.3935 286.326 55.6652 285.842 55.8608C285.362 56.053 284.807 56.1491 284.177 56.1491ZM293.126 48.3636V49.9545H288.527V48.3636H293.126ZM289.571 46.5341H291.689V53.6534C291.689 53.849 291.719 54.0014 291.778 54.1108C291.838 54.2169 291.921 54.2914 292.027 54.3345C292.136 54.3776 292.262 54.3991 292.405 54.3991C292.504 54.3991 292.604 54.3909 292.703 54.3743C292.803 54.3544 292.879 54.3395 292.932 54.3295L293.265 55.9055C293.159 55.9387 293.01 55.9768 292.817 56.0199C292.625 56.0663 292.392 56.0945 292.116 56.1044C291.606 56.1243 291.159 56.0563 290.774 55.9006C290.393 55.7448 290.096 55.5028 289.884 55.1747C289.672 54.8466 289.568 54.4323 289.571 53.9318V46.5341ZM301.807 48.3636V49.9545H297.209V48.3636H301.807ZM298.253 46.5341H300.371V53.6534C300.371 53.849 300.4 54.0014 300.46 54.1108C300.52 54.2169 300.603 54.2914 300.709 54.3345C300.818 54.3776 300.944 54.3991 301.086 54.3991C301.186 54.3991 301.285 54.3909 301.385 54.3743C301.484 54.3544 301.56 54.3395 301.613 54.3295L301.947 55.9055C301.84 55.9387 301.691 55.9768 301.499 56.0199C301.307 56.0663 301.073 56.0945 300.798 56.1044C300.288 56.1243 299.84 56.0563 299.456 55.9006C299.075 55.7448 298.778 55.5028 298.566 55.1747C298.354 54.8466 298.249 54.4323 298.253 53.9318V46.5341ZM306.555 56.1491C305.783 56.1491 305.115 55.9851 304.552 55.657C303.992 55.3255 303.559 54.8648 303.254 54.2749C302.949 53.6816 302.797 52.9938 302.797 52.2116C302.797 51.4228 302.949 50.7334 303.254 50.1435C303.559 49.5502 303.992 49.0895 304.552 48.7614C305.115 48.4299 305.783 48.2642 306.555 48.2642C307.327 48.2642 307.994 48.4299 308.554 48.7614C309.117 49.0895 309.551 49.5502 309.856 50.1435C310.161 50.7334 310.314 51.4228 310.314 52.2116C310.314 52.9938 310.161 53.6816 309.856 54.2749C309.551 54.8648 309.117 55.3255 308.554 55.657C307.994 55.9851 307.327 56.1491 306.555 56.1491ZM306.565 54.5085C306.916 54.5085 307.21 54.4091 307.445 54.2102C307.68 54.008 307.858 53.733 307.977 53.3849C308.1 53.0369 308.161 52.6409 308.161 52.1967C308.161 51.7526 308.1 51.3565 307.977 51.0085C307.858 50.6605 307.68 50.3854 307.445 50.1832C307.21 49.9811 306.916 49.88 306.565 49.88C306.211 49.88 305.912 49.9811 305.67 50.1832C305.432 50.3854 305.251 50.6605 305.128 51.0085C305.009 51.3565 304.949 51.7526 304.949 52.1967C304.949 52.6409 305.009 53.0369 305.128 53.3849C305.251 53.733 305.432 54.008 305.67 54.2102C305.912 54.4091 306.211 54.5085 306.565 54.5085ZM318.903 56.2237C318.048 56.2204 317.313 56.0099 316.696 55.5923C316.083 55.1747 315.611 54.5698 315.279 53.7777C314.951 52.9856 314.789 52.0327 314.792 50.919C314.792 49.8087 314.956 48.8625 315.284 48.0803C315.616 47.2981 316.088 46.7031 316.701 46.2955C317.317 45.8845 318.052 45.679 318.903 45.679C319.755 45.679 320.488 45.8845 321.101 46.2955C321.717 46.7064 322.191 47.303 322.523 48.0852C322.854 48.8641 323.018 49.8087 323.015 50.919C323.015 52.036 322.849 52.9905 322.518 53.7827C322.19 54.5748 321.719 55.1797 321.106 55.5973C320.493 56.0149 319.759 56.2237 318.903 56.2237ZM318.903 54.4389C319.487 54.4389 319.952 54.1456 320.3 53.5589C320.648 52.9723 320.821 52.0923 320.817 50.919C320.817 50.1468 320.738 49.5038 320.579 48.9901C320.423 48.4763 320.201 48.0902 319.913 47.8317C319.628 47.5732 319.291 47.4439 318.903 47.4439C318.323 47.4439 317.859 47.7339 317.511 48.3139C317.163 48.8939 316.988 49.7623 316.984 50.919C316.984 51.7012 317.062 52.3542 317.218 52.8778C317.377 53.3982 317.601 53.7893 317.889 54.0511C318.178 54.3097 318.516 54.4389 318.903 54.4389ZM325.398 56.1293C325.069 56.1293 324.788 56.0133 324.552 55.7812C324.32 55.5459 324.204 55.2642 324.204 54.9361C324.204 54.6113 324.32 54.3329 324.552 54.1009C324.788 53.8688 325.069 53.7528 325.398 53.7528C325.716 53.7528 325.994 53.8688 326.233 54.1009C326.471 54.3329 326.591 54.6113 326.591 54.9361C326.591 55.1548 326.534 55.3554 326.422 55.5376C326.312 55.7166 326.168 55.8608 325.989 55.9702C325.81 56.0762 325.613 56.1293 325.398 56.1293Z" fill="black"/>
</svg>
