<svg width="403" height="97" viewBox="0 0 403 97" fill="none" xmlns="http://www.w3.org/2000/svg">
<path d="M0 0H104C109.523 0 114 4.47715 114 10V87C114 92.5228 109.523 97 104 97H0V0Z" fill="#A839FF"/>
<circle cx="38.7546" cy="34.7546" r="7.75459" fill="black"/>
<circle cx="88.9748" cy="34.7546" r="7.75459" fill="black"/>
<path d="M63.9761 70.0195C71.9601 70.0195 71.9887 58.7569 71.9887 58.7569H56.1102C56.1102 58.7569 55.9921 70.0195 63.9761 70.0195Z" fill="white"/>
<path d="M143.935 23.817C146.051 16.8009 152.515 12 159.843 12H386.383C395.56 12 403 19.4397 403 28.617V53.383C403 62.5603 395.56 70 386.383 70H140.097C135.068 70 131.464 65.1481 132.917 60.3335L143.935 23.817Z" fill="#D9D9D9"/>
<path d="M177.119 30.593V28.8182H185.481V30.593H182.364V39H180.236V30.593H177.119ZM187.251 41.8636C186.983 41.8636 186.731 41.8421 186.496 41.799C186.264 41.7592 186.071 41.7079 185.919 41.6449L186.396 40.0639C186.645 40.1402 186.869 40.1816 187.067 40.1882C187.27 40.1948 187.444 40.1484 187.589 40.049C187.739 39.9496 187.86 39.7805 187.952 39.5419L188.077 39.2188L185.337 31.3636H187.565L189.146 36.9716H189.225L190.821 31.3636H193.063L190.095 39.8253C189.953 40.2363 189.759 40.5942 189.513 40.8991C189.271 41.2074 188.965 41.4444 188.594 41.6101C188.222 41.7791 187.775 41.8636 187.251 41.8636ZM194.147 41.8636V31.3636H196.235V32.6463H196.329C196.422 32.4408 196.556 32.232 196.732 32.0199C196.911 31.8045 197.143 31.6255 197.428 31.483C197.717 31.3371 198.074 31.2642 198.502 31.2642C199.059 31.2642 199.573 31.41 200.043 31.7017C200.514 31.9901 200.89 32.4259 201.172 33.0092C201.454 33.5893 201.594 34.3168 201.594 35.1918C201.594 36.0436 201.457 36.7628 201.182 37.3494C200.91 37.9328 200.539 38.3752 200.068 38.6768C199.601 38.9751 199.077 39.1243 198.497 39.1243C198.086 39.1243 197.736 39.0563 197.448 38.9205C197.163 38.7846 196.929 38.6139 196.747 38.4084C196.565 38.1996 196.426 37.9891 196.329 37.777H196.265V41.8636H194.147ZM196.22 35.1818C196.22 35.6359 196.283 36.032 196.409 36.37C196.535 36.7081 196.717 36.9716 196.956 37.1605C197.195 37.3461 197.485 37.4389 197.826 37.4389C198.171 37.4389 198.462 37.3445 198.701 37.1555C198.94 36.9633 199.12 36.6982 199.243 36.3601C199.369 36.0187 199.432 35.6259 199.432 35.1818C199.432 34.741 199.37 34.3532 199.248 34.0185C199.125 33.6837 198.945 33.4219 198.706 33.233C198.467 33.044 198.174 32.9496 197.826 32.9496C197.481 32.9496 197.19 33.0407 196.951 33.223C196.716 33.4053 196.535 33.6638 196.409 33.9986C196.283 34.3333 196.22 34.7277 196.22 35.1818ZM206.486 39.1491C205.701 39.1491 205.025 38.9901 204.458 38.6719C203.895 38.3504 203.46 37.8963 203.155 37.3097C202.851 36.7197 202.698 36.022 202.698 35.2166C202.698 34.4311 202.851 33.7417 203.155 33.1484C203.46 32.5552 203.89 32.0928 204.443 31.7614C205 31.4299 205.653 31.2642 206.402 31.2642C206.906 31.2642 207.375 31.3454 207.809 31.5078C208.246 31.6669 208.628 31.9072 208.952 32.2287C209.28 32.5502 209.536 32.9545 209.718 33.4418C209.9 33.9257 209.991 34.4924 209.991 35.142V35.7237H203.543V34.4112H207.998C207.998 34.1063 207.931 33.8362 207.799 33.6009C207.666 33.3655 207.482 33.1816 207.247 33.049C207.015 32.9131 206.745 32.8452 206.437 32.8452C206.115 32.8452 205.83 32.9197 205.582 33.0689C205.336 33.2147 205.144 33.4119 205.005 33.6605C204.866 33.9058 204.794 34.1792 204.791 34.4808V35.7287C204.791 36.1065 204.861 36.433 205 36.7081C205.142 36.9832 205.343 37.1953 205.601 37.3445C205.86 37.4936 206.167 37.5682 206.521 37.5682C206.757 37.5682 206.972 37.535 207.168 37.4688C207.363 37.4025 207.53 37.303 207.67 37.1705C207.809 37.0379 207.915 36.8755 207.988 36.6832L209.947 36.8125C209.847 37.2831 209.643 37.6941 209.335 38.0455C209.03 38.3935 208.636 38.6652 208.152 38.8608C207.671 39.053 207.116 39.1491 206.486 39.1491ZM214.614 39V31.3636H216.732V39H214.614ZM215.678 30.3793C215.363 30.3793 215.093 30.2749 214.867 30.0661C214.645 29.8539 214.534 29.6004 214.534 29.3054C214.534 29.0137 214.645 28.7635 214.867 28.5547C215.093 28.3426 215.363 28.2365 215.678 28.2365C215.993 28.2365 216.261 28.3426 216.483 28.5547C216.708 28.7635 216.821 29.0137 216.821 29.3054C216.821 29.6004 216.708 29.8539 216.483 30.0661C216.261 30.2749 215.993 30.3793 215.678 30.3793ZM220.546 34.5852V39H218.428V31.3636H220.447V32.7109H220.536C220.705 32.2668 220.989 31.9155 221.386 31.657C221.784 31.3951 222.266 31.2642 222.833 31.2642C223.363 31.2642 223.826 31.3802 224.22 31.6122C224.614 31.8442 224.921 32.1757 225.14 32.6065C225.359 33.0341 225.468 33.5445 225.468 34.1378V39H223.35V34.5156C223.353 34.0483 223.234 33.6837 222.992 33.4219C222.75 33.1567 222.417 33.0241 221.993 33.0241C221.708 33.0241 221.456 33.0855 221.237 33.2081C221.022 33.3307 220.853 33.5097 220.73 33.745C220.611 33.977 220.549 34.2571 220.546 34.5852ZM232.555 39.1442C232.068 39.1442 231.634 39.0597 231.252 38.8906C230.871 38.7183 230.57 38.4647 230.348 38.13C230.129 37.7919 230.019 37.371 230.019 36.8672C230.019 36.4429 230.097 36.0866 230.253 35.7983C230.409 35.5099 230.621 35.2779 230.889 35.1023C231.158 34.9266 231.463 34.794 231.804 34.7045C232.149 34.6151 232.51 34.5521 232.888 34.5156C233.332 34.4692 233.69 34.4261 233.962 34.3864C234.234 34.3433 234.431 34.2803 234.554 34.1974C234.676 34.1146 234.737 33.992 234.737 33.8295V33.7997C234.737 33.4848 234.638 33.2412 234.439 33.0689C234.244 32.8965 233.965 32.8104 233.604 32.8104C233.223 32.8104 232.92 32.8949 232.694 33.0639C232.469 33.2296 232.32 33.4384 232.247 33.6903L230.288 33.5312C230.387 33.0672 230.583 32.6662 230.875 32.3281C231.166 31.9867 231.542 31.7249 232.003 31.5426C232.467 31.357 233.004 31.2642 233.614 31.2642C234.038 31.2642 234.444 31.3139 234.832 31.4134C235.223 31.5128 235.569 31.6669 235.871 31.8757C236.176 32.0845 236.416 32.353 236.592 32.6811C236.768 33.0059 236.855 33.3954 236.855 33.8494V39H234.847V37.9411H234.787C234.665 38.1797 234.501 38.3902 234.295 38.5724C234.09 38.7514 233.843 38.8923 233.554 38.995C233.266 39.0945 232.933 39.1442 232.555 39.1442ZM233.161 37.6825C233.473 37.6825 233.748 37.6212 233.987 37.4986C234.225 37.3726 234.413 37.2036 234.549 36.9915C234.684 36.7794 234.752 36.5391 234.752 36.2706V35.4602C234.686 35.5033 234.595 35.5431 234.479 35.5795C234.366 35.6127 234.239 35.6442 234.096 35.674C233.954 35.7005 233.811 35.7254 233.669 35.7486C233.526 35.7685 233.397 35.7867 233.281 35.8033C233.032 35.8397 232.815 35.8977 232.63 35.9773C232.444 36.0568 232.3 36.1645 232.197 36.3004C232.094 36.433 232.043 36.5987 232.043 36.7976C232.043 37.0859 232.147 37.3063 232.356 37.4588C232.568 37.608 232.837 37.6825 233.161 37.6825ZM248.858 31.3636L246.188 39H243.802L241.132 31.3636H243.369L244.955 36.8274H245.035L246.616 31.3636H248.858ZM251.914 39.1442C251.427 39.1442 250.993 39.0597 250.612 38.8906C250.231 38.7183 249.929 38.4647 249.707 38.13C249.488 37.7919 249.379 37.371 249.379 36.8672C249.379 36.4429 249.457 36.0866 249.612 35.7983C249.768 35.5099 249.98 35.2779 250.249 35.1023C250.517 34.9266 250.822 34.794 251.164 34.7045C251.508 34.6151 251.87 34.5521 252.247 34.5156C252.692 34.4692 253.05 34.4261 253.321 34.3864C253.593 34.3433 253.79 34.2803 253.913 34.1974C254.036 34.1146 254.097 33.992 254.097 33.8295V33.7997C254.097 33.4848 253.997 33.2412 253.799 33.0689C253.603 32.8965 253.325 32.8104 252.963 32.8104C252.582 32.8104 252.279 32.8949 252.054 33.0639C251.828 33.2296 251.679 33.4384 251.606 33.6903L249.647 33.5312C249.747 33.0672 249.942 32.6662 250.234 32.3281C250.526 31.9867 250.902 31.7249 251.362 31.5426C251.826 31.357 252.363 31.2642 252.973 31.2642C253.398 31.2642 253.804 31.3139 254.191 31.4134C254.582 31.5128 254.929 31.6669 255.23 31.8757C255.535 32.0845 255.776 32.353 255.951 32.6811C256.127 33.0059 256.215 33.3954 256.215 33.8494V39H254.206V37.9411H254.147C254.024 38.1797 253.86 38.3902 253.654 38.5724C253.449 38.7514 253.202 38.8923 252.914 38.995C252.625 39.0945 252.292 39.1442 251.914 39.1442ZM252.521 37.6825C252.832 37.6825 253.108 37.6212 253.346 37.4986C253.585 37.3726 253.772 37.2036 253.908 36.9915C254.044 36.7794 254.112 36.5391 254.112 36.2706V35.4602C254.045 35.5033 253.954 35.5431 253.838 35.5795C253.726 35.6127 253.598 35.6442 253.456 35.674C253.313 35.7005 253.17 35.7254 253.028 35.7486C252.885 35.7685 252.756 35.7867 252.64 35.8033C252.392 35.8397 252.175 35.8977 251.989 35.9773C251.803 36.0568 251.659 36.1645 251.556 36.3004C251.454 36.433 251.402 36.5987 251.402 36.7976C251.402 37.0859 251.507 37.3063 251.715 37.4588C251.928 37.608 252.196 37.6825 252.521 37.6825ZM259.976 28.8182V39H257.858V28.8182H259.976ZM266.569 35.7486V31.3636H268.687V39H266.654V37.6129H266.574C266.402 38.0604 266.115 38.42 265.714 38.6918C265.316 38.9635 264.831 39.0994 264.258 39.0994C263.747 39.0994 263.298 38.9834 262.91 38.7514C262.522 38.5194 262.219 38.1896 262 37.7621C261.785 37.3345 261.676 36.8224 261.672 36.2259V31.3636H263.79V35.848C263.794 36.2988 263.915 36.6551 264.153 36.9169C264.392 37.1787 264.712 37.3097 265.113 37.3097C265.368 37.3097 265.607 37.2517 265.829 37.1357C266.051 37.0163 266.23 36.8407 266.366 36.6087C266.505 36.3767 266.573 36.09 266.569 35.7486ZM273.861 39.1491C273.076 39.1491 272.4 38.9901 271.833 38.6719C271.27 38.3504 270.835 37.8963 270.53 37.3097C270.226 36.7197 270.073 36.022 270.073 35.2166C270.073 34.4311 270.226 33.7417 270.53 33.1484C270.835 32.5552 271.265 32.0928 271.818 31.7614C272.375 31.4299 273.028 31.2642 273.777 31.2642C274.281 31.2642 274.75 31.3454 275.184 31.5078C275.621 31.6669 276.003 31.9072 276.327 32.2287C276.655 32.5502 276.911 32.9545 277.093 33.4418C277.275 33.9257 277.366 34.4924 277.366 35.142V35.7237H270.918V34.4112H275.373C275.373 34.1063 275.306 33.8362 275.174 33.6009C275.041 33.3655 274.857 33.1816 274.622 33.049C274.39 32.9131 274.12 32.8452 273.812 32.8452C273.49 32.8452 273.205 32.9197 272.957 33.0689C272.711 33.2147 272.519 33.4119 272.38 33.6605C272.241 33.9058 272.169 34.1792 272.166 34.4808V35.7287C272.166 36.1065 272.236 36.433 272.375 36.7081C272.517 36.9832 272.718 37.1953 272.976 37.3445C273.235 37.4936 273.542 37.5682 273.896 37.5682C274.132 37.5682 274.347 37.535 274.543 37.4688C274.738 37.4025 274.905 37.303 275.045 37.1705C275.184 37.0379 275.29 36.8755 275.363 36.6832L277.322 36.8125C277.222 37.2831 277.018 37.6941 276.71 38.0455C276.405 38.3935 276.011 38.6652 275.527 38.8608C275.046 39.053 274.491 39.1491 273.861 39.1491ZM286.095 31.3636V32.9545H281.382V31.3636H286.095ZM282.461 39V30.8118C282.461 30.2583 282.569 29.7992 282.784 29.4347C283.003 29.0701 283.301 28.7966 283.679 28.6143C284.057 28.4321 284.486 28.3409 284.967 28.3409C285.292 28.3409 285.588 28.3658 285.857 28.4155C286.128 28.4652 286.331 28.5099 286.463 28.5497L286.085 30.1406C286.002 30.1141 285.9 30.0893 285.777 30.0661C285.658 30.0429 285.535 30.0312 285.409 30.0312C285.098 30.0312 284.881 30.1042 284.758 30.25C284.635 30.3925 284.574 30.593 284.574 30.8516V39H282.461ZM290.566 39.1491C289.794 39.1491 289.126 38.9851 288.562 38.657C288.002 38.3255 287.57 37.8648 287.265 37.2749C286.96 36.6816 286.807 35.9938 286.807 35.2116C286.807 34.4228 286.96 33.7334 287.265 33.1435C287.57 32.5502 288.002 32.0895 288.562 31.7614C289.126 31.4299 289.794 31.2642 290.566 31.2642C291.338 31.2642 292.004 31.4299 292.565 31.7614C293.128 32.0895 293.562 32.5502 293.867 33.1435C294.172 33.7334 294.324 34.4228 294.324 35.2116C294.324 35.9938 294.172 36.6816 293.867 37.2749C293.562 37.8648 293.128 38.3255 292.565 38.657C292.004 38.9851 291.338 39.1491 290.566 39.1491ZM290.576 37.5085C290.927 37.5085 291.221 37.4091 291.456 37.2102C291.691 37.008 291.869 36.733 291.988 36.3849C292.11 36.0369 292.172 35.6409 292.172 35.1967C292.172 34.7526 292.11 34.3565 291.988 34.0085C291.869 33.6605 291.691 33.3854 291.456 33.1832C291.221 32.9811 290.927 32.88 290.576 32.88C290.221 32.88 289.923 32.9811 289.681 33.1832C289.442 33.3854 289.262 33.6605 289.139 34.0085C289.02 34.3565 288.96 34.7526 288.96 35.1967C288.96 35.6409 289.02 36.0369 289.139 36.3849C289.262 36.733 289.442 37.008 289.681 37.2102C289.923 37.4091 290.221 37.5085 290.576 37.5085ZM295.702 39V31.3636H297.755V32.696H297.834C297.974 32.2221 298.207 31.8641 298.535 31.6222C298.864 31.3769 299.241 31.2543 299.669 31.2543C299.775 31.2543 299.889 31.2609 300.012 31.2741C300.135 31.2874 300.242 31.3056 300.335 31.3288V33.2081C300.236 33.1783 300.098 33.1518 299.922 33.1286C299.747 33.1054 299.586 33.0938 299.44 33.0938C299.129 33.0938 298.85 33.1617 298.605 33.2976C298.363 33.4302 298.171 33.6158 298.028 33.8544C297.889 34.093 297.82 34.3681 297.82 34.6797V39H295.702ZM308.732 31.3636V32.9545H304.133V31.3636H308.732ZM305.177 29.5341H307.295V36.6534C307.295 36.849 307.325 37.0014 307.385 37.1108C307.445 37.2169 307.527 37.2914 307.633 37.3345C307.743 37.3776 307.869 37.3991 308.011 37.3991C308.111 37.3991 308.21 37.3909 308.31 37.3743C308.409 37.3544 308.485 37.3395 308.538 37.3295L308.871 38.9055C308.765 38.9387 308.616 38.9768 308.424 39.0199C308.232 39.0663 307.998 39.0945 307.723 39.1044C307.213 39.1243 306.765 39.0563 306.381 38.9006C305.999 38.7448 305.703 38.5028 305.491 38.1747C305.279 37.8466 305.174 37.4323 305.177 36.9318V29.5341ZM312.394 34.5852V39H310.276V28.8182H312.334V32.7109H312.424C312.596 32.2602 312.874 31.9072 313.259 31.652C313.643 31.3935 314.126 31.2642 314.706 31.2642C315.236 31.2642 315.698 31.3802 316.093 31.6122C316.49 31.8409 316.799 32.1707 317.017 32.6016C317.239 33.0291 317.349 33.5412 317.345 34.1378V39H315.228V34.5156C315.231 34.045 315.112 33.6787 314.87 33.4169C314.631 33.1551 314.296 33.0241 313.865 33.0241C313.577 33.0241 313.322 33.0855 313.1 33.2081C312.881 33.3307 312.709 33.5097 312.583 33.745C312.46 33.977 312.397 34.2571 312.394 34.5852ZM322.492 39.1491C321.707 39.1491 321.031 38.9901 320.464 38.6719C319.9 38.3504 319.466 37.8963 319.161 37.3097C318.856 36.7197 318.704 36.022 318.704 35.2166C318.704 34.4311 318.856 33.7417 319.161 33.1484C319.466 32.5552 319.895 32.0928 320.449 31.7614C321.006 31.4299 321.659 31.2642 322.408 31.2642C322.912 31.2642 323.381 31.3454 323.815 31.5078C324.252 31.6669 324.633 31.9072 324.958 32.2287C325.286 32.5502 325.542 32.9545 325.724 33.4418C325.906 33.9257 325.997 34.4924 325.997 35.142V35.7237H319.549V34.4112H324.004C324.004 34.1063 323.937 33.8362 323.805 33.6009C323.672 33.3655 323.488 33.1816 323.253 33.049C323.021 32.9131 322.751 32.8452 322.443 32.8452C322.121 32.8452 321.836 32.9197 321.587 33.0689C321.342 33.2147 321.15 33.4119 321.011 33.6605C320.872 33.9058 320.8 34.1792 320.797 34.4808V35.7287C320.797 36.1065 320.867 36.433 321.006 36.7081C321.148 36.9832 321.349 37.1953 321.607 37.3445C321.866 37.4936 322.172 37.5682 322.527 37.5682C322.762 37.5682 322.978 37.535 323.173 37.4688C323.369 37.4025 323.536 37.303 323.676 37.1705C323.815 37.0379 323.921 36.8755 323.994 36.6832L325.953 36.8125C325.853 37.2831 325.649 37.6941 325.341 38.0455C325.036 38.3935 324.642 38.6652 324.158 38.8608C323.677 39.053 323.122 39.1491 322.492 39.1491ZM334.681 31.3636V32.9545H330.083V31.3636H334.681ZM331.127 29.5341H333.245V36.6534C333.245 36.849 333.274 37.0014 333.334 37.1108C333.394 37.2169 333.477 37.2914 333.583 37.3345C333.692 37.3776 333.818 37.3991 333.96 37.3991C334.06 37.3991 334.159 37.3909 334.259 37.3743C334.358 37.3544 334.434 37.3395 334.487 37.3295L334.821 38.9055C334.715 38.9387 334.565 38.9768 334.373 39.0199C334.181 39.0663 333.947 39.0945 333.672 39.1044C333.162 39.1243 332.714 39.0563 332.33 38.9006C331.949 38.7448 331.652 38.5028 331.44 38.1747C331.228 37.8466 331.123 37.4323 331.127 36.9318V29.5341ZM338.239 39.1442C337.751 39.1442 337.317 39.0597 336.936 38.8906C336.555 38.7183 336.253 38.4647 336.031 38.13C335.812 37.7919 335.703 37.371 335.703 36.8672C335.703 36.4429 335.781 36.0866 335.937 35.7983C336.092 35.5099 336.305 35.2779 336.573 35.1023C336.842 34.9266 337.146 34.794 337.488 34.7045C337.833 34.6151 338.194 34.5521 338.572 34.5156C339.016 34.4692 339.374 34.4261 339.646 34.3864C339.917 34.3433 340.114 34.2803 340.237 34.1974C340.36 34.1146 340.421 33.992 340.421 33.8295V33.7997C340.421 33.4848 340.322 33.2412 340.123 33.0689C339.927 32.8965 339.649 32.8104 339.288 32.8104C338.906 32.8104 338.603 32.8949 338.378 33.0639C338.152 33.2296 338.003 33.4384 337.93 33.6903L335.972 33.5312C336.071 33.0672 336.266 32.6662 336.558 32.3281C336.85 31.9867 337.226 31.7249 337.687 31.5426C338.151 31.357 338.688 31.2642 339.297 31.2642C339.722 31.2642 340.128 31.3139 340.516 31.4134C340.907 31.5128 341.253 31.6669 341.555 31.8757C341.86 32.0845 342.1 32.353 342.275 32.6811C342.451 33.0059 342.539 33.3954 342.539 33.8494V39H340.53V37.9411H340.471C340.348 38.1797 340.184 38.3902 339.979 38.5724C339.773 38.7514 339.526 38.8923 339.238 38.995C338.949 39.0945 338.616 39.1442 338.239 39.1442ZM338.845 37.6825C339.157 37.6825 339.432 37.6212 339.67 37.4986C339.909 37.3726 340.096 37.2036 340.232 36.9915C340.368 36.7794 340.436 36.5391 340.436 36.2706V35.4602C340.37 35.5033 340.279 35.5431 340.163 35.5795C340.05 35.6127 339.922 35.6442 339.78 35.674C339.637 35.7005 339.495 35.7254 339.352 35.7486C339.21 35.7685 339.08 35.7867 338.964 35.8033C338.716 35.8397 338.499 35.8977 338.313 35.9773C338.128 36.0568 337.983 36.1645 337.881 36.3004C337.778 36.433 337.726 36.5987 337.726 36.7976C337.726 37.0859 337.831 37.3063 338.04 37.4588C338.252 37.608 338.52 37.6825 338.845 37.6825ZM344.182 39V31.3636H346.235V32.696H346.315C346.454 32.2221 346.688 31.8641 347.016 31.6222C347.344 31.3769 347.722 31.2543 348.149 31.2543C348.255 31.2543 348.37 31.2609 348.492 31.2741C348.615 31.2874 348.723 31.3056 348.816 31.3288V33.2081C348.716 33.1783 348.579 33.1518 348.403 33.1286C348.227 33.1054 348.067 33.0938 347.921 33.0938C347.609 33.0938 347.331 33.1617 347.085 33.2976C346.844 33.4302 346.651 33.6158 346.509 33.8544C346.37 34.093 346.3 34.3681 346.3 34.6797V39H344.182ZM352.995 42.0227C352.309 42.0227 351.721 41.9283 351.231 41.7393C350.743 41.5537 350.356 41.3002 350.067 40.9787C349.779 40.6572 349.592 40.2959 349.505 39.8949L351.464 39.6314C351.524 39.7839 351.618 39.9264 351.748 40.0589C351.877 40.1915 352.048 40.2976 352.26 40.3771C352.475 40.46 352.737 40.5014 353.045 40.5014C353.506 40.5014 353.885 40.3887 354.184 40.1634C354.485 39.9413 354.636 39.5684 354.636 39.0447V37.6477H354.547C354.454 37.8598 354.315 38.0604 354.129 38.2493C353.943 38.4382 353.705 38.5923 353.413 38.7116C353.121 38.831 352.773 38.8906 352.369 38.8906C351.796 38.8906 351.274 38.758 350.803 38.4929C350.336 38.2244 349.963 37.8151 349.684 37.2649C349.409 36.7114 349.272 36.0121 349.272 35.1669C349.272 34.3018 349.413 33.5793 349.694 32.9993C349.976 32.4193 350.351 31.9851 350.818 31.6967C351.289 31.4084 351.804 31.2642 352.364 31.2642C352.792 31.2642 353.15 31.3371 353.438 31.483C353.726 31.6255 353.958 31.8045 354.134 32.0199C354.313 32.232 354.45 32.4408 354.547 32.6463H354.626V31.3636H356.729V39.0746C356.729 39.7242 356.57 40.2678 356.252 40.7053C355.934 41.1428 355.493 41.4709 354.929 41.6896C354.369 41.9117 353.725 42.0227 352.995 42.0227ZM353.04 37.2997C353.382 37.2997 353.67 37.2152 353.905 37.0462C354.144 36.8738 354.326 36.6286 354.452 36.3104C354.581 35.9889 354.646 35.6044 354.646 35.157C354.646 34.7095 354.583 34.3217 354.457 33.9936C354.331 33.6622 354.149 33.4053 353.91 33.223C353.672 33.0407 353.382 32.9496 353.04 32.9496C352.692 32.9496 352.399 33.044 352.16 33.233C351.922 33.4186 351.741 33.6771 351.618 34.0085C351.496 34.34 351.434 34.7228 351.434 35.157C351.434 35.5978 351.496 35.9789 351.618 36.3004C351.744 36.6186 351.925 36.8655 352.16 37.0412C352.399 37.2135 352.692 37.2997 353.04 37.2997ZM361.895 39.1491C361.109 39.1491 360.433 38.9901 359.866 38.6719C359.303 38.3504 358.869 37.8963 358.564 37.3097C358.259 36.7197 358.106 36.022 358.106 35.2166C358.106 34.4311 358.259 33.7417 358.564 33.1484C358.869 32.5552 359.298 32.0928 359.851 31.7614C360.408 31.4299 361.061 31.2642 361.81 31.2642C362.314 31.2642 362.783 31.3454 363.217 31.5078C363.655 31.6669 364.036 31.9072 364.361 32.2287C364.689 32.5502 364.944 32.9545 365.126 33.4418C365.308 33.9257 365.4 34.4924 365.4 35.142V35.7237H358.951V34.4112H363.406C363.406 34.1063 363.34 33.8362 363.207 33.6009C363.075 33.3655 362.891 33.1816 362.655 33.049C362.423 32.9131 362.153 32.8452 361.845 32.8452C361.523 32.8452 361.238 32.9197 360.99 33.0689C360.745 33.2147 360.552 33.4119 360.413 33.6605C360.274 33.9058 360.203 34.1792 360.199 34.4808V35.7287C360.199 36.1065 360.269 36.433 360.408 36.7081C360.551 36.9832 360.751 37.1953 361.01 37.3445C361.268 37.4936 361.575 37.5682 361.929 37.5682C362.165 37.5682 362.38 37.535 362.576 37.4688C362.771 37.4025 362.939 37.303 363.078 37.1705C363.217 37.0379 363.323 36.8755 363.396 36.6832L365.355 36.8125C365.255 37.2831 365.052 37.6941 364.743 38.0455C364.438 38.3935 364.044 38.6652 363.56 38.8608C363.08 39.053 362.524 39.1491 361.895 39.1491ZM370.843 31.3636V32.9545H366.245V31.3636H370.843ZM367.289 29.5341H369.407V36.6534C369.407 36.849 369.437 37.0014 369.496 37.1108C369.556 37.2169 369.639 37.2914 369.745 37.3345C369.854 37.3776 369.98 37.3991 370.123 37.3991C370.222 37.3991 370.321 37.3909 370.421 37.3743C370.52 37.3544 370.597 37.3395 370.65 37.3295L370.983 38.9055C370.877 38.9387 370.727 38.9768 370.535 39.0199C370.343 39.0663 370.109 39.0945 369.834 39.1044C369.324 39.1243 368.876 39.0563 368.492 38.9006C368.111 38.7448 367.814 38.5028 367.602 38.1747C367.39 37.8466 367.285 37.4323 367.289 36.9318V29.5341ZM236.487 48.3636V49.9545H231.774V48.3636H236.487ZM232.853 56V47.8118C232.853 47.2583 232.96 46.7992 233.176 46.4347C233.395 46.0701 233.693 45.7966 234.071 45.6143C234.449 45.4321 234.878 45.3409 235.358 45.3409C235.683 45.3409 235.98 45.3658 236.248 45.4155C236.52 45.4652 236.722 45.5099 236.855 45.5497L236.477 47.1406C236.394 47.1141 236.291 47.0893 236.169 47.0661C236.049 47.0429 235.927 47.0312 235.801 47.0312C235.489 47.0312 235.272 47.1042 235.15 47.25C235.027 47.3925 234.966 47.593 234.966 47.8516V56H232.853ZM237.781 56V48.3636H239.899V56H237.781ZM238.845 47.3793C238.53 47.3793 238.26 47.2749 238.034 47.0661C237.812 46.8539 237.701 46.6004 237.701 46.3054C237.701 46.0137 237.812 45.7635 238.034 45.5547C238.26 45.3426 238.53 45.2365 238.845 45.2365C239.16 45.2365 239.428 45.3426 239.65 45.5547C239.875 45.7635 239.988 46.0137 239.988 46.3054C239.988 46.6004 239.875 46.8539 239.65 47.0661C239.428 47.2749 239.16 47.3793 238.845 47.3793ZM245.075 56.1491C244.29 56.1491 243.614 55.9901 243.047 55.6719C242.483 55.3504 242.049 54.8963 241.744 54.3097C241.439 53.7197 241.287 53.022 241.287 52.2166C241.287 51.4311 241.439 50.7417 241.744 50.1484C242.049 49.5552 242.478 49.0928 243.032 48.7614C243.589 48.4299 244.242 48.2642 244.991 48.2642C245.495 48.2642 245.964 48.3454 246.398 48.5078C246.835 48.6669 247.216 48.9072 247.541 49.2287C247.869 49.5502 248.125 49.9545 248.307 50.4418C248.489 50.9257 248.58 51.4924 248.58 52.142V52.7237H242.132V51.4112H246.587C246.587 51.1063 246.52 50.8362 246.388 50.6009C246.255 50.3655 246.071 50.1816 245.836 50.049C245.604 49.9131 245.334 49.8452 245.026 49.8452C244.704 49.8452 244.419 49.9197 244.17 50.0689C243.925 50.2147 243.733 50.4119 243.594 50.6605C243.455 50.9058 243.383 51.1792 243.38 51.4808V52.7287C243.38 53.1065 243.45 53.433 243.589 53.7081C243.731 53.9832 243.932 54.1953 244.19 54.3445C244.449 54.4936 244.755 54.5682 245.11 54.5682C245.345 54.5682 245.561 54.535 245.756 54.4688C245.952 54.4025 246.119 54.303 246.259 54.1705C246.398 54.0379 246.504 53.8755 246.577 53.6832L248.536 53.8125C248.436 54.2831 248.232 54.6941 247.924 55.0455C247.619 55.3935 247.225 55.6652 246.741 55.8608C246.26 56.053 245.705 56.1491 245.075 56.1491ZM252.08 45.8182V56H249.962V45.8182H252.08ZM256.591 56.1243C256.011 56.1243 255.485 55.9751 255.015 55.6768C254.547 55.3752 254.176 54.9328 253.901 54.3494C253.629 53.7628 253.493 53.0436 253.493 52.1918C253.493 51.3168 253.634 50.5893 253.916 50.0092C254.198 49.4259 254.572 48.9901 255.04 48.7017C255.51 48.41 256.026 48.2642 256.586 48.2642C257.013 48.2642 257.37 48.3371 257.655 48.483C257.943 48.6255 258.175 48.8045 258.351 49.0199C258.53 49.232 258.666 49.4408 258.758 49.6463H258.823V45.8182H260.936V56H258.848V54.777H258.758C258.659 54.9891 258.518 55.1996 258.336 55.4084C258.157 55.6139 257.923 55.7846 257.635 55.9205C257.35 56.0563 257.002 56.1243 256.591 56.1243ZM257.262 54.4389C257.603 54.4389 257.892 54.3461 258.127 54.1605C258.366 53.9716 258.548 53.7081 258.674 53.37C258.803 53.032 258.868 52.6359 258.868 52.1818C258.868 51.7277 258.805 51.3333 258.679 50.9986C258.553 50.6638 258.371 50.4053 258.132 50.223C257.893 50.0407 257.603 49.9496 257.262 49.9496C256.914 49.9496 256.621 50.044 256.382 50.233C256.143 50.4219 255.963 50.6837 255.84 51.0185C255.717 51.3532 255.656 51.741 255.656 52.1818C255.656 52.6259 255.717 53.0187 255.84 53.3601C255.966 53.6982 256.147 53.9633 256.382 54.1555C256.621 54.3445 256.914 54.4389 257.262 54.4389ZM268.095 56.1442C267.608 56.1442 267.174 56.0597 266.792 55.8906C266.411 55.7183 266.11 55.4647 265.888 55.13C265.669 54.7919 265.559 54.371 265.559 53.8672C265.559 53.4429 265.637 53.0866 265.793 52.7983C265.949 52.5099 266.161 52.2779 266.43 52.1023C266.698 51.9266 267.003 51.794 267.344 51.7045C267.689 51.6151 268.05 51.5521 268.428 51.5156C268.872 51.4692 269.23 51.4261 269.502 51.3864C269.774 51.3433 269.971 51.2803 270.094 51.1974C270.216 51.1146 270.278 50.992 270.278 50.8295V50.7997C270.278 50.4848 270.178 50.2412 269.979 50.0689C269.784 49.8965 269.505 49.8104 269.144 49.8104C268.763 49.8104 268.46 49.8949 268.234 50.0639C268.009 50.2296 267.86 50.4384 267.787 50.6903L265.828 50.5312C265.927 50.0672 266.123 49.6662 266.415 49.3281C266.706 48.9867 267.082 48.7249 267.543 48.5426C268.007 48.357 268.544 48.2642 269.154 48.2642C269.578 48.2642 269.984 48.3139 270.372 48.4134C270.763 48.5128 271.109 48.6669 271.411 48.8757C271.716 49.0845 271.956 49.353 272.132 49.6811C272.308 50.0059 272.395 50.3954 272.395 50.8494V56H270.387V54.9411H270.327C270.205 55.1797 270.041 55.3902 269.835 55.5724C269.63 55.7514 269.383 55.8923 269.094 55.995C268.806 56.0945 268.473 56.1442 268.095 56.1442ZM268.702 54.6825C269.013 54.6825 269.288 54.6212 269.527 54.4986C269.765 54.3726 269.953 54.2036 270.089 53.9915C270.224 53.7794 270.292 53.5391 270.292 53.2706V52.4602C270.226 52.5033 270.135 52.5431 270.019 52.5795C269.906 52.6127 269.779 52.6442 269.636 52.674C269.494 52.7005 269.351 52.7254 269.209 52.7486C269.066 52.7685 268.937 52.7867 268.821 52.8033C268.572 52.8397 268.355 52.8977 268.17 52.9773C267.984 53.0568 267.84 53.1645 267.737 53.3004C267.634 53.433 267.583 53.5987 267.583 53.7976C267.583 54.0859 267.687 54.3063 267.896 54.4588C268.108 54.608 268.377 54.6825 268.702 54.6825ZM276.156 51.5852V56H274.039V48.3636H276.057V49.7109H276.146C276.316 49.2668 276.599 48.9155 276.997 48.657C277.394 48.3951 277.877 48.2642 278.443 48.2642C278.974 48.2642 279.436 48.3802 279.83 48.6122C280.225 48.8442 280.531 49.1757 280.75 49.6065C280.969 50.0341 281.078 50.5445 281.078 51.1378V56H278.96V51.5156C278.964 51.0483 278.844 50.6837 278.602 50.4219C278.36 50.1567 278.027 50.0241 277.603 50.0241C277.318 50.0241 277.066 50.0855 276.847 50.2081C276.632 50.3307 276.463 50.5097 276.34 50.745C276.221 50.977 276.16 51.2571 276.156 51.5852ZM285.561 56.1243C284.981 56.1243 284.456 55.9751 283.985 55.6768C283.518 55.3752 283.147 54.9328 282.872 54.3494C282.6 53.7628 282.464 53.0436 282.464 52.1918C282.464 51.3168 282.605 50.5893 282.887 50.0092C283.168 49.4259 283.543 48.9901 284.01 48.7017C284.481 48.41 284.996 48.2642 285.556 48.2642C285.984 48.2642 286.34 48.3371 286.625 48.483C286.914 48.6255 287.146 48.8045 287.321 49.0199C287.5 49.232 287.636 49.4408 287.729 49.6463H287.794V45.8182H289.907V56H287.819V54.777H287.729C287.63 54.9891 287.489 55.1996 287.306 55.4084C287.127 55.6139 286.894 55.7846 286.605 55.9205C286.32 56.0563 285.972 56.1243 285.561 56.1243ZM286.233 54.4389C286.574 54.4389 286.862 54.3461 287.098 54.1605C287.336 53.9716 287.519 53.7081 287.645 53.37C287.774 53.032 287.838 52.6359 287.838 52.1818C287.838 51.7277 287.775 51.3333 287.65 50.9986C287.524 50.6638 287.341 50.4053 287.103 50.223C286.864 50.0407 286.574 49.9496 286.233 49.9496C285.885 49.9496 285.591 50.044 285.353 50.233C285.114 50.4219 284.933 50.6837 284.811 51.0185C284.688 51.3532 284.627 51.741 284.627 52.1818C284.627 52.6259 284.688 53.0187 284.811 53.3601C284.937 53.6982 285.117 53.9633 285.353 54.1555C285.591 54.3445 285.885 54.4389 286.233 54.4389ZM298.95 48.3636V49.9545H294.351V48.3636H298.95ZM295.395 46.5341H297.513V53.6534C297.513 53.849 297.543 54.0014 297.603 54.1108C297.662 54.2169 297.745 54.2914 297.851 54.3345C297.961 54.3776 298.087 54.3991 298.229 54.3991C298.328 54.3991 298.428 54.3909 298.527 54.3743C298.627 54.3544 298.703 54.3395 298.756 54.3295L299.089 55.9055C298.983 55.9387 298.834 55.9768 298.642 56.0199C298.449 56.0663 298.216 56.0945 297.941 56.1044C297.43 56.1243 296.983 56.0563 296.598 55.9006C296.217 55.7448 295.921 55.5028 295.708 55.1747C295.496 54.8466 295.392 54.4323 295.395 53.9318V46.5341ZM302.507 56.1442C302.02 56.1442 301.586 56.0597 301.205 55.8906C300.823 55.7183 300.522 55.4647 300.3 55.13C300.081 54.7919 299.972 54.371 299.972 53.8672C299.972 53.4429 300.049 53.0866 300.205 52.7983C300.361 52.5099 300.573 52.2779 300.842 52.1023C301.11 51.9266 301.415 51.794 301.756 51.7045C302.101 51.6151 302.462 51.5521 302.84 51.5156C303.284 51.4692 303.642 51.4261 303.914 51.3864C304.186 51.3433 304.383 51.2803 304.506 51.1974C304.628 51.1146 304.69 50.992 304.69 50.8295V50.7997C304.69 50.4848 304.59 50.2412 304.391 50.0689C304.196 49.8965 303.917 49.8104 303.556 49.8104C303.175 49.8104 302.872 49.8949 302.646 50.0639C302.421 50.2296 302.272 50.4384 302.199 50.6903L300.24 50.5312C300.339 50.0672 300.535 49.6662 300.827 49.3281C301.118 48.9867 301.495 48.7249 301.955 48.5426C302.419 48.357 302.956 48.2642 303.566 48.2642C303.99 48.2642 304.396 48.3139 304.784 48.4134C305.175 48.5128 305.522 48.6669 305.823 48.8757C306.128 49.0845 306.368 49.353 306.544 49.6811C306.72 50.0059 306.808 50.3954 306.808 50.8494V56H304.799V54.9411H304.739C304.617 55.1797 304.453 55.3902 304.247 55.5724C304.042 55.7514 303.795 55.8923 303.506 55.995C303.218 56.0945 302.885 56.1442 302.507 56.1442ZM303.114 54.6825C303.425 54.6825 303.7 54.6212 303.939 54.4986C304.178 54.3726 304.365 54.2036 304.501 53.9915C304.637 53.7794 304.705 53.5391 304.705 53.2706V52.4602C304.638 52.5033 304.547 52.5431 304.431 52.5795C304.318 52.6127 304.191 52.6442 304.048 52.674C303.906 52.7005 303.763 52.7254 303.621 52.7486C303.478 52.7685 303.349 52.7867 303.233 52.8033C302.984 52.8397 302.767 52.8977 302.582 52.9773C302.396 53.0568 302.252 53.1645 302.149 53.3004C302.046 53.433 301.995 53.5987 301.995 53.7976C301.995 54.0859 302.099 54.3063 302.308 54.4588C302.52 54.608 302.789 54.6825 303.114 54.6825ZM308.451 58.8636V48.3636H310.539V49.6463H310.633C310.726 49.4408 310.86 49.232 311.036 49.0199C311.215 48.8045 311.447 48.6255 311.732 48.483C312.02 48.3371 312.378 48.2642 312.806 48.2642C313.363 48.2642 313.876 48.41 314.347 48.7017C314.818 48.9901 315.194 49.4259 315.475 50.0092C315.757 50.5893 315.898 51.3168 315.898 52.1918C315.898 53.0436 315.761 53.7628 315.485 54.3494C315.214 54.9328 314.842 55.3752 314.372 55.6768C313.904 55.9751 313.381 56.1243 312.801 56.1243C312.39 56.1243 312.04 56.0563 311.752 55.9205C311.467 55.7846 311.233 55.6139 311.051 55.4084C310.868 55.1996 310.729 54.9891 310.633 54.777H310.569V58.8636H308.451ZM310.524 52.1818C310.524 52.6359 310.587 53.032 310.713 53.37C310.839 53.7081 311.021 53.9716 311.26 54.1605C311.498 54.3461 311.788 54.4389 312.13 54.4389C312.474 54.4389 312.766 54.3445 313.005 54.1555C313.243 53.9633 313.424 53.6982 313.547 53.3601C313.672 53.0187 313.735 52.6259 313.735 52.1818C313.735 51.741 313.674 51.3532 313.551 51.0185C313.429 50.6837 313.248 50.4219 313.01 50.233C312.771 50.044 312.478 49.9496 312.13 49.9496C311.785 49.9496 311.493 50.0407 311.255 50.223C311.019 50.4053 310.839 50.6638 310.713 50.9986C310.587 51.3333 310.524 51.7277 310.524 52.1818Z" fill="black"/>
<g clip-path="url(#clip0_45_315)">
<path d="M328 56.9942C331.282 56.9942 334 54.2719 334 50.9971C334 47.7163 331.276 45 327.994 45C324.718 45 322 47.7163 322 50.9971C322 54.2719 324.724 56.9942 328 56.9942ZM328 55.9946C325.224 55.9946 323.006 53.7722 323.006 50.9971C323.006 48.222 325.218 45.9995 327.994 45.9995C330.771 45.9995 333 48.222 333 50.9971C333 53.7722 330.776 55.9946 328 55.9946ZM327.353 53.7898C327.547 53.7898 327.712 53.6958 327.829 53.5135L330.518 49.2861C330.582 49.1686 330.659 49.0392 330.659 48.9099C330.659 48.6453 330.424 48.4748 330.176 48.4748C330.029 48.4748 329.882 48.5688 329.771 48.7394L327.329 52.6551L326.171 51.1558C326.029 50.9677 325.9 50.9206 325.735 50.9206C325.482 50.9206 325.282 51.1264 325.282 51.3851C325.282 51.5145 325.335 51.6379 325.418 51.7496L326.853 53.5135C327 53.7075 327.159 53.7898 327.353 53.7898Z" fill="#FF7A00"/>
</g>
<defs>
<clipPath id="clip0_45_315">
<rect width="12" height="12" fill="white" transform="translate(322 45)"/>
</clipPath>
</defs>
</svg>
